<svg width="260" height="360" viewBox="0 0 260 360" fill="none" xmlns="http://www.w3.org/2000/svg">
<rect width="260" height="360" rx="24" fill="url(#paint0_linear_809_2050)"/>
<rect x="22.5" y="17" width="215" height="56" rx="24" fill="white"/>
<path d="M40.2695 53V35.8203H52.0469V38.7266H43.7383V42.793H50.9102V45.6992H43.7383V53H40.2695ZM58.0469 53H54.7539V40.5547H57.8125V42.3242C58.3359 41.4883 58.8047 40.9375 59.2188 40.6719C59.6406 40.4062 60.1172 40.2734 60.6484 40.2734C61.3984 40.2734 62.1211 40.4805 62.8164 40.8945L61.7969 43.7656C61.2422 43.4062 60.7266 43.2266 60.25 43.2266C59.7891 43.2266 59.3984 43.3555 59.0781 43.6133C58.7578 43.8633 58.5039 44.3203 58.3164 44.9844C58.1367 45.6484 58.0469 47.0391 58.0469 49.1562V53ZM71.4531 49.0391L74.7344 49.5898C74.3125 50.793 73.6445 51.7109 72.7305 52.3438C71.8242 52.9688 70.6875 53.2812 69.3203 53.2812C67.1562 53.2812 65.5547 52.5742 64.5156 51.1602C63.6953 50.0273 63.2852 48.5977 63.2852 46.8711C63.2852 44.8086 63.8242 43.1953 64.9023 42.0312C65.9805 40.8594 67.3438 40.2734 68.9922 40.2734C70.8438 40.2734 72.3047 40.8867 73.375 42.1133C74.4453 43.332 74.957 45.2031 74.9102 47.7266H66.6602C66.6836 48.7031 66.9492 49.4648 67.457 50.0117C67.9648 50.5508 68.5977 50.8203 69.3555 50.8203C69.8711 50.8203 70.3047 50.6797 70.6562 50.3984C71.0078 50.1172 71.2734 49.6641 71.4531 49.0391ZM71.6406 45.7109C71.6172 44.7578 71.3711 44.0352 70.9023 43.543C70.4336 43.043 69.8633 42.793 69.1914 42.793C68.4727 42.793 67.8789 43.0547 67.4102 43.5781C66.9414 44.1016 66.7109 44.8125 66.7188 45.7109H71.6406ZM84.8125 49.0391L88.0938 49.5898C87.6719 50.793 87.0039 51.7109 86.0898 52.3438C85.1836 52.9688 84.0469 53.2812 82.6797 53.2812C80.5156 53.2812 78.9141 52.5742 77.875 51.1602C77.0547 50.0273 76.6445 48.5977 76.6445 46.8711C76.6445 44.8086 77.1836 43.1953 78.2617 42.0312C79.3398 40.8594 80.7031 40.2734 82.3516 40.2734C84.2031 40.2734 85.6641 40.8867 86.7344 42.1133C87.8047 43.332 88.3164 45.2031 88.2695 47.7266H80.0195C80.043 48.7031 80.3086 49.4648 80.8164 50.0117C81.3242 50.5508 81.957 50.8203 82.7148 50.8203C83.2305 50.8203 83.6641 50.6797 84.0156 50.3984C84.3672 50.1172 84.6328 49.6641 84.8125 49.0391ZM85 45.7109C84.9766 44.7578 84.7305 44.0352 84.2617 43.543C83.793 43.043 83.2227 42.793 82.5508 42.793C81.832 42.793 81.2383 43.0547 80.7695 43.5781C80.3008 44.1016 80.0703 44.8125 80.0781 45.7109H85ZM97.668 53V35.8203H103.234C105.344 35.8203 106.719 35.9062 107.359 36.0781C108.344 36.3359 109.168 36.8984 109.832 37.7656C110.496 38.625 110.828 39.7383 110.828 41.1055C110.828 42.1602 110.637 43.0469 110.254 43.7656C109.871 44.4844 109.383 45.0508 108.789 45.4648C108.203 45.8711 107.605 46.1406 106.996 46.2734C106.168 46.4375 104.969 46.5195 103.398 46.5195H101.137V53H97.668ZM101.137 38.7266V43.6016H103.035C104.402 43.6016 105.316 43.5117 105.777 43.332C106.238 43.1523 106.598 42.8711 106.855 42.4883C107.121 42.1055 107.254 41.6602 107.254 41.1523C107.254 40.5273 107.07 40.0117 106.703 39.6055C106.336 39.1992 105.871 38.9453 105.309 38.8438C104.895 38.7656 104.062 38.7266 102.812 38.7266H101.137ZM113.652 53V35.8203H116.945V53H113.652ZM122.793 44.3516L119.805 43.8125C120.141 42.6094 120.719 41.7188 121.539 41.1406C122.359 40.5625 123.578 40.2734 125.195 40.2734C126.664 40.2734 127.758 40.4492 128.477 40.8008C129.195 41.1445 129.699 41.5859 129.988 42.125C130.285 42.6562 130.434 43.6367 130.434 45.0664L130.398 48.9102C130.398 50.0039 130.449 50.8125 130.551 51.3359C130.66 51.8516 130.859 52.4062 131.148 53H127.891C127.805 52.7812 127.699 52.457 127.574 52.0273C127.52 51.832 127.48 51.7031 127.457 51.6406C126.895 52.1875 126.293 52.5977 125.652 52.8711C125.012 53.1445 124.328 53.2812 123.602 53.2812C122.32 53.2812 121.309 52.9336 120.566 52.2383C119.832 51.543 119.465 50.6641 119.465 49.6016C119.465 48.8984 119.633 48.2734 119.969 47.7266C120.305 47.1719 120.773 46.75 121.375 46.4609C121.984 46.1641 122.859 45.9062 124 45.6875C125.539 45.3984 126.605 45.1289 127.199 44.8789V44.5508C127.199 43.918 127.043 43.4688 126.73 43.2031C126.418 42.9297 125.828 42.793 124.961 42.793C124.375 42.793 123.918 42.9102 123.59 43.1445C123.262 43.3711 122.996 43.7734 122.793 44.3516ZM127.199 47.0234C126.777 47.1641 126.109 47.332 125.195 47.5273C124.281 47.7227 123.684 47.9141 123.402 48.1016C122.973 48.4062 122.758 48.793 122.758 49.2617C122.758 49.7227 122.93 50.1211 123.273 50.457C123.617 50.793 124.055 50.9609 124.586 50.9609C125.18 50.9609 125.746 50.7656 126.285 50.375C126.684 50.0781 126.945 49.7148 127.07 49.2852C127.156 49.0039 127.199 48.4688 127.199 47.6797V47.0234ZM145.012 53H141.719V46.6484C141.719 45.3047 141.648 44.4375 141.508 44.0469C141.367 43.6484 141.137 43.3398 140.816 43.1211C140.504 42.9023 140.125 42.793 139.68 42.793C139.109 42.793 138.598 42.9492 138.145 43.2617C137.691 43.5742 137.379 43.9883 137.207 44.5039C137.043 45.0195 136.961 45.9727 136.961 47.3633V53H133.668V40.5547H136.727V42.3828C137.812 40.9766 139.18 40.2734 140.828 40.2734C141.555 40.2734 142.219 40.4062 142.82 40.6719C143.422 40.9297 143.875 41.2617 144.18 41.668C144.492 42.0742 144.707 42.5352 144.824 43.0508C144.949 43.5664 145.012 44.3047 145.012 45.2656V53ZM157.504 44.3516L154.516 43.8125C154.852 42.6094 155.43 41.7188 156.25 41.1406C157.07 40.5625 158.289 40.2734 159.906 40.2734C161.375 40.2734 162.469 40.4492 163.188 40.8008C163.906 41.1445 164.41 41.5859 164.699 42.125C164.996 42.6562 165.145 43.6367 165.145 45.0664L165.109 48.9102C165.109 50.0039 165.16 50.8125 165.262 51.3359C165.371 51.8516 165.57 52.4062 165.859 53H162.602C162.516 52.7812 162.41 52.457 162.285 52.0273C162.23 51.832 162.191 51.7031 162.168 51.6406C161.605 52.1875 161.004 52.5977 160.363 52.8711C159.723 53.1445 159.039 53.2812 158.312 53.2812C157.031 53.2812 156.02 52.9336 155.277 52.2383C154.543 51.543 154.176 50.6641 154.176 49.6016C154.176 48.8984 154.344 48.2734 154.68 47.7266C155.016 47.1719 155.484 46.75 156.086 46.4609C156.695 46.1641 157.57 45.9062 158.711 45.6875C160.25 45.3984 161.316 45.1289 161.91 44.8789V44.5508C161.91 43.918 161.754 43.4688 161.441 43.2031C161.129 42.9297 160.539 42.793 159.672 42.793C159.086 42.793 158.629 42.9102 158.301 43.1445C157.973 43.3711 157.707 43.7734 157.504 44.3516ZM161.91 47.0234C161.488 47.1641 160.82 47.332 159.906 47.5273C158.992 47.7227 158.395 47.9141 158.113 48.1016C157.684 48.4062 157.469 48.793 157.469 49.2617C157.469 49.7227 157.641 50.1211 157.984 50.457C158.328 50.793 158.766 50.9609 159.297 50.9609C159.891 50.9609 160.457 50.7656 160.996 50.375C161.395 50.0781 161.656 49.7148 161.781 49.2852C161.867 49.0039 161.91 48.4688 161.91 47.6797V47.0234ZM179.254 44.2344L176.008 44.8203C175.898 44.1719 175.648 43.6836 175.258 43.3555C174.875 43.0273 174.375 42.8633 173.758 42.8633C172.938 42.8633 172.281 43.1484 171.789 43.7188C171.305 44.2812 171.062 45.2266 171.062 46.5547C171.062 48.0312 171.309 49.0742 171.801 49.6836C172.301 50.293 172.969 50.5977 173.805 50.5977C174.43 50.5977 174.941 50.4219 175.34 50.0703C175.738 49.7109 176.02 49.0977 176.184 48.2305L179.418 48.7812C179.082 50.2656 178.438 51.3867 177.484 52.1445C176.531 52.9023 175.254 53.2812 173.652 53.2812C171.832 53.2812 170.379 52.707 169.293 51.5586C168.215 50.4102 167.676 48.8203 167.676 46.7891C167.676 44.7344 168.219 43.1367 169.305 41.9961C170.391 40.8477 171.859 40.2734 173.711 40.2734C175.227 40.2734 176.43 40.6016 177.32 41.2578C178.219 41.9062 178.863 42.8984 179.254 44.2344ZM187.469 40.5547V43.1797H185.219V48.1953C185.219 49.2109 185.238 49.8047 185.277 49.9766C185.324 50.1406 185.422 50.2773 185.57 50.3867C185.727 50.4961 185.914 50.5508 186.133 50.5508C186.438 50.5508 186.879 50.4453 187.457 50.2344L187.738 52.7891C186.973 53.1172 186.105 53.2812 185.137 53.2812C184.543 53.2812 184.008 53.1836 183.531 52.9883C183.055 52.7852 182.703 52.5273 182.477 52.2148C182.258 51.8945 182.105 51.4648 182.02 50.9258C181.949 50.543 181.914 49.7695 181.914 48.6055V43.1797H180.402V40.5547H181.914V38.082L185.219 36.1602V40.5547H187.469ZM189.754 38.8672V35.8203H193.047V38.8672H189.754ZM189.754 53V40.5547H193.047V53H189.754ZM199.855 53L194.84 40.5547H198.297L200.641 46.9062L201.32 49.0273C201.5 48.4883 201.613 48.1328 201.66 47.9609C201.77 47.6094 201.887 47.2578 202.012 46.9062L204.379 40.5547H207.766L202.82 53H199.855ZM217 49.0391L220.281 49.5898C219.859 50.793 219.191 51.7109 218.277 52.3438C217.371 52.9688 216.234 53.2812 214.867 53.2812C212.703 53.2812 211.102 52.5742 210.062 51.1602C209.242 50.0273 208.832 48.5977 208.832 46.8711C208.832 44.8086 209.371 43.1953 210.449 42.0312C211.527 40.8594 212.891 40.2734 214.539 40.2734C216.391 40.2734 217.852 40.8867 218.922 42.1133C219.992 43.332 220.504 45.2031 220.457 47.7266H212.207C212.23 48.7031 212.496 49.4648 213.004 50.0117C213.512 50.5508 214.145 50.8203 214.902 50.8203C215.418 50.8203 215.852 50.6797 216.203 50.3984C216.555 50.1172 216.82 49.6641 217 49.0391ZM217.188 45.7109C217.164 44.7578 216.918 44.0352 216.449 43.543C215.98 43.043 215.41 42.793 214.738 42.793C214.02 42.793 213.426 43.0547 212.957 43.5781C212.488 44.1016 212.258 44.8125 212.266 45.7109H217.188Z" fill="black"/>
<path d="M93.2422 131H91.8359V122.039C91.4974 122.362 91.0521 122.685 90.5 123.008C89.9531 123.331 89.4609 123.573 89.0234 123.734V122.375C89.8099 122.005 90.4974 121.557 91.0859 121.031C91.6745 120.505 92.0911 119.995 92.3359 119.5H93.2422V131ZM97.375 131V119.547H99.6562L102.367 127.656C102.617 128.411 102.799 128.977 102.914 129.352C103.044 128.935 103.247 128.323 103.523 127.516L106.266 119.547H108.305V131H106.844V121.414L103.516 131H102.148L98.8359 121.25V131H97.375ZM110.688 131V119.547H114.984C115.859 119.547 116.56 119.664 117.086 119.898C117.617 120.128 118.031 120.484 118.328 120.969C118.63 121.448 118.781 121.951 118.781 122.477C118.781 122.966 118.648 123.427 118.383 123.859C118.117 124.292 117.716 124.641 117.18 124.906C117.872 125.109 118.404 125.456 118.773 125.945C119.148 126.435 119.336 127.013 119.336 127.68C119.336 128.216 119.221 128.716 118.992 129.18C118.768 129.638 118.49 129.992 118.156 130.242C117.823 130.492 117.404 130.682 116.898 130.812C116.398 130.938 115.784 131 115.055 131H110.688ZM112.203 124.359H114.68C115.352 124.359 115.833 124.315 116.125 124.227C116.51 124.112 116.799 123.922 116.992 123.656C117.19 123.391 117.289 123.057 117.289 122.656C117.289 122.276 117.198 121.943 117.016 121.656C116.833 121.365 116.573 121.167 116.234 121.062C115.896 120.953 115.315 120.898 114.492 120.898H112.203V124.359ZM112.203 129.648H115.055C115.544 129.648 115.888 129.63 116.086 129.594C116.435 129.531 116.727 129.427 116.961 129.281C117.195 129.135 117.388 128.924 117.539 128.648C117.69 128.367 117.766 128.044 117.766 127.68C117.766 127.253 117.656 126.883 117.438 126.57C117.219 126.253 116.914 126.031 116.523 125.906C116.138 125.776 115.581 125.711 114.852 125.711H112.203V129.648ZM125.133 128.523L126.523 128.305C126.602 128.862 126.818 129.289 127.172 129.586C127.531 129.883 128.031 130.031 128.672 130.031C129.318 130.031 129.797 129.901 130.109 129.641C130.422 129.375 130.578 129.065 130.578 128.711C130.578 128.393 130.44 128.143 130.164 127.961C129.971 127.836 129.492 127.677 128.727 127.484C127.695 127.224 126.979 127 126.578 126.812C126.182 126.62 125.88 126.357 125.672 126.023C125.469 125.685 125.367 125.312 125.367 124.906C125.367 124.536 125.451 124.195 125.617 123.883C125.789 123.565 126.021 123.302 126.312 123.094C126.531 122.932 126.828 122.797 127.203 122.688C127.583 122.573 127.99 122.516 128.422 122.516C129.073 122.516 129.643 122.609 130.133 122.797C130.628 122.984 130.992 123.24 131.227 123.562C131.461 123.88 131.622 124.307 131.711 124.844L130.336 125.031C130.273 124.604 130.091 124.271 129.789 124.031C129.492 123.792 129.07 123.672 128.523 123.672C127.878 123.672 127.417 123.779 127.141 123.992C126.865 124.206 126.727 124.456 126.727 124.742C126.727 124.924 126.784 125.089 126.898 125.234C127.013 125.385 127.193 125.51 127.438 125.609C127.578 125.661 127.992 125.781 128.68 125.969C129.674 126.234 130.367 126.453 130.758 126.625C131.154 126.792 131.464 127.036 131.688 127.359C131.911 127.682 132.023 128.083 132.023 128.562C132.023 129.031 131.885 129.474 131.609 129.891C131.339 130.302 130.945 130.622 130.43 130.852C129.914 131.076 129.331 131.188 128.68 131.188C127.602 131.188 126.779 130.964 126.211 130.516C125.648 130.068 125.289 129.404 125.133 128.523ZM133.695 134.18V122.703H134.977V123.781C135.279 123.359 135.62 123.044 136 122.836C136.38 122.622 136.841 122.516 137.383 122.516C138.091 122.516 138.716 122.698 139.258 123.062C139.799 123.427 140.208 123.943 140.484 124.609C140.76 125.271 140.898 125.997 140.898 126.789C140.898 127.638 140.745 128.404 140.438 129.086C140.135 129.763 139.693 130.284 139.109 130.648C138.531 131.008 137.922 131.188 137.281 131.188C136.812 131.188 136.391 131.089 136.016 130.891C135.646 130.693 135.341 130.443 135.102 130.141V134.18H133.695ZM134.969 126.898C134.969 127.966 135.185 128.755 135.617 129.266C136.049 129.776 136.573 130.031 137.188 130.031C137.812 130.031 138.346 129.768 138.789 129.242C139.237 128.711 139.461 127.891 139.461 126.781C139.461 125.724 139.242 124.932 138.805 124.406C138.372 123.88 137.854 123.617 137.25 123.617C136.651 123.617 136.12 123.898 135.656 124.461C135.198 125.018 134.969 125.831 134.969 126.898ZM148.281 128.328L149.734 128.508C149.505 129.357 149.081 130.016 148.461 130.484C147.841 130.953 147.049 131.188 146.086 131.188C144.872 131.188 143.909 130.815 143.195 130.07C142.487 129.32 142.133 128.271 142.133 126.922C142.133 125.526 142.492 124.443 143.211 123.672C143.93 122.901 144.862 122.516 146.008 122.516C147.117 122.516 148.023 122.893 148.727 123.648C149.43 124.404 149.781 125.466 149.781 126.836C149.781 126.919 149.779 127.044 149.773 127.211H143.586C143.638 128.122 143.896 128.82 144.359 129.305C144.823 129.789 145.401 130.031 146.094 130.031C146.609 130.031 147.049 129.896 147.414 129.625C147.779 129.354 148.068 128.922 148.281 128.328ZM143.664 126.055H148.297C148.234 125.357 148.057 124.833 147.766 124.484C147.318 123.943 146.737 123.672 146.023 123.672C145.378 123.672 144.833 123.888 144.391 124.32C143.953 124.753 143.711 125.331 143.664 126.055ZM157.188 128.328L158.641 128.508C158.411 129.357 157.987 130.016 157.367 130.484C156.747 130.953 155.956 131.188 154.992 131.188C153.779 131.188 152.815 130.815 152.102 130.07C151.393 129.32 151.039 128.271 151.039 126.922C151.039 125.526 151.398 124.443 152.117 123.672C152.836 122.901 153.768 122.516 154.914 122.516C156.023 122.516 156.93 122.893 157.633 123.648C158.336 124.404 158.688 125.466 158.688 126.836C158.688 126.919 158.685 127.044 158.68 127.211H152.492C152.544 128.122 152.802 128.82 153.266 129.305C153.729 129.789 154.307 130.031 155 130.031C155.516 130.031 155.956 129.896 156.32 129.625C156.685 129.354 156.974 128.922 157.188 128.328ZM152.57 126.055H157.203C157.141 125.357 156.964 124.833 156.672 124.484C156.224 123.943 155.643 123.672 154.93 123.672C154.284 123.672 153.74 123.888 153.297 124.32C152.859 124.753 152.617 125.331 152.57 126.055ZM165.797 131V129.953C165.271 130.776 164.497 131.188 163.477 131.188C162.815 131.188 162.206 131.005 161.648 130.641C161.096 130.276 160.667 129.768 160.359 129.117C160.057 128.461 159.906 127.708 159.906 126.859C159.906 126.031 160.044 125.281 160.32 124.609C160.596 123.932 161.01 123.414 161.562 123.055C162.115 122.695 162.732 122.516 163.414 122.516C163.914 122.516 164.359 122.622 164.75 122.836C165.141 123.044 165.458 123.318 165.703 123.656V119.547H167.102V131H165.797ZM161.352 126.859C161.352 127.922 161.576 128.716 162.023 129.242C162.471 129.768 163 130.031 163.609 130.031C164.224 130.031 164.745 129.781 165.172 129.281C165.604 128.776 165.82 128.008 165.82 126.977C165.82 125.841 165.602 125.008 165.164 124.477C164.727 123.945 164.188 123.68 163.547 123.68C162.922 123.68 162.398 123.935 161.977 124.445C161.56 124.956 161.352 125.76 161.352 126.859ZM108.234 155V143.547H112.555C113.315 143.547 113.896 143.583 114.297 143.656C114.859 143.75 115.331 143.93 115.711 144.195C116.091 144.456 116.396 144.823 116.625 145.297C116.859 145.771 116.977 146.292 116.977 146.859C116.977 147.833 116.667 148.659 116.047 149.336C115.427 150.008 114.307 150.344 112.688 150.344H109.75V155H108.234ZM109.75 148.992H112.711C113.69 148.992 114.385 148.81 114.797 148.445C115.208 148.081 115.414 147.568 115.414 146.906C115.414 146.427 115.292 146.018 115.047 145.68C114.807 145.336 114.49 145.109 114.094 145C113.839 144.932 113.367 144.898 112.68 144.898H109.75V148.992ZM118.727 155V143.547H120.133V147.656C120.789 146.896 121.617 146.516 122.617 146.516C123.232 146.516 123.766 146.638 124.219 146.883C124.672 147.122 124.995 147.456 125.188 147.883C125.385 148.31 125.484 148.93 125.484 149.742V155H124.078V149.742C124.078 149.039 123.924 148.529 123.617 148.211C123.315 147.888 122.885 147.727 122.328 147.727C121.911 147.727 121.518 147.836 121.148 148.055C120.784 148.268 120.523 148.56 120.367 148.93C120.211 149.299 120.133 149.81 120.133 150.461V155H118.727ZM127.109 150.852C127.109 149.315 127.536 148.177 128.391 147.438C129.104 146.823 129.974 146.516 131 146.516C132.141 146.516 133.073 146.891 133.797 147.641C134.521 148.385 134.883 149.417 134.883 150.734C134.883 151.802 134.721 152.643 134.398 153.258C134.081 153.867 133.615 154.341 133 154.68C132.391 155.018 131.724 155.188 131 155.188C129.839 155.188 128.898 154.815 128.18 154.07C127.466 153.326 127.109 152.253 127.109 150.852ZM128.555 150.852C128.555 151.914 128.786 152.711 129.25 153.242C129.714 153.768 130.297 154.031 131 154.031C131.698 154.031 132.279 153.766 132.742 153.234C133.206 152.703 133.438 151.893 133.438 150.805C133.438 149.779 133.203 149.003 132.734 148.477C132.271 147.945 131.693 147.68 131 147.68C130.297 147.68 129.714 147.943 129.25 148.469C128.786 148.995 128.555 149.789 128.555 150.852ZM139.609 153.742L139.812 154.984C139.417 155.068 139.062 155.109 138.75 155.109C138.24 155.109 137.844 155.029 137.562 154.867C137.281 154.706 137.083 154.495 136.969 154.234C136.854 153.969 136.797 153.414 136.797 152.57V147.797H135.766V146.703H136.797V144.648L138.195 143.805V146.703H139.609V147.797H138.195V152.648C138.195 153.049 138.219 153.307 138.266 153.422C138.318 153.536 138.398 153.628 138.508 153.695C138.622 153.763 138.784 153.797 138.992 153.797C139.148 153.797 139.354 153.779 139.609 153.742ZM140.469 150.852C140.469 149.315 140.896 148.177 141.75 147.438C142.464 146.823 143.333 146.516 144.359 146.516C145.5 146.516 146.432 146.891 147.156 147.641C147.88 148.385 148.242 149.417 148.242 150.734C148.242 151.802 148.081 152.643 147.758 153.258C147.44 153.867 146.974 154.341 146.359 154.68C145.75 155.018 145.083 155.188 144.359 155.188C143.198 155.188 142.258 154.815 141.539 154.07C140.826 153.326 140.469 152.253 140.469 150.852ZM141.914 150.852C141.914 151.914 142.146 152.711 142.609 153.242C143.073 153.768 143.656 154.031 144.359 154.031C145.057 154.031 145.638 153.766 146.102 153.234C146.565 152.703 146.797 151.893 146.797 150.805C146.797 149.779 146.562 149.003 146.094 148.477C145.63 147.945 145.052 147.68 144.359 147.68C143.656 147.68 143.073 147.943 142.609 148.469C142.146 148.995 141.914 149.789 141.914 150.852ZM82.375 179V167.547H86.6719C87.5469 167.547 88.2474 167.664 88.7734 167.898C89.3047 168.128 89.7188 168.484 90.0156 168.969C90.3177 169.448 90.4688 169.951 90.4688 170.477C90.4688 170.966 90.3359 171.427 90.0703 171.859C89.8047 172.292 89.4036 172.641 88.8672 172.906C89.5599 173.109 90.0911 173.456 90.4609 173.945C90.8359 174.435 91.0234 175.013 91.0234 175.68C91.0234 176.216 90.9089 176.716 90.6797 177.18C90.4557 177.638 90.1771 177.992 89.8438 178.242C89.5104 178.492 89.0911 178.682 88.5859 178.812C88.0859 178.938 87.4714 179 86.7422 179H82.375ZM83.8906 172.359H86.3672C87.0391 172.359 87.5208 172.315 87.8125 172.227C88.1979 172.112 88.487 171.922 88.6797 171.656C88.8776 171.391 88.9766 171.057 88.9766 170.656C88.9766 170.276 88.8854 169.943 88.7031 169.656C88.5208 169.365 88.2604 169.167 87.9219 169.062C87.5833 168.953 87.0026 168.898 86.1797 168.898H83.8906V172.359ZM83.8906 177.648H86.7422C87.2318 177.648 87.5755 177.63 87.7734 177.594C88.1224 177.531 88.4141 177.427 88.6484 177.281C88.8828 177.135 89.0755 176.924 89.2266 176.648C89.3776 176.367 89.4531 176.044 89.4531 175.68C89.4531 175.253 89.3438 174.883 89.125 174.57C88.9062 174.253 88.6016 174.031 88.2109 173.906C87.8255 173.776 87.2682 173.711 86.5391 173.711H83.8906V177.648ZM98.3438 177.977C97.8229 178.419 97.3203 178.732 96.8359 178.914C96.3568 179.096 95.8411 179.188 95.2891 179.188C94.3776 179.188 93.6771 178.966 93.1875 178.523C92.6979 178.076 92.4531 177.505 92.4531 176.812C92.4531 176.406 92.5443 176.036 92.7266 175.703C92.9141 175.365 93.1562 175.094 93.4531 174.891C93.7552 174.688 94.0938 174.534 94.4688 174.43C94.7448 174.357 95.1615 174.286 95.7188 174.219C96.8542 174.083 97.6901 173.922 98.2266 173.734C98.2318 173.542 98.2344 173.419 98.2344 173.367C98.2344 172.794 98.1016 172.391 97.8359 172.156C97.4766 171.839 96.9427 171.68 96.2344 171.68C95.5729 171.68 95.0833 171.797 94.7656 172.031C94.4531 172.26 94.2214 172.669 94.0703 173.258L92.6953 173.07C92.8203 172.482 93.026 172.008 93.3125 171.648C93.599 171.284 94.013 171.005 94.5547 170.812C95.0964 170.615 95.724 170.516 96.4375 170.516C97.1458 170.516 97.7214 170.599 98.1641 170.766C98.6068 170.932 98.9323 171.143 99.1406 171.398C99.349 171.648 99.4948 171.966 99.5781 172.352C99.625 172.591 99.6484 173.023 99.6484 173.648V175.523C99.6484 176.831 99.6771 177.659 99.7344 178.008C99.7969 178.352 99.9167 178.682 100.094 179H98.625C98.4792 178.708 98.3854 178.367 98.3438 177.977ZM98.2266 174.836C97.7161 175.044 96.9505 175.221 95.9297 175.367C95.3516 175.451 94.9427 175.544 94.7031 175.648C94.4635 175.753 94.2786 175.906 94.1484 176.109C94.0182 176.307 93.9531 176.529 93.9531 176.773C93.9531 177.148 94.0938 177.461 94.375 177.711C94.6615 177.961 95.0781 178.086 95.625 178.086C96.1667 178.086 96.6484 177.969 97.0703 177.734C97.4922 177.495 97.8021 177.169 98 176.758C98.151 176.44 98.2266 175.971 98.2266 175.352V174.836ZM101.273 176.523L102.664 176.305C102.742 176.862 102.958 177.289 103.312 177.586C103.672 177.883 104.172 178.031 104.812 178.031C105.458 178.031 105.938 177.901 106.25 177.641C106.562 177.375 106.719 177.065 106.719 176.711C106.719 176.393 106.581 176.143 106.305 175.961C106.112 175.836 105.633 175.677 104.867 175.484C103.836 175.224 103.12 175 102.719 174.812C102.323 174.62 102.021 174.357 101.812 174.023C101.609 173.685 101.508 173.312 101.508 172.906C101.508 172.536 101.591 172.195 101.758 171.883C101.93 171.565 102.161 171.302 102.453 171.094C102.672 170.932 102.969 170.797 103.344 170.688C103.724 170.573 104.13 170.516 104.562 170.516C105.214 170.516 105.784 170.609 106.273 170.797C106.768 170.984 107.133 171.24 107.367 171.562C107.602 171.88 107.763 172.307 107.852 172.844L106.477 173.031C106.414 172.604 106.232 172.271 105.93 172.031C105.633 171.792 105.211 171.672 104.664 171.672C104.018 171.672 103.557 171.779 103.281 171.992C103.005 172.206 102.867 172.456 102.867 172.742C102.867 172.924 102.924 173.089 103.039 173.234C103.154 173.385 103.333 173.51 103.578 173.609C103.719 173.661 104.133 173.781 104.82 173.969C105.815 174.234 106.508 174.453 106.898 174.625C107.294 174.792 107.604 175.036 107.828 175.359C108.052 175.682 108.164 176.083 108.164 176.562C108.164 177.031 108.026 177.474 107.75 177.891C107.479 178.302 107.086 178.622 106.57 178.852C106.055 179.076 105.471 179.188 104.82 179.188C103.742 179.188 102.919 178.964 102.352 178.516C101.789 178.068 101.43 177.404 101.273 176.523ZM109.844 169.164V167.547H111.25V169.164H109.844ZM109.844 179V170.703H111.25V179H109.844ZM118.812 175.961L120.195 176.141C120.044 177.094 119.656 177.841 119.031 178.383C118.411 178.919 117.648 179.188 116.742 179.188C115.607 179.188 114.693 178.818 114 178.078C113.312 177.333 112.969 176.268 112.969 174.883C112.969 173.987 113.117 173.203 113.414 172.531C113.711 171.859 114.161 171.357 114.766 171.023C115.375 170.685 116.036 170.516 116.75 170.516C117.651 170.516 118.388 170.745 118.961 171.203C119.534 171.656 119.901 172.302 120.062 173.141L118.695 173.352C118.565 172.794 118.333 172.375 118 172.094C117.672 171.812 117.273 171.672 116.805 171.672C116.096 171.672 115.521 171.927 115.078 172.438C114.635 172.943 114.414 173.745 114.414 174.844C114.414 175.958 114.628 176.768 115.055 177.273C115.482 177.779 116.039 178.031 116.727 178.031C117.279 178.031 117.74 177.862 118.109 177.523C118.479 177.185 118.714 176.664 118.812 175.961ZM134.711 177.773C135.414 178.258 136.062 178.612 136.656 178.836L136.211 179.891C135.388 179.594 134.568 179.125 133.75 178.484C132.901 178.958 131.964 179.195 130.938 179.195C129.901 179.195 128.961 178.945 128.117 178.445C127.273 177.945 126.622 177.242 126.164 176.336C125.711 175.43 125.484 174.409 125.484 173.273C125.484 172.143 125.714 171.115 126.172 170.188C126.63 169.26 127.281 168.555 128.125 168.07C128.974 167.586 129.922 167.344 130.969 167.344C132.026 167.344 132.979 167.596 133.828 168.102C134.677 168.602 135.323 169.305 135.766 170.211C136.214 171.112 136.438 172.13 136.438 173.266C136.438 174.208 136.294 175.057 136.008 175.812C135.721 176.562 135.289 177.216 134.711 177.773ZM131.375 175.836C132.25 176.081 132.971 176.445 133.539 176.93C134.43 176.117 134.875 174.896 134.875 173.266C134.875 172.339 134.716 171.529 134.398 170.836C134.086 170.143 133.625 169.607 133.016 169.227C132.411 168.841 131.732 168.648 130.977 168.648C129.846 168.648 128.909 169.036 128.164 169.812C127.419 170.583 127.047 171.737 127.047 173.273C127.047 174.763 127.414 175.906 128.148 176.703C128.888 177.5 129.831 177.898 130.977 177.898C131.518 177.898 132.029 177.797 132.508 177.594C132.034 177.286 131.534 177.068 131.008 176.938L131.375 175.836ZM143.742 179V177.781C143.096 178.719 142.219 179.188 141.109 179.188C140.62 179.188 140.161 179.094 139.734 178.906C139.312 178.719 138.997 178.484 138.789 178.203C138.586 177.917 138.443 177.568 138.359 177.156C138.302 176.88 138.273 176.443 138.273 175.844V170.703H139.68V175.305C139.68 176.039 139.708 176.534 139.766 176.789C139.854 177.159 140.042 177.451 140.328 177.664C140.615 177.872 140.969 177.977 141.391 177.977C141.812 177.977 142.208 177.87 142.578 177.656C142.948 177.438 143.208 177.143 143.359 176.773C143.516 176.398 143.594 175.857 143.594 175.148V170.703H145V179H143.742ZM152.625 177.977C152.104 178.419 151.602 178.732 151.117 178.914C150.638 179.096 150.122 179.188 149.57 179.188C148.659 179.188 147.958 178.966 147.469 178.523C146.979 178.076 146.734 177.505 146.734 176.812C146.734 176.406 146.826 176.036 147.008 175.703C147.195 175.365 147.438 175.094 147.734 174.891C148.036 174.688 148.375 174.534 148.75 174.43C149.026 174.357 149.443 174.286 150 174.219C151.135 174.083 151.971 173.922 152.508 173.734C152.513 173.542 152.516 173.419 152.516 173.367C152.516 172.794 152.383 172.391 152.117 172.156C151.758 171.839 151.224 171.68 150.516 171.68C149.854 171.68 149.365 171.797 149.047 172.031C148.734 172.26 148.503 172.669 148.352 173.258L146.977 173.07C147.102 172.482 147.307 172.008 147.594 171.648C147.88 171.284 148.294 171.005 148.836 170.812C149.378 170.615 150.005 170.516 150.719 170.516C151.427 170.516 152.003 170.599 152.445 170.766C152.888 170.932 153.214 171.143 153.422 171.398C153.63 171.648 153.776 171.966 153.859 172.352C153.906 172.591 153.93 173.023 153.93 173.648V175.523C153.93 176.831 153.958 177.659 154.016 178.008C154.078 178.352 154.198 178.682 154.375 179H152.906C152.76 178.708 152.667 178.367 152.625 177.977ZM152.508 174.836C151.997 175.044 151.232 175.221 150.211 175.367C149.633 175.451 149.224 175.544 148.984 175.648C148.745 175.753 148.56 175.906 148.43 176.109C148.299 176.307 148.234 176.529 148.234 176.773C148.234 177.148 148.375 177.461 148.656 177.711C148.943 177.961 149.359 178.086 149.906 178.086C150.448 178.086 150.93 177.969 151.352 177.734C151.773 177.495 152.083 177.169 152.281 176.758C152.432 176.44 152.508 175.971 152.508 175.352V174.836ZM156.086 179V167.547H157.492V179H156.086ZM159.688 169.164V167.547H161.094V169.164H159.688ZM159.688 179V170.703H161.094V179H159.688ZM166.312 177.742L166.516 178.984C166.12 179.068 165.766 179.109 165.453 179.109C164.943 179.109 164.547 179.029 164.266 178.867C163.984 178.706 163.786 178.495 163.672 178.234C163.557 177.969 163.5 177.414 163.5 176.57V171.797H162.469V170.703H163.5V168.648L164.898 167.805V170.703H166.312V171.797H164.898V176.648C164.898 177.049 164.922 177.307 164.969 177.422C165.021 177.536 165.102 177.628 165.211 177.695C165.326 177.763 165.487 177.797 165.695 177.797C165.852 177.797 166.057 177.779 166.312 177.742ZM167.633 182.195L167.477 180.875C167.784 180.958 168.052 181 168.281 181C168.594 181 168.844 180.948 169.031 180.844C169.219 180.74 169.372 180.594 169.492 180.406C169.581 180.266 169.724 179.917 169.922 179.359C169.948 179.281 169.99 179.167 170.047 179.016L166.898 170.703H168.414L170.141 175.508C170.365 176.117 170.565 176.758 170.742 177.43C170.904 176.784 171.096 176.154 171.32 175.539L173.094 170.703H174.5L171.344 179.141C171.005 180.052 170.742 180.68 170.555 181.023C170.305 181.487 170.018 181.826 169.695 182.039C169.372 182.258 168.987 182.367 168.539 182.367C168.268 182.367 167.966 182.31 167.633 182.195ZM57.3828 200L58.8594 199.875C58.9688 200.594 59.2214 201.135 59.6172 201.5C60.0182 201.859 60.5 202.039 61.0625 202.039C61.7396 202.039 62.3125 201.784 62.7812 201.273C63.25 200.763 63.4844 200.086 63.4844 199.242C63.4844 198.44 63.2578 197.807 62.8047 197.344C62.3568 196.88 61.7682 196.648 61.0391 196.648C60.5859 196.648 60.1771 196.753 59.8125 196.961C59.4479 197.164 59.1615 197.43 58.9531 197.758L57.6328 197.586L58.7422 191.703H64.4375V193.047H59.8672L59.25 196.125C59.9375 195.646 60.6589 195.406 61.4141 195.406C62.4141 195.406 63.2578 195.753 63.9453 196.445C64.6328 197.138 64.9766 198.029 64.9766 199.117C64.9766 200.154 64.6745 201.049 64.0703 201.805C63.3359 202.732 62.3333 203.195 61.0625 203.195C60.0208 203.195 59.1693 202.904 58.5078 202.32C57.8516 201.737 57.4766 200.964 57.3828 200ZM66.2891 197.352C66.2891 195.997 66.4271 194.909 66.7031 194.086C66.9844 193.258 67.3984 192.62 67.9453 192.172C68.4974 191.724 69.1901 191.5 70.0234 191.5C70.638 191.5 71.1771 191.625 71.6406 191.875C72.1042 192.12 72.487 192.477 72.7891 192.945C73.0911 193.409 73.3281 193.977 73.5 194.648C73.6719 195.315 73.7578 196.216 73.7578 197.352C73.7578 198.695 73.6198 199.781 73.3438 200.609C73.0677 201.432 72.6536 202.07 72.1016 202.523C71.5547 202.971 70.862 203.195 70.0234 203.195C68.9193 203.195 68.0521 202.799 67.4219 202.008C66.6667 201.055 66.2891 199.503 66.2891 197.352ZM67.7344 197.352C67.7344 199.232 67.9531 200.484 68.3906 201.109C68.8333 201.729 69.3776 202.039 70.0234 202.039C70.6693 202.039 71.2109 201.727 71.6484 201.102C72.0911 200.477 72.3125 199.227 72.3125 197.352C72.3125 195.466 72.0911 194.214 71.6484 193.594C71.2109 192.974 70.6641 192.664 70.0078 192.664C69.362 192.664 68.8464 192.938 68.4609 193.484C67.9766 194.182 67.7344 195.471 67.7344 197.352ZM75.7188 203V191.547H78L80.7109 199.656C80.9609 200.411 81.1432 200.977 81.2578 201.352C81.388 200.935 81.5911 200.323 81.8672 199.516L84.6094 191.547H86.6484V203H85.1875V193.414L81.8594 203H80.4922L77.1797 193.25V203H75.7188ZM89.0312 203V191.547H93.3281C94.2031 191.547 94.9036 191.664 95.4297 191.898C95.9609 192.128 96.375 192.484 96.6719 192.969C96.974 193.448 97.125 193.951 97.125 194.477C97.125 194.966 96.9922 195.427 96.7266 195.859C96.4609 196.292 96.0599 196.641 95.5234 196.906C96.2161 197.109 96.7474 197.456 97.1172 197.945C97.4922 198.435 97.6797 199.013 97.6797 199.68C97.6797 200.216 97.5651 200.716 97.3359 201.18C97.112 201.638 96.8333 201.992 96.5 202.242C96.1667 202.492 95.7474 202.682 95.2422 202.812C94.7422 202.938 94.1276 203 93.3984 203H89.0312ZM90.5469 196.359H93.0234C93.6953 196.359 94.1771 196.315 94.4688 196.227C94.8542 196.112 95.1432 195.922 95.3359 195.656C95.5339 195.391 95.6328 195.057 95.6328 194.656C95.6328 194.276 95.5417 193.943 95.3594 193.656C95.1771 193.365 94.9167 193.167 94.5781 193.062C94.2396 192.953 93.6589 192.898 92.8359 192.898H90.5469V196.359ZM90.5469 201.648H93.3984C93.888 201.648 94.2318 201.63 94.4297 201.594C94.7786 201.531 95.0703 201.427 95.3047 201.281C95.5391 201.135 95.7318 200.924 95.8828 200.648C96.0339 200.367 96.1094 200.044 96.1094 199.68C96.1094 199.253 96 198.883 95.7812 198.57C95.5625 198.253 95.2578 198.031 94.8672 197.906C94.4818 197.776 93.9245 197.711 93.1953 197.711H90.5469V201.648ZM109.453 199.961L110.836 200.141C110.685 201.094 110.297 201.841 109.672 202.383C109.052 202.919 108.289 203.188 107.383 203.188C106.247 203.188 105.333 202.818 104.641 202.078C103.953 201.333 103.609 200.268 103.609 198.883C103.609 197.987 103.758 197.203 104.055 196.531C104.352 195.859 104.802 195.357 105.406 195.023C106.016 194.685 106.677 194.516 107.391 194.516C108.292 194.516 109.029 194.745 109.602 195.203C110.174 195.656 110.542 196.302 110.703 197.141L109.336 197.352C109.206 196.794 108.974 196.375 108.641 196.094C108.312 195.812 107.914 195.672 107.445 195.672C106.737 195.672 106.161 195.927 105.719 196.438C105.276 196.943 105.055 197.745 105.055 198.844C105.055 199.958 105.268 200.768 105.695 201.273C106.122 201.779 106.68 202.031 107.367 202.031C107.919 202.031 108.38 201.862 108.75 201.523C109.12 201.185 109.354 200.664 109.453 199.961ZM112.008 203V191.547H113.414V203H112.008ZM115.078 198.852C115.078 197.315 115.505 196.177 116.359 195.438C117.073 194.823 117.943 194.516 118.969 194.516C120.109 194.516 121.042 194.891 121.766 195.641C122.49 196.385 122.852 197.417 122.852 198.734C122.852 199.802 122.69 200.643 122.367 201.258C122.049 201.867 121.583 202.341 120.969 202.68C120.359 203.018 119.693 203.188 118.969 203.188C117.807 203.188 116.867 202.815 116.148 202.07C115.435 201.326 115.078 200.253 115.078 198.852ZM116.523 198.852C116.523 199.914 116.755 200.711 117.219 201.242C117.682 201.768 118.266 202.031 118.969 202.031C119.667 202.031 120.247 201.766 120.711 201.234C121.174 200.703 121.406 199.893 121.406 198.805C121.406 197.779 121.172 197.003 120.703 196.477C120.24 195.945 119.661 195.68 118.969 195.68C118.266 195.68 117.682 195.943 117.219 196.469C116.755 196.995 116.523 197.789 116.523 198.852ZM129.945 203V201.781C129.299 202.719 128.422 203.188 127.312 203.188C126.823 203.188 126.365 203.094 125.938 202.906C125.516 202.719 125.201 202.484 124.992 202.203C124.789 201.917 124.646 201.568 124.562 201.156C124.505 200.88 124.477 200.443 124.477 199.844V194.703H125.883V199.305C125.883 200.039 125.911 200.534 125.969 200.789C126.057 201.159 126.245 201.451 126.531 201.664C126.818 201.872 127.172 201.977 127.594 201.977C128.016 201.977 128.411 201.87 128.781 201.656C129.151 201.438 129.411 201.143 129.562 200.773C129.719 200.398 129.797 199.857 129.797 199.148V194.703H131.203V203H129.945ZM138.797 203V201.953C138.271 202.776 137.497 203.188 136.477 203.188C135.815 203.188 135.206 203.005 134.648 202.641C134.096 202.276 133.667 201.768 133.359 201.117C133.057 200.461 132.906 199.708 132.906 198.859C132.906 198.031 133.044 197.281 133.32 196.609C133.596 195.932 134.01 195.414 134.562 195.055C135.115 194.695 135.732 194.516 136.414 194.516C136.914 194.516 137.359 194.622 137.75 194.836C138.141 195.044 138.458 195.318 138.703 195.656V191.547H140.102V203H138.797ZM134.352 198.859C134.352 199.922 134.576 200.716 135.023 201.242C135.471 201.768 136 202.031 136.609 202.031C137.224 202.031 137.745 201.781 138.172 201.281C138.604 200.776 138.82 200.008 138.82 198.977C138.82 197.841 138.602 197.008 138.164 196.477C137.727 195.945 137.188 195.68 136.547 195.68C135.922 195.68 135.398 195.935 134.977 196.445C134.56 196.956 134.352 197.76 134.352 198.859ZM146.211 200.523L147.602 200.305C147.68 200.862 147.896 201.289 148.25 201.586C148.609 201.883 149.109 202.031 149.75 202.031C150.396 202.031 150.875 201.901 151.188 201.641C151.5 201.375 151.656 201.065 151.656 200.711C151.656 200.393 151.518 200.143 151.242 199.961C151.049 199.836 150.57 199.677 149.805 199.484C148.773 199.224 148.057 199 147.656 198.812C147.26 198.62 146.958 198.357 146.75 198.023C146.547 197.685 146.445 197.312 146.445 196.906C146.445 196.536 146.529 196.195 146.695 195.883C146.867 195.565 147.099 195.302 147.391 195.094C147.609 194.932 147.906 194.797 148.281 194.688C148.661 194.573 149.068 194.516 149.5 194.516C150.151 194.516 150.721 194.609 151.211 194.797C151.706 194.984 152.07 195.24 152.305 195.562C152.539 195.88 152.701 196.307 152.789 196.844L151.414 197.031C151.352 196.604 151.169 196.271 150.867 196.031C150.57 195.792 150.148 195.672 149.602 195.672C148.956 195.672 148.495 195.779 148.219 195.992C147.943 196.206 147.805 196.456 147.805 196.742C147.805 196.924 147.862 197.089 147.977 197.234C148.091 197.385 148.271 197.51 148.516 197.609C148.656 197.661 149.07 197.781 149.758 197.969C150.753 198.234 151.445 198.453 151.836 198.625C152.232 198.792 152.542 199.036 152.766 199.359C152.99 199.682 153.102 200.083 153.102 200.562C153.102 201.031 152.964 201.474 152.688 201.891C152.417 202.302 152.023 202.622 151.508 202.852C150.992 203.076 150.409 203.188 149.758 203.188C148.68 203.188 147.857 202.964 147.289 202.516C146.727 202.068 146.367 201.404 146.211 200.523ZM157.844 201.742L158.047 202.984C157.651 203.068 157.297 203.109 156.984 203.109C156.474 203.109 156.078 203.029 155.797 202.867C155.516 202.706 155.318 202.495 155.203 202.234C155.089 201.969 155.031 201.414 155.031 200.57V195.797H154V194.703H155.031V192.648L156.43 191.805V194.703H157.844V195.797H156.43V200.648C156.43 201.049 156.453 201.307 156.5 201.422C156.552 201.536 156.633 201.628 156.742 201.695C156.857 201.763 157.018 201.797 157.227 201.797C157.383 201.797 157.589 201.779 157.844 201.742ZM158.703 198.852C158.703 197.315 159.13 196.177 159.984 195.438C160.698 194.823 161.568 194.516 162.594 194.516C163.734 194.516 164.667 194.891 165.391 195.641C166.115 196.385 166.477 197.417 166.477 198.734C166.477 199.802 166.315 200.643 165.992 201.258C165.674 201.867 165.208 202.341 164.594 202.68C163.984 203.018 163.318 203.188 162.594 203.188C161.432 203.188 160.492 202.815 159.773 202.07C159.06 201.326 158.703 200.253 158.703 198.852ZM160.148 198.852C160.148 199.914 160.38 200.711 160.844 201.242C161.307 201.768 161.891 202.031 162.594 202.031C163.292 202.031 163.872 201.766 164.336 201.234C164.799 200.703 165.031 199.893 165.031 198.805C165.031 197.779 164.797 197.003 164.328 196.477C163.865 195.945 163.286 195.68 162.594 195.68C161.891 195.68 161.307 195.943 160.844 196.469C160.38 196.995 160.148 197.789 160.148 198.852ZM168.117 203V194.703H169.383V195.961C169.706 195.372 170.003 194.984 170.273 194.797C170.549 194.609 170.852 194.516 171.18 194.516C171.654 194.516 172.135 194.667 172.625 194.969L172.141 196.273C171.797 196.07 171.453 195.969 171.109 195.969C170.802 195.969 170.526 196.062 170.281 196.25C170.036 196.432 169.862 196.688 169.758 197.016C169.602 197.516 169.523 198.062 169.523 198.656V203H168.117ZM178.875 201.977C178.354 202.419 177.852 202.732 177.367 202.914C176.888 203.096 176.372 203.188 175.82 203.188C174.909 203.188 174.208 202.966 173.719 202.523C173.229 202.076 172.984 201.505 172.984 200.812C172.984 200.406 173.076 200.036 173.258 199.703C173.445 199.365 173.688 199.094 173.984 198.891C174.286 198.688 174.625 198.534 175 198.43C175.276 198.357 175.693 198.286 176.25 198.219C177.385 198.083 178.221 197.922 178.758 197.734C178.763 197.542 178.766 197.419 178.766 197.367C178.766 196.794 178.633 196.391 178.367 196.156C178.008 195.839 177.474 195.68 176.766 195.68C176.104 195.68 175.615 195.797 175.297 196.031C174.984 196.26 174.753 196.669 174.602 197.258L173.227 197.07C173.352 196.482 173.557 196.008 173.844 195.648C174.13 195.284 174.544 195.005 175.086 194.812C175.628 194.615 176.255 194.516 176.969 194.516C177.677 194.516 178.253 194.599 178.695 194.766C179.138 194.932 179.464 195.143 179.672 195.398C179.88 195.648 180.026 195.966 180.109 196.352C180.156 196.591 180.18 197.023 180.18 197.648V199.523C180.18 200.831 180.208 201.659 180.266 202.008C180.328 202.352 180.448 202.682 180.625 203H179.156C179.01 202.708 178.917 202.367 178.875 201.977ZM178.758 198.836C178.247 199.044 177.482 199.221 176.461 199.367C175.883 199.451 175.474 199.544 175.234 199.648C174.995 199.753 174.81 199.906 174.68 200.109C174.549 200.307 174.484 200.529 174.484 200.773C174.484 201.148 174.625 201.461 174.906 201.711C175.193 201.961 175.609 202.086 176.156 202.086C176.698 202.086 177.18 201.969 177.602 201.734C178.023 201.495 178.333 201.169 178.531 200.758C178.682 200.44 178.758 199.971 178.758 199.352V198.836ZM182.109 203.688L183.477 203.891C183.534 204.312 183.693 204.62 183.953 204.812C184.302 205.073 184.779 205.203 185.383 205.203C186.034 205.203 186.536 205.073 186.891 204.812C187.245 204.552 187.484 204.188 187.609 203.719C187.682 203.432 187.716 202.831 187.711 201.914C187.096 202.638 186.331 203 185.414 203C184.273 203 183.391 202.589 182.766 201.766C182.141 200.943 181.828 199.956 181.828 198.805C181.828 198.013 181.971 197.284 182.258 196.617C182.544 195.945 182.958 195.427 183.5 195.062C184.047 194.698 184.688 194.516 185.422 194.516C186.401 194.516 187.208 194.911 187.844 195.703V194.703H189.141V201.875C189.141 203.167 189.008 204.081 188.742 204.617C188.482 205.159 188.065 205.586 187.492 205.898C186.924 206.211 186.224 206.367 185.391 206.367C184.401 206.367 183.602 206.143 182.992 205.695C182.383 205.253 182.089 204.583 182.109 203.688ZM183.273 198.703C183.273 199.792 183.49 200.586 183.922 201.086C184.354 201.586 184.896 201.836 185.547 201.836C186.193 201.836 186.734 201.589 187.172 201.094C187.609 200.594 187.828 199.812 187.828 198.75C187.828 197.734 187.602 196.969 187.148 196.453C186.701 195.938 186.159 195.68 185.523 195.68C184.898 195.68 184.367 195.935 183.93 196.445C183.492 196.951 183.273 197.703 183.273 198.703ZM196.953 200.328L198.406 200.508C198.177 201.357 197.753 202.016 197.133 202.484C196.513 202.953 195.721 203.188 194.758 203.188C193.544 203.188 192.581 202.815 191.867 202.07C191.159 201.32 190.805 200.271 190.805 198.922C190.805 197.526 191.164 196.443 191.883 195.672C192.602 194.901 193.534 194.516 194.68 194.516C195.789 194.516 196.695 194.893 197.398 195.648C198.102 196.404 198.453 197.466 198.453 198.836C198.453 198.919 198.451 199.044 198.445 199.211H192.258C192.31 200.122 192.568 200.82 193.031 201.305C193.495 201.789 194.073 202.031 194.766 202.031C195.281 202.031 195.721 201.896 196.086 201.625C196.451 201.354 196.74 200.922 196.953 200.328ZM192.336 198.055H196.969C196.906 197.357 196.729 196.833 196.438 196.484C195.99 195.943 195.409 195.672 194.695 195.672C194.049 195.672 193.505 195.888 193.062 196.32C192.625 196.753 192.383 197.331 192.336 198.055Z" fill="white"/>
<defs>
<linearGradient id="paint0_linear_809_2050" x1="130" y1="0" x2="130" y2="360" gradientUnits="userSpaceOnUse">
<stop stop-color="#7878EC"/>
<stop offset="0.5" stop-color="#4949DF"/>
<stop offset="1" stop-color="#232394"/>
</linearGradient>
</defs>
</svg>
