<svg width="26" height="36" viewBox="0 0 26 36" fill="none" xmlns="http://www.w3.org/2000/svg">
<path d="M21 19V10.5C21 10.3448 20.9639 10.1916 20.8944 10.0528C20.825 9.91393 20.7242 9.79315 20.6 9.7L13.6 4.45C13.4269 4.32018 13.2164 4.25 13 4.25C12.7836 4.25 12.5731 4.32018 12.4 4.45L5.4 9.7C5.2758 9.79315 5.175 9.91393 5.10557 10.0528C5.03614 10.1916 5 10.3448 5 10.5V19C5 19.2652 5.10536 19.5196 5.29289 19.7071C5.48043 19.8946 5.73478 20 6 20H10C10.2652 20 10.5196 19.8946 10.7071 19.7071C10.8946 19.5196 11 19.2652 11 19V16C11 15.7348 11.1054 15.4804 11.2929 15.2929C11.4804 15.1054 11.7348 15 12 15H14C14.2652 15 14.5196 15.1054 14.7071 15.2929C14.8946 15.4804 15 15.7348 15 16V19C15 19.2652 15.1054 19.5196 15.2929 19.7071C15.4804 19.8946 15.7348 20 16 20H20C20.2652 20 20.5196 19.8946 20.7071 19.7071C20.8946 19.5196 21 19.2652 21 19Z" stroke="black" stroke-width="2" stroke-linecap="round" stroke-linejoin="round"/>
<path d="M0.755859 34V25.4102H1.6875V28.9375H5.34961V25.4102H6.28125V34H5.34961V29.9512H1.6875V34H0.755859ZM7.17211 30.8887C7.17211 29.8145 7.39672 29.0039 7.84594 28.457C8.29906 27.9102 8.87133 27.6367 9.56273 27.6367C10.2424 27.6367 10.8108 27.9102 11.2678 28.457C11.7248 29.0039 11.9534 29.793 11.9534 30.8242C11.9534 31.9414 11.7288 32.7734 11.2795 33.3203C10.8303 33.8672 10.258 34.1406 9.56273 34.1406C8.87914 34.1406 8.30883 33.8672 7.8518 33.3203C7.39867 32.7695 7.17211 31.959 7.17211 30.8887ZM8.05688 30.8887C8.05688 31.6934 8.20336 32.293 8.49633 32.6875C8.7893 33.0781 9.15258 33.2734 9.58617 33.2734C9.99242 33.2734 10.3401 33.0762 10.6291 32.6816C10.9221 32.2832 11.0686 31.6855 11.0686 30.8887C11.0686 30.0879 10.9221 29.4922 10.6291 29.1016C10.3362 28.707 9.97289 28.5098 9.5393 28.5098C9.12914 28.5098 8.77953 28.707 8.49047 29.1016C8.20141 29.4961 8.05688 30.0918 8.05688 30.8887ZM12.7388 34V27.7773H13.5122V28.6504C13.6841 28.3262 13.9048 28.0762 14.1743 27.9004C14.4438 27.7246 14.7388 27.6367 15.0591 27.6367C15.4184 27.6367 15.7212 27.7305 15.9673 27.918C16.2173 28.1016 16.395 28.3711 16.5005 28.7266C16.7036 28.3633 16.936 28.0918 17.1977 27.9121C17.4634 27.7285 17.7563 27.6367 18.0766 27.6367C18.5649 27.6367 18.9497 27.8027 19.2309 28.1348C19.5122 28.4668 19.6528 28.998 19.6528 29.7285V34H18.7915V30.0801C18.7915 29.6348 18.7583 29.3203 18.6919 29.1367C18.6294 28.9492 18.5259 28.8047 18.3813 28.7031C18.2368 28.6016 18.0747 28.5508 17.895 28.5508C17.5239 28.5508 17.2212 28.6992 16.9868 28.9961C16.7524 29.2891 16.6352 29.752 16.6352 30.3848V34H15.768V29.957C15.768 29.4414 15.688 29.0781 15.5278 28.8672C15.3716 28.6562 15.1548 28.5508 14.8774 28.5508C14.4829 28.5508 14.1704 28.7109 13.9399 29.0312C13.7134 29.3477 13.6001 29.9277 13.6001 30.7715V34H12.7388ZM24.1823 31.9961L25.073 32.1309C24.9245 32.7949 24.655 33.2969 24.2644 33.6367C23.8777 33.9727 23.3972 34.1406 22.823 34.1406C22.1003 34.1406 21.5144 33.8672 21.0652 33.3203C20.6198 32.7695 20.3972 31.9766 20.3972 30.9414C20.3972 29.8672 20.6218 29.0488 21.071 28.4863C21.5241 27.9199 22.0964 27.6367 22.7878 27.6367C23.448 27.6367 23.9988 27.9141 24.4402 28.4688C24.8816 29.0234 25.1023 29.8262 25.1023 30.877L25.0964 31.1582H21.2878C21.323 31.8574 21.4851 32.3848 21.7741 32.7402C22.0632 33.0957 22.4148 33.2734 22.8288 33.2734C23.4773 33.2734 23.9284 32.8477 24.1823 31.9961ZM21.3405 30.291H24.1882C24.1491 29.752 24.0339 29.3496 23.8425 29.084C23.5652 28.6973 23.2116 28.5039 22.782 28.5039C22.3952 28.5039 22.0652 28.666 21.7917 28.9902C21.5183 29.3105 21.3679 29.7441 21.3405 30.291Z" fill="black"/>
</svg>
