<svg width="600" height="600" viewBox="0 0 600 600" fill="none" xmlns="http://www.w3.org/2000/svg">
<rect width="600" height="600" rx="300" fill="#BCE6FA"/>
<g clip-path="url(#clip0_581_2089)">
<path d="M251.496 477.667C251.496 477.667 230.193 449.33 238.374 434.944C246.509 436.024 255.77 451.167 255.77 451.167C255.77 451.167 252.705 429.576 261.289 420.992C269.873 429.576 270.169 452.674 270.169 452.674C275.813 428.19 292.793 428.19 292.793 428.19C292.793 428.19 291.011 448.035 281.252 457.794C291.117 447.929 310.348 447.743 310.348 447.743C310.348 447.743 296.061 468.795 292.667 468.795C307.898 465.45 317.291 469.823 317.291 469.823L298.004 477.407H251.498" fill="#4141EE"/>
<path d="M195.37 477.338C195.37 477.338 201.471 449.443 208.334 456.045C215.197 462.648 220.281 420.959 227.906 429.297C235.532 437.635 224.856 455.24 240.107 451.202C255.358 447.164 253.833 458.281 251.037 465.824C248.241 473.367 265.017 477.338 265.017 477.338H195.37Z" fill="#89CFF0"/>
<path d="M225.51 434.944C224.636 438.433 223.842 441.941 223.076 445.454C222.324 448.97 221.644 452.501 221.035 456.044C220.404 459.583 219.867 463.138 219.418 466.705C219.008 470.276 218.688 473.857 218.516 477.451C218.577 473.854 218.832 470.26 219.231 466.683C219.649 463.108 220.154 459.544 220.757 455.995C222.06 448.918 223.554 441.869 225.51 434.944Z" fill="#002E5C"/>
<path d="M206.348 461.128C205.778 462.438 205.253 463.764 204.742 465.094C204.24 466.427 203.744 467.764 203.322 469.124C202.884 470.478 202.492 471.847 202.172 473.234C201.863 474.622 201.609 476.025 201.5 477.45C201.505 474.582 202.204 471.761 203.052 469.037C203.952 466.322 205.021 463.659 206.348 461.128Z" fill="#002E5C"/>
<path d="M246.509 456.197C245.769 456.866 245.129 457.635 244.534 458.431C243.925 459.217 243.383 460.052 242.86 460.896C241.831 462.596 240.956 464.387 240.201 466.224C239.409 468.049 238.819 469.952 238.246 471.857C237.967 472.812 237.743 473.783 237.487 474.745L236.847 477.666L237.352 474.715C237.581 473.744 237.781 472.764 238.036 471.798C238.568 469.873 239.163 467.959 239.939 466.115C240.72 464.275 241.598 462.469 242.675 460.78C243.761 459.107 244.979 457.485 246.509 456.197Z" fill="#002E5C"/>
<path d="M261.289 420.991C261.119 425.731 261.09 430.474 261.119 435.215C261.159 439.956 261.321 444.696 261.647 449.425C261.932 454.155 262.356 458.882 263.106 463.562C263.274 464.735 263.462 465.905 263.715 467.062C263.968 468.219 264.136 469.396 264.458 470.536C264.76 471.681 265.03 472.836 265.359 473.974L266.512 477.338C264.691 472.945 263.696 468.266 262.919 463.592C262.136 458.909 261.679 454.178 261.364 449.444C261.069 444.707 260.939 439.962 260.931 435.217C260.912 430.473 261.009 425.727 261.289 420.991Z" fill="#002E5C"/>
<path d="M292.792 428.19C291.23 429.873 289.762 431.642 288.377 433.471C286.969 435.283 285.647 437.16 284.372 439.066C281.846 442.896 279.621 446.923 277.723 451.095C275.753 455.238 274.28 459.604 273.165 464.047L272.412 467.403C272.226 468.534 272.087 469.673 271.92 470.807L271.67 472.51L271.571 474.228L271.375 477.667C271.475 473.083 271.816 468.464 272.982 464.003C274.07 459.54 275.517 455.147 277.466 450.977C279.399 446.804 281.658 442.782 284.216 438.962C286.776 435.146 289.605 431.499 292.792 428.19Z" fill="#002E5C"/>
<path d="M310.347 447.743C308.726 448.48 307.154 449.321 305.609 450.201C304.058 451.073 302.541 452.004 301.059 452.987C298.1 454.96 295.286 457.154 292.719 459.611C290.134 462.045 287.808 464.766 285.932 467.785C285.014 469.305 284.214 470.895 283.55 472.544C282.901 474.199 282.416 475.915 282.083 477.666C282.37 475.908 282.811 474.175 283.42 472.494C284.069 470.83 284.861 469.225 285.771 467.687C287.631 464.634 289.945 461.875 292.524 459.406C295.126 456.958 297.971 454.782 300.955 452.83C303.942 450.883 307.072 449.146 310.347 447.743Z" fill="#002E5C"/>
<path d="M482.992 180.832C516.491 147.333 516.491 93.0203 482.992 59.5214C449.493 26.0226 395.181 26.0226 361.682 59.5214C328.183 93.0203 328.183 147.333 361.682 180.832C395.181 214.33 449.493 214.33 482.992 180.832Z" fill="#D8F2FF"/>
<path d="M417.564 80.5V477.647" stroke="#B7B8D9" stroke-width="2.8347" stroke-miterlimit="10" stroke-linecap="round"/>
<path d="M87.383 104.139H144.6C144.6 104.139 143.245 97.628 133.849 97.628C137.476 88.326 117.354 82.279 112.299 91.581C105.383 75.767 74.37 85.709 87.383 104.139Z" fill="#D8F2FF"/>
<path d="M123.612 147.061H178.248C178.248 147.061 181.817 131.108 158.79 137.696C156.076 120.677 135.41 119.03 131.469 130.01C118.792 117.334 110.912 143.249 123.612 147.061Z" fill="#D8F2FF"/>
<path d="M364.851 111.833L417.177 148.815" stroke="#B7B8D9" stroke-width="1.4173" stroke-miterlimit="10"/>
<path d="M417.177 126.5L476.308 88.5" stroke="#B7B8D9" stroke-width="1.4173" stroke-miterlimit="10"/>
<path d="M417.177 93.92L383.491 75.167" stroke="#B7B8D9" stroke-width="1.4173" stroke-miterlimit="10"/>
<path d="M454.697 102.388L476.308 120.175" stroke="#B7B8D9" stroke-width="1.4173" stroke-miterlimit="10"/>
<path d="M380.426 123.06L362.103 130.324" stroke="#B7B8D9" stroke-width="1.4173" stroke-miterlimit="10"/>
<path d="M395.039 81.596L398.424 66.5" stroke="#B7B8D9" stroke-width="1.4173" stroke-miterlimit="10"/>
<path d="M459.338 251.833L472.141 267.697C472.141 267.697 467.788 272.865 461.765 278.872C457.57 274.16 453.086 269.763 448.592 265.408L459.338 251.833Z" fill="#CACBE8"/>
<path d="M423.107 248.456L436.058 280.695L448.592 265.409C453.086 269.764 457.57 274.161 461.765 278.873C452.81 287.804 440.16 298.588 432.621 296.999C420.012 294.341 412.775 249.305 412.775 249.305L423.107 248.456Z" fill="#E2B9A0"/>
<path d="M412.768 253.205C410.567 251.241 405.984 245.664 406.531 244.991C407.078 244.317 410.423 246.687 410.423 246.687C410.423 246.687 407.188 243.265 407.936 242.309C408.684 241.353 412.471 244.395 412.471 244.395C412.471 244.395 409.138 240.613 410.101 239.951C411.065 239.289 414.776 242.837 414.776 242.837C414.776 242.837 411.957 239.426 412.693 238.887C413.429 238.347 420.025 242.064 424.513 245.914" fill="#E2B9A0"/>
<path d="M419.119 258.078C419.119 258.078 408.868 251.879 410.504 248.37C412.14 244.861 415.55 236.175 424.392 247.172C429.09 253.015 419.119 258.078 419.119 258.078Z" fill="#E2B9A0"/>
<path d="M417.1 245.049C416.428 244.601 415.841 244.054 415.267 243.493C414.723 242.909 414.165 242.309 413.813 241.576C414.075 241.881 414.358 242.16 414.633 242.446L415.469 243.294C416.015 243.874 416.586 244.428 417.1 245.049Z" fill="#002E5C"/>
<path d="M414.624 246.548C413.887 246.056 413.254 245.436 412.649 244.797C412.066 244.137 411.512 243.443 411.098 242.661L414.624 246.548Z" fill="#002E5C"/>
<path d="M411.984 248.216C411.311 247.731 410.723 247.152 410.147 246.562C409.605 245.947 409.032 245.328 408.691 244.562C408.948 244.886 409.233 245.178 409.511 245.477L410.353 246.368C410.902 246.976 411.474 247.563 411.984 248.216Z" fill="#002E5C"/>
<path d="M425.651 250.48C425.651 250.48 426.849 241.414 425.651 240.216C424.453 239.018 422.109 246.389 422.109 246.389" fill="#E2B9A0"/>
<path d="M422.847 244.562C422.181 244.709 421.546 244.96 420.956 245.273C420.369 245.594 419.828 245.998 419.401 246.504C418.96 246.994 418.61 247.574 418.402 248.209C418.161 248.834 418.069 249.507 417.989 250.186C417.993 249.847 417.969 249.501 417.996 249.158C418.055 248.82 418.075 248.469 418.194 248.141C418.367 247.465 418.739 246.849 419.188 246.317C420.124 245.268 421.484 244.652 422.847 244.562Z" fill="#002E5C"/>
<path d="M451.213 262.098C452.378 262.923 453.474 263.83 454.575 264.732C455.655 265.659 456.74 266.578 457.755 267.583C456.589 266.759 455.494 265.851 454.393 264.949C453.313 264.022 452.228 263.101 451.213 262.098Z" fill="#002E5C"/>
<path d="M127.856 224.726C128.329 229.223 126.081 233.144 122.836 233.486C119.591 233.827 116.577 230.458 116.104 225.962C115.631 221.465 117.879 217.544 121.124 217.203C124.369 216.861 127.383 220.229 127.856 224.726Z" fill="#89CFF0"/>
<path d="M71.289 228.672C69.088 226.708 64.505 221.131 65.052 220.458C65.599 219.785 68.944 222.154 68.944 222.154C68.944 222.154 65.709 218.732 66.457 217.776C67.205 216.82 70.991 219.862 70.991 219.862C70.991 219.862 67.658 216.08 68.621 215.418C69.585 214.757 73.296 218.304 73.296 218.304C73.296 218.304 70.477 214.893 71.213 214.354C71.949 213.814 78.546 217.531 83.033 221.381" fill="#E2B9A0"/>
<path d="M77.641 233.545C77.641 233.545 67.39 227.346 69.026 223.837C70.662 220.328 74.072 211.642 82.914 222.639C87.612 228.482 77.641 233.545 77.641 233.545Z" fill="#E2B9A0"/>
<path d="M102.506 248.095C111.962 241.463 129.329 237.199 129.964 251.949L104.26 271.191C100.389 265.937 96.0941 261.081 92.3981 255.854C92.3981 255.854 99.8981 249.924 102.506 248.095Z" fill="#002E5C"/>
<path d="M86.3901 260.466L92.3981 255.855C96.0941 261.082 100.389 265.939 104.26 271.192L98.6861 275.187C93.6401 278.803 70.8691 292.199 71.6461 270.22L70.9861 224.187L83.4701 223.982L86.3901 260.466Z" fill="#E2B9A0"/>
<path d="M75.6221 220.516C74.9501 220.068 74.3631 219.521 73.7891 218.96C73.2451 218.376 72.6881 217.776 72.3351 217.043C72.5971 217.348 72.8801 217.627 73.1551 217.913L73.9911 218.761C74.5361 219.341 75.1071 219.895 75.6221 220.516Z" fill="#002E5C"/>
<path d="M73.145 222.015C72.408 221.523 71.775 220.903 71.17 220.264C70.587 219.604 70.033 218.91 69.618 218.128L73.145 222.015Z" fill="#002E5C"/>
<path d="M70.506 223.683C69.832 223.198 69.245 222.619 68.669 222.029C68.127 221.414 67.554 220.795 67.213 220.029C67.47 220.353 67.755 220.645 68.033 220.944L68.875 221.835C69.424 222.443 69.995 223.03 70.506 223.683Z" fill="#002E5C"/>
<path d="M106.577 269.531C104.486 267.038 102.48 264.478 100.468 261.923C98.482 259.348 96.489 256.778 94.582 254.141C96.674 256.634 98.679 259.194 100.691 261.749C102.677 264.324 104.67 266.894 106.577 269.531Z" fill="#4141EE"/>
<path d="M101.397 466.218L100.315 474.876H132.696C132.696 474.876 130.445 471.153 121.527 469.508C121.181 466.478 121.181 466.478 121.181 466.478L101.397 466.218Z" fill="#CACBE8"/>
<path d="M132.697 474.876H100.142V477.647H132.697V474.876Z" fill="#B3B3D4"/>
<path d="M100.793 470.779C101.754 470.844 102.7 471.233 103.451 471.878C103.818 472.21 104.108 472.633 104.288 473.092C104.488 473.55 104.496 474.056 104.471 474.53C104.391 474.056 104.309 473.589 104.088 473.179C103.88 472.77 103.618 472.384 103.261 472.088C102.925 471.772 102.527 471.525 102.111 471.309C101.692 471.1 101.254 470.914 100.793 470.779Z" fill="#002E5C"/>
<path d="M118.497 465.871C118.577 467.718 118.623 469.565 118.628 471.412L118.494 471.281C119.913 471.25 121.324 471.357 122.728 471.542C124.125 471.749 125.521 472.07 126.809 472.654C125.476 472.189 124.088 471.949 122.697 471.783C121.305 471.617 119.898 471.55 118.5 471.543C118.428 471.545 118.368 471.484 118.366 471.412C118.371 469.565 118.417 467.718 118.497 465.871Z" fill="#002E5C"/>
<path d="M127.767 471.139C127.597 471.409 127.445 471.683 127.293 471.955C127.144 472.228 126.994 472.499 126.873 472.785C126.591 473.338 126.408 473.924 126.203 474.53C126.2 474.212 126.221 473.887 126.301 473.575C126.371 473.26 126.489 472.959 126.617 472.664C126.903 472.091 127.262 471.54 127.767 471.139Z" fill="#002E5C"/>
<path d="M153.869 465.983L152.787 474.641H185.168C185.168 474.641 182.917 470.918 173.999 469.273C173.653 466.243 173.653 466.243 173.653 466.243L153.869 465.983Z" fill="#CACBE8"/>
<path d="M185.168 474.641H152.613V477.412H185.168V474.641Z" fill="#B3B3D4"/>
<path d="M153.265 470.545C154.226 470.61 155.172 470.999 155.923 471.644C156.29 471.976 156.58 472.399 156.76 472.857C156.96 473.315 156.968 473.821 156.943 474.295C156.863 473.821 156.781 473.354 156.56 472.944C156.352 472.535 156.09 472.149 155.733 471.854C155.397 471.538 154.999 471.291 154.583 471.075C154.164 470.866 153.725 470.679 153.265 470.545Z" fill="#002E5C"/>
<path d="M170.968 465.637C171.048 467.484 171.094 469.331 171.099 471.178L170.965 471.047C172.384 471.016 173.796 471.123 175.199 471.308C176.597 471.515 177.992 471.835 179.28 472.42C177.947 471.955 176.559 471.715 175.168 471.549C173.776 471.383 172.369 471.316 170.971 471.309C170.899 471.311 170.839 471.25 170.837 471.178C170.842 469.331 170.888 467.484 170.968 465.637Z" fill="#002E5C"/>
<path d="M180.239 470.904C180.069 471.174 179.917 471.448 179.765 471.72C179.616 471.993 179.465 472.264 179.345 472.549C179.063 473.102 178.88 473.689 178.675 474.294C178.672 473.976 178.693 473.651 178.773 473.339C178.843 473.024 178.961 472.723 179.089 472.428C179.375 471.856 179.733 471.306 180.239 470.904Z" fill="#002E5C"/>
<path d="M115.326 312.103L96.509 468.642H126.293L139.684 347.428L150.882 467.527L177.549 467.022L158.385 312.103H115.326Z" fill="#4141EE"/>
<path d="M97.201 456.867C102.05 456.745 106.898 456.776 111.747 456.726C116.596 456.776 121.444 456.745 126.293 456.867C121.444 456.989 116.596 456.958 111.747 457.008C106.898 456.958 102.05 456.989 97.201 456.867Z" fill="#002E5C"/>
<path d="M151.228 456.286C155.615 456.164 160.002 456.195 164.388 456.145C168.775 456.195 173.162 456.164 177.548 456.286C173.161 456.408 168.775 456.377 164.388 456.428C160.002 456.377 155.615 456.408 151.228 456.286Z" fill="#002E5C"/>
<path d="M120.337 318.293L111.766 387.598L102.916 456.867L111.486 387.563L120.337 318.293Z" fill="#002E5C"/>
<path d="M120.337 332.19C122.125 332.389 123.944 332.258 125.677 331.839C127.405 331.408 129.055 330.595 130.323 329.35C131.588 328.118 132.551 326.561 133.056 324.844C133.239 324.433 133.305 323.988 133.398 323.551L133.672 322.235L133.908 319.549C133.874 320.447 133.859 321.351 133.81 322.253L133.574 323.589C133.492 324.034 133.438 324.487 133.265 324.91L132.823 326.199C132.656 326.621 132.401 327.004 132.193 327.409C132.08 327.606 131.983 327.815 131.855 328.003L131.429 328.539C131.138 328.89 130.884 329.277 130.519 329.557C129.197 330.822 127.498 331.658 125.729 332.051C123.954 332.44 122.113 332.492 120.337 332.19Z" fill="#002E5C"/>
<path d="M141.877 320.415C141.987 326.533 141.968 332.652 142.01 338.77L141.877 338.637L145.34 338.636L145.206 338.77C145.249 332.652 145.229 326.533 145.34 320.415C145.451 326.533 145.43 332.652 145.474 338.77C145.475 338.844 145.415 338.903 145.342 338.904H145.34L141.877 338.903C141.804 338.904 141.744 338.845 141.744 338.771V338.769C141.787 332.652 141.767 326.534 141.877 320.415Z" fill="#002E5C"/>
<path d="M152.64 321.281C152.804 322.513 153.089 323.725 153.449 324.906C153.816 326.084 154.268 327.243 154.923 328.283C155.552 329.334 156.363 330.277 157.373 330.975C158.408 331.64 159.614 331.97 160.856 332.071C159.614 332.075 158.349 331.817 157.255 331.158C156.184 330.474 155.343 329.494 154.681 328.428C154.031 327.349 153.568 326.171 153.241 324.965C152.913 323.761 152.701 322.525 152.64 321.281Z" fill="#002E5C"/>
<path d="M139.684 347.428C141.339 346.74 143.03 346.155 144.718 345.562C146.416 345 148.112 344.43 149.843 343.964C148.188 344.653 146.497 345.237 144.809 345.83C143.11 346.392 141.415 346.962 139.684 347.428Z" fill="#002E5C"/>
<path d="M138.844 245.914L135.041 257.316L124.416 247.755L121.084 221.646L135.513 219.805L138.844 245.914Z" fill="#E2B9A0"/>
<path d="M134.781 235.958L137.529 235.608L137.811 237.818L134.781 235.958Z" fill="#002E5C"/>
<path d="M142.819 225.853C143.913 230.49 141.021 234.994 136.401 236.083L131.559 237.225C126.939 238.315 122.34 235.578 121.246 230.941L117.386 214.579C116.292 209.942 119.147 205.282 123.767 204.192L128.609 203.05C133.229 201.96 137.865 204.854 138.959 209.491L142.819 225.853Z" fill="#E2B9A0"/>
<path d="M122.145 226.833C122.611 228.81 121.335 230.803 119.293 231.284C117.252 231.766 115.219 230.553 114.753 228.576C114.287 226.599 115.563 224.606 117.605 224.124C119.646 223.643 121.679 224.856 122.145 226.833Z" fill="#E2B9A0"/>
<path d="M130.107 219.926C130.261 220.58 130.098 221.178 129.743 221.262C129.388 221.346 128.975 220.884 128.82 220.23C128.666 219.576 128.829 218.978 129.184 218.894C129.539 218.81 129.952 219.272 130.107 219.926Z" fill="#002E5C"/>
<path d="M140.512 217.471C140.666 218.125 140.503 218.723 140.148 218.807C139.793 218.891 139.379 218.429 139.225 217.775C139.071 217.121 139.234 216.523 139.589 216.439C139.945 216.355 140.358 216.817 140.512 217.471Z" fill="#002E5C"/>
<path d="M135.952 217.676C136.143 218.48 136.353 219.279 136.593 220.063C136.723 220.452 136.842 220.844 137.007 221.213C137.164 221.567 137.372 221.978 137.653 222.112C137.725 222.147 137.767 222.134 137.859 222.113C137.97 222.079 138.088 222.053 138.21 222.061C138.455 222.062 138.688 222.188 138.848 222.353C139.166 222.696 139.282 223.152 139.27 223.582C139.26 224.015 139.128 224.443 138.881 224.793C138.631 225.143 138.265 225.386 137.878 225.525C138.639 225.175 139.094 224.37 139.055 223.583C139.037 223.196 138.925 222.794 138.666 222.534C138.537 222.409 138.376 222.327 138.204 222.331C138.119 222.326 138.032 222.348 137.947 222.375C137.845 222.41 137.669 222.438 137.55 222.375C137.081 222.122 136.947 221.69 136.769 221.315C136.61 220.924 136.481 220.527 136.382 220.123C136.177 219.317 136.039 218.499 135.952 217.676Z" fill="#002E5C"/>
<path d="M127.269 219.142C127.399 218.699 127.756 218.34 128.189 218.142C128.411 218.059 128.651 218.004 128.886 218.026C129.123 218.033 129.345 218.121 129.544 218.226C129.09 218.217 128.672 218.222 128.299 218.403C128.106 218.471 127.932 218.587 127.761 218.711C127.594 218.838 127.426 218.978 127.269 219.142Z" fill="#002E5C"/>
<path d="M138.055 216.597C138.185 216.154 138.542 215.795 138.975 215.597C139.197 215.514 139.437 215.459 139.672 215.481C139.909 215.488 140.131 215.576 140.33 215.681C139.876 215.672 139.458 215.677 139.085 215.858C138.892 215.926 138.718 216.042 138.547 216.165C138.381 216.294 138.212 216.434 138.055 216.597Z" fill="#002E5C"/>
<path d="M118.665 230.057C118.362 229.942 118.089 229.71 117.94 229.4C117.795 229.09 117.767 228.732 117.83 228.395C117.952 227.715 118.493 227.129 119.168 226.935L119.077 227.128C118.947 226.847 118.783 226.581 118.563 226.366C118.346 226.147 118.069 226.002 117.777 225.906C117.193 225.733 116.483 225.798 115.982 226.225C116.413 225.715 117.169 225.538 117.833 225.695C118.522 225.84 119.054 226.399 119.335 227.014C119.368 227.083 119.338 227.166 119.268 227.199L119.243 227.208C118.657 227.357 118.193 227.852 118.041 228.443C117.874 229.022 118.071 229.741 118.665 230.057Z" fill="#002E5C"/>
<path d="M121.976 243.388C122.566 243.211 123.173 243.041 123.794 242.883C124.881 243.169 126.049 243.857 127.205 244.751C130.943 247.641 136.281 246.265 138.33 242.008C138.383 241.898 138.434 241.8 138.483 241.715C145.424 234.774 151.384 235.502 151.384 235.502L164.893 320.518L112.75 322.328L110.151 260.025C109.836 252.43 114.696 245.577 121.976 243.388Z" fill="#002E5C"/>
<path d="M153.389 255.928C154.036 258.904 154.576 261.899 155.124 264.893C155.64 267.892 156.164 270.89 156.58 273.908C155.932 270.932 155.393 267.937 154.845 264.943C154.33 261.943 153.806 258.945 153.389 255.928Z" fill="#002E5C"/>
<path d="M131.477 225.735C131.637 226.415 130.922 227.166 129.879 227.412C128.836 227.658 127.861 227.306 127.7 226.626C127.54 225.946 128.255 225.195 129.298 224.949C130.341 224.703 131.317 225.055 131.477 225.735Z" fill="#E29EA0"/>
<mask id="mask0_581_2089" style="mask-type:luminance" maskUnits="userSpaceOnUse" x="117" y="202" width="27" height="36">
<path d="M142.819 225.853C143.913 230.49 141.021 234.994 136.401 236.083L131.559 237.225C126.939 238.315 122.34 235.578 121.246 230.941L117.386 214.579C116.292 209.942 119.147 205.282 123.767 204.192L128.609 203.05C133.229 201.96 137.865 204.854 138.959 209.491L142.819 225.853Z" fill="white"/>
</mask>
<g mask="url(#mask0_581_2089)">
<path d="M143.771 222.835C143.931 223.515 143.216 224.266 142.173 224.512C141.13 224.758 140.155 224.406 139.994 223.726C139.834 223.046 140.549 222.295 141.592 222.049C142.635 221.803 143.611 222.155 143.771 222.835Z" fill="#E29EA0"/>
</g>
<path d="M110.2 258.01C110.393 260.357 110.477 262.708 110.57 265.058C110.63 267.41 110.699 269.761 110.657 272.116C110.463 269.769 110.379 267.418 110.287 265.068C110.227 262.716 110.16 260.365 110.2 258.01Z" fill="#002E5C"/>
<path d="M86.39 260.466C86.711 261.961 86.925 263.471 87.147 264.98C87.336 266.493 87.534 268.005 87.623 269.531C87.301 268.036 87.088 266.526 86.866 265.018C86.677 263.504 86.479 261.992 86.39 260.466Z" fill="#002E5C"/>
<path d="M84.172 225.947C84.172 225.947 85.37 216.881 84.172 215.683C82.974 214.485 80.63 221.856 80.63 221.856" fill="#E2B9A0"/>
<path d="M81.3681 220.029C80.7021 220.176 80.0671 220.427 79.4771 220.74C78.8901 221.061 78.3491 221.465 77.9221 221.971C77.4811 222.461 77.1311 223.041 76.9231 223.676C76.6821 224.301 76.5901 224.974 76.5101 225.653C76.5141 225.314 76.4901 224.968 76.5171 224.625C76.5761 224.286 76.5961 223.936 76.7151 223.608C76.8881 222.932 77.2591 222.316 77.7091 221.783C78.6461 220.735 80.0061 220.119 81.3681 220.029Z" fill="#002E5C"/>
<path d="M119.536 223.694C119.536 223.694 125.137 215.494 122.638 209.659C126.511 211.827 139.525 210.082 141.187 204.377C142.502 201.348 139.605 198.366 137.586 200.859C135.567 203.352 131.264 197.266 128.04 200.606C124.816 203.945 118.796 199.076 118.103 204.788C111.443 205.995 111.652 211.859 114.691 213.949C112.289 216.916 113.27 223.168 119.536 223.694Z" fill="#89CFF0"/>
<path d="M121.571 219.943L122.703 226.145L120.352 227.152L117.919 220.327L121.571 219.943Z" fill="#89CFF0"/>
<path d="M132.586 228.143C133.09 228.371 133.62 228.517 134.153 228.611C134.686 228.7 135.228 228.746 135.764 228.687C136.843 228.623 137.87 228.224 138.845 227.705C138.411 228.046 137.945 228.364 137.421 228.57C136.908 228.802 136.345 228.908 135.786 228.97C134.662 229.043 133.498 228.785 132.586 228.143Z" fill="#002E5C"/>
<path d="M121.084 206.25C122.248 206.707 123.445 207.065 124.651 207.372C125.859 207.67 127.082 207.906 128.317 208.038C129.549 208.206 130.796 208.208 132.034 208.153C133.277 208.094 134.502 207.859 135.714 207.553C134.534 207.96 133.306 208.273 132.05 208.371C130.798 208.473 129.533 208.468 128.284 208.32C125.794 208.01 123.334 207.352 121.084 206.25Z" fill="#002E5C"/>
<path d="M125.169 205.25C125.697 205.02 126.125 204.602 126.633 204.316C127.135 204.018 127.672 203.763 128.254 203.627C128.833 203.485 129.47 203.517 130.032 203.747C130.598 203.949 131.061 204.435 131.48 204.745C131.925 205.059 132.473 205.22 133.031 205.185C133.589 205.144 134.132 204.965 134.657 204.744C135.691 204.26 136.65 203.59 137.516 202.82C136.721 203.665 135.801 204.406 134.75 204.941C134.221 205.201 133.648 205.385 133.047 205.442C132.443 205.49 131.818 205.322 131.317 204.976C130.817 204.586 130.471 204.196 129.936 203.985C129.427 203.765 128.852 203.737 128.298 203.839C127.166 204.03 126.221 204.777 125.169 205.25Z" fill="#002E5C"/>
<path d="M120.617 242.028C122.622 243.215 124.609 244.433 126.487 245.828C128.164 247.44 130.448 248.326 132.73 248.401C133.874 248.422 135.02 248.163 136.031 247.619C137.047 247.084 137.902 246.275 138.609 245.367C140.013 243.523 140.865 241.314 141.519 239.087C140.96 241.339 140.176 243.593 138.754 245.478C138.047 246.411 137.182 247.251 136.139 247.819C135.102 248.395 133.913 248.681 132.727 248.674C131.539 248.669 130.371 248.373 129.286 247.919C128.744 247.688 128.219 247.418 127.724 247.095C127.476 246.934 127.236 246.763 127.013 246.55C126.809 246.354 126.588 246.168 126.361 245.989C124.515 244.587 122.549 243.326 120.617 242.028Z" fill="#4141EE"/>
<path d="M110.2 266.744C110.841 265.819 111.44 264.868 112.024 263.912C112.601 262.951 113.168 261.983 113.669 260.982C114.698 258.995 115.555 256.912 115.982 254.7C115.88 255.822 115.616 256.928 115.258 258C114.892 259.07 114.42 260.099 113.921 261.111C112.866 263.106 111.648 265.018 110.2 266.744Z" fill="#4141EE"/>
<path d="M115.982 269.531C118.042 273.29 120.227 276.979 122.484 280.621C124.757 284.253 127.136 287.819 129.677 291.266C132.2 294.723 134.868 298.087 137.862 301.148C139.356 302.678 140.932 304.136 142.652 305.408C144.36 306.685 146.215 307.815 148.274 308.437C146.202 307.86 144.312 306.765 142.57 305.52C140.83 304.258 139.238 302.804 137.728 301.281C134.703 298.232 132.001 294.881 129.449 291.433C126.927 287.96 124.572 284.372 122.324 280.72C120.074 277.068 117.946 273.342 115.982 269.531Z" fill="#4141EE"/>
<path d="M117.153 282.54C117.44 283.993 117.931 285.398 118.386 286.805C118.845 288.213 119.333 289.611 119.854 290.997C120.893 293.769 122.056 296.496 123.376 299.143C124.676 301.797 126.133 304.387 127.923 306.74C128.814 307.917 129.812 309.018 130.94 309.969C132.058 310.923 133.34 311.727 134.781 312.102C133.329 311.773 132.009 311.003 130.851 310.076C129.699 309.131 128.684 308.03 127.774 306.856C125.948 304.506 124.454 301.921 123.122 299.269C121.825 296.597 120.689 293.851 119.677 291.062C118.684 288.272 117.712 285.454 117.153 282.54Z" fill="#4141EE"/>
<path d="M156.475 224.014L143.05 238.56L150.881 262.735L167.448 241.237C165.835 234.543 162.774 226.186 156.475 224.014Z" fill="#002E5C"/>
<path d="M171.146 163.766C169.513 163.947 166.606 166.405 165.718 170.14C162.526 183.568 165.15 213.504 165.15 213.504L156.476 224.014C162.775 226.186 165.836 234.543 167.449 241.237L170.323 237.969C176.278 231.197 180.821 222.521 180.717 213.503C180.565 200.348 182.256 180.121 179.633 169.847C178.458 165.246 173.213 163.536 171.146 163.766Z" fill="#E2B9A0"/>
<path d="M154.692 225.947C157.388 228.188 159.721 230.856 161.711 233.748C162.69 235.207 163.544 236.75 164.269 238.351C164.983 239.959 165.48 241.655 165.803 243.375C165.377 241.675 164.813 240.02 164.071 238.441C163.312 236.873 162.468 235.343 161.477 233.906C160.507 232.457 159.436 231.076 158.304 229.747C157.163 228.424 155.973 227.14 154.692 225.947Z" fill="#4141EE"/>
<path d="M435.26 404.184H341.196C333.403 404.184 327.086 397.867 327.086 390.074V182.46C327.086 174.667 333.403 168.35 341.196 168.35H435.26C443.053 168.35 449.37 174.667 449.37 182.46V390.074C449.37 397.867 443.052 404.184 435.26 404.184Z" fill="#4141EE"/>
<path d="M430.781 404.184H336.716C328.923 404.184 322.606 397.867 322.606 390.074V182.46C322.606 174.667 328.923 168.35 336.716 168.35H430.781C438.573 168.35 444.891 174.667 444.891 182.46V390.074C444.891 397.867 438.574 404.184 430.781 404.184Z" fill="#4141EE"/>
<path d="M394.721 391.239C396.146 385.169 392.381 379.093 386.311 377.667C380.241 376.242 374.165 380.007 372.739 386.077C371.314 392.147 375.079 398.224 381.149 399.649C387.219 401.074 393.295 397.309 394.721 391.239Z" stroke="white" stroke-miterlimit="10" stroke-linecap="round" stroke-linejoin="round"/>
<path d="M336.717 374.366C332.088 374.366 328.321 370.6 328.321 365.97V192.102C328.321 187.473 332.088 183.706 336.717 183.706H430.782C435.412 183.706 439.178 187.473 439.178 192.102V365.97C439.178 370.6 435.412 374.366 430.782 374.366H336.717Z" fill="#D8F2FF"/>
<path d="M401.951 181.452C403.899 181.452 405.478 179.873 405.478 177.925C405.478 175.977 403.899 174.398 401.951 174.398C400.003 174.398 398.424 175.977 398.424 177.925C398.424 179.873 400.003 181.452 401.951 181.452Z" fill="#4141EE"/>
<path d="M420.566 180.927C422.224 180.927 423.568 179.583 423.568 177.925C423.568 176.267 422.224 174.923 420.566 174.923C418.908 174.923 417.564 176.267 417.564 177.925C417.564 179.583 418.908 180.927 420.566 180.927Z" fill="#4141EE"/>
<path d="M431.744 177.925C431.744 179.08 430.808 180.016 429.653 180.016C428.498 180.016 427.562 179.08 427.562 177.925C427.562 176.77 428.498 175.834 429.653 175.834C430.808 175.834 431.744 176.77 431.744 177.925Z" fill="#4141EE"/>
<path d="M448.58 242.792H446.902C446.467 242.792 446.112 242.436 446.112 242.002V191.076C446.112 190.641 446.467 190.286 446.902 190.286H448.58C449.015 190.286 449.37 190.641 449.37 191.076V242.002C449.37 242.436 449.014 242.792 448.58 242.792Z" fill="#89CFF0"/>
<path d="M448.58 262.471H446.902C446.467 262.471 446.112 262.116 446.112 261.681V248.823C446.112 248.389 446.467 248.033 446.902 248.033H448.58C449.015 248.033 449.37 248.388 449.37 248.823V261.681C449.37 262.116 449.014 262.471 448.58 262.471Z" fill="#89CFF0"/>
<path d="M160.74 404.184H254.804C262.596 404.184 268.914 397.867 268.914 390.074V182.46C268.914 174.667 262.597 168.35 254.804 168.35H160.74C152.947 168.35 146.63 174.667 146.63 182.46V390.074C146.63 397.867 152.947 404.184 160.74 404.184Z" fill="#89CFF0"/>
<path d="M165.219 404.184H259.283C267.076 404.184 273.393 397.867 273.393 390.074V182.46C273.393 174.667 267.076 168.35 259.283 168.35H165.219C157.426 168.35 151.109 174.667 151.109 182.46V390.074C151.109 397.867 157.426 404.184 165.219 404.184Z" fill="#4141EE"/>
<path d="M267.679 390.074V182.46C267.679 177.823 263.92 174.064 259.283 174.064H165.219C160.582 174.064 156.823 177.823 156.823 182.46V390.074C156.823 394.711 160.582 398.47 165.219 398.47H259.283C263.92 398.47 267.679 394.711 267.679 390.074Z" fill="#D8F2FF"/>
<path d="M199.223 186.267H225.278C230.402 186.267 234.556 182.113 234.556 176.989V170.634H189.944V176.989C189.945 182.113 194.099 186.267 199.223 186.267Z" fill="#4141EE"/>
<path d="M221.856 177.925C221.86 178.85 222.246 179.762 222.904 180.405C223.562 181.05 224.478 181.402 225.384 181.382C227.229 181.384 228.826 179.73 228.77 177.925C228.825 176.12 227.228 174.467 225.384 174.469C224.478 174.449 223.562 174.802 222.904 175.446C222.246 176.088 221.86 177 221.856 177.925ZM221.856 177.925C221.798 176.045 223.463 174.323 225.383 174.326C226.325 174.306 227.28 174.674 227.963 175.344C228.647 176.013 229.049 176.962 229.052 177.924C229.049 178.886 228.646 179.835 227.963 180.504C227.279 181.174 226.326 181.542 225.383 181.522C223.463 181.527 221.798 179.806 221.856 177.925Z" fill="white"/>
<path d="M203.767 177.925C203.771 178.712 204.101 179.487 204.661 180.033C205.222 180.58 206.001 180.875 206.769 180.856C208.333 180.851 209.678 179.448 209.629 177.925C209.677 176.401 208.332 175 206.769 174.994C206.001 174.974 205.222 175.27 204.661 175.817C204.101 176.363 203.771 177.138 203.767 177.925ZM203.767 177.925C203.716 176.326 205.129 174.856 206.769 174.852C207.574 174.832 208.391 175.144 208.977 175.717C209.563 176.289 209.909 177.101 209.912 177.925C209.908 178.749 209.563 179.562 208.977 180.133C208.39 180.705 207.573 181.017 206.769 180.997C205.13 180.994 203.716 179.525 203.767 177.925Z" fill="white"/>
<path d="M195.591 177.925C195.596 178.474 195.828 179.012 196.218 179.389C196.61 179.766 197.153 179.964 197.682 179.945C198.759 179.927 199.667 178.961 199.631 177.924C199.666 176.887 198.758 175.923 197.682 175.904C197.153 175.885 196.611 176.083 196.218 176.46C195.828 176.839 195.596 177.377 195.591 177.925ZM195.591 177.925C195.553 176.812 196.529 175.779 197.682 175.763C198.248 175.744 198.829 175.957 199.246 176.361C199.662 176.764 199.91 177.34 199.914 177.925C199.909 178.51 199.662 179.086 199.246 179.489C198.828 179.892 198.247 180.106 197.682 180.087C196.53 180.07 195.553 179.038 195.591 177.925Z" fill="white"/>
<path d="M147.42 242.792H149.098C149.533 242.792 149.888 242.436 149.888 242.002V191.076C149.888 190.641 149.533 190.286 149.098 190.286H147.42C146.985 190.286 146.63 190.641 146.63 191.076V242.002C146.63 242.436 146.986 242.792 147.42 242.792Z" fill="#4141EE"/>
<path d="M147.42 262.471H149.098C149.533 262.471 149.888 262.116 149.888 261.681V248.823C149.888 248.389 149.533 248.033 149.098 248.033H147.42C146.985 248.033 146.63 248.388 146.63 248.823V261.681C146.63 262.116 146.986 262.471 147.42 262.471Z" fill="#4141EE"/>
<path d="M165.235 168.158C165.853 164.283 172.42 162.741 177.295 163.745C182.17 164.749 180.958 173.759 179.795 174.922C178.632 176.085 177.545 169.168 177.545 169.168C177.545 169.168 177.92 175.833 176.17 175.833C174.42 175.833 173.92 168.874 173.92 168.874C173.92 168.874 173.295 175.896 171.67 175.896C170.045 175.896 170.045 168.35 170.045 168.35C170.045 168.35 170.045 176.417 168.17 175.833C166.295 175.249 167.449 168.35 167.449 168.35L165.235 168.158Z" fill="#E2B9A0"/>
<path d="M206.43 271.673V267.256C206.43 263.868 203.683 261.121 200.295 261.121H187.634C184.246 261.121 181.499 263.868 181.499 267.256V322.61H239.412L239.451 271.673H206.43Z" fill="#89CFF0"/>
<path d="M389.569 271.673V267.256C389.569 263.868 392.316 261.121 395.704 261.121H408.365C411.753 261.121 414.5 263.868 414.5 267.256V322.61H356.587L356.548 271.673H389.569Z" fill="#89CFF0"/>
<path d="M381.056 296.68L345.26 276.013L375.26 224.051L404.705 241.051C405.753 244.963 406.341 247.156 407.389 251.069L381.056 296.68Z" fill="#F5F5F5"/>
<path d="M404.705 241.052L401.038 247.402L407.389 251.069L404.705 241.052Z" fill="#CACBE8"/>
<path d="M397.394 258.193L370.404 242.61L369.57 244.053L396.561 259.637L397.394 258.193Z" fill="#CACBE8"/>
<path d="M395.811 260.934L368.82 245.351L367.987 246.795L394.978 262.378L395.811 260.934Z" fill="#CACBE8"/>
<path d="M394.229 263.677L367.238 248.093L366.405 249.537L393.395 265.121L394.229 263.677Z" fill="#CACBE8"/>
<path d="M392.645 266.419L365.655 250.836L364.821 252.28L391.812 267.863L392.645 266.419Z" fill="#CACBE8"/>
<path d="M391.061 269.161L364.071 253.578L363.237 255.021L390.228 270.605L391.061 269.161Z" fill="#CACBE8"/>
<path d="M389.478 271.904L362.487 256.321L361.654 257.764L388.644 273.348L389.478 271.904Z" fill="#CACBE8"/>
<path d="M387.895 274.647L360.904 259.063L360.07 260.507L387.061 276.09L387.895 274.647Z" fill="#CACBE8"/>
<path d="M386.311 277.389L359.32 261.805L358.487 263.249L385.478 278.833L386.311 277.389Z" fill="#CACBE8"/>
<path d="M384.728 280.131L357.738 264.548L356.904 265.991L383.895 281.575L384.728 280.131Z" fill="#CACBE8"/>
<path d="M383.145 282.874L356.155 267.29L355.321 268.734L382.312 284.318L383.145 282.874Z" fill="#CACBE8"/>
<path d="M381.562 285.615L354.572 270.032L353.738 271.475L380.729 287.059L381.562 285.615Z" fill="#CACBE8"/>
<path d="M259.984 243.944L221.143 258.081L200.622 201.699L232.572 190.07C236.243 191.782 238.301 192.741 241.971 194.453L259.984 243.944Z" fill="#4141EE"/>
<path d="M232.572 190.07L235.08 196.961L241.971 194.453L232.572 190.07Z" fill="#89CFF0"/>
<path d="M241.012 206.691L211.724 217.35L212.294 218.917L241.582 208.258L241.012 206.691Z" fill="#89CFF0"/>
<path d="M242.094 209.666L212.807 220.325L213.377 221.892L242.665 211.233L242.094 209.666Z" fill="#89CFF0"/>
<path d="M243.177 212.643L213.89 223.302L214.46 224.868L243.748 214.209L243.177 212.643Z" fill="#89CFF0"/>
<path d="M244.261 215.618L214.973 226.277L215.543 227.844L244.831 217.185L244.261 215.618Z" fill="#89CFF0"/>
<path d="M245.343 218.593L216.056 229.253L216.626 230.819L245.913 220.16L245.343 218.593Z" fill="#89CFF0"/>
<path d="M246.427 221.569L217.139 232.228L217.709 233.794L246.997 223.135L246.427 221.569Z" fill="#89CFF0"/>
<path d="M247.51 224.545L218.222 235.204L218.792 236.77L248.08 226.111L247.51 224.545Z" fill="#89CFF0"/>
<path d="M248.592 227.52L219.305 238.179L219.875 239.746L249.163 229.086L248.592 227.52Z" fill="#89CFF0"/>
<path d="M249.676 230.496L220.388 241.155L220.958 242.721L250.246 232.062L249.676 230.496Z" fill="#89CFF0"/>
<path d="M250.76 233.472L221.472 244.131L222.042 245.697L251.33 235.038L250.76 233.472Z" fill="#89CFF0"/>
<path d="M251.842 236.447L222.554 247.106L223.125 248.673L252.412 238.014L251.842 236.447Z" fill="#89CFF0"/>
<path d="M377.944 259.162L339.103 245.025L359.624 188.643L391.574 200.272C393.286 203.943 394.245 206.001 395.957 209.671L377.944 259.162Z" fill="white"/>
<path d="M391.574 200.272L389.065 207.163L395.957 209.672L391.574 200.272Z" fill="#CACBE8"/>
<path d="M387.367 218.421L358.08 207.762L357.51 209.328L386.797 219.988L387.367 218.421Z" fill="#89CFF0"/>
<path d="M386.284 221.397L356.997 210.738L356.427 212.304L385.714 222.964L386.284 221.397Z" fill="#89CFF0"/>
<path d="M385.201 224.373L355.914 213.714L355.343 215.281L384.631 225.94L385.201 224.373Z" fill="#89CFF0"/>
<path d="M384.118 227.347L354.831 216.688L354.261 218.255L383.548 228.914L384.118 227.347Z" fill="#89CFF0"/>
<path d="M383.035 230.323L353.748 219.664L353.178 221.231L382.465 231.89L383.035 230.323Z" fill="#89CFF0"/>
<path d="M381.952 233.299L352.665 222.64L352.095 224.207L381.382 234.866L381.952 233.299Z" fill="#89CFF0"/>
<path d="M380.87 236.274L351.582 225.615L351.012 227.182L380.3 237.841L380.87 236.274Z" fill="#89CFF0"/>
<path d="M379.786 239.251L350.498 228.592L349.928 230.158L379.216 240.817L379.786 239.251Z" fill="#89CFF0"/>
<path d="M378.703 242.227L349.415 231.568L348.845 233.135L378.133 243.794L378.703 242.227Z" fill="#89CFF0"/>
<path d="M377.62 245.202L348.332 234.543L347.762 236.11L377.05 246.769L377.62 245.202Z" fill="#89CFF0"/>
<path d="M376.537 248.178L347.25 237.519L346.679 239.085L375.967 249.745L376.537 248.178Z" fill="#89CFF0"/>
<path d="M319.583 203.654H278.25V143.654H312.25C315.114 146.518 316.719 148.123 319.583 150.987V203.654Z" fill="#D8F2FF"/>
<path d="M312.25 143.655V150.988H319.583L312.25 143.655Z" fill="#CACBE8"/>
<path d="M314.5 162.154H283.333V163.821H314.5V162.154Z" fill="#4141EE"/>
<path d="M314.5 165.321H283.333V166.988H314.5V165.321Z" fill="#4141EE"/>
<path d="M314.5 168.488H283.333V170.155H314.5V168.488Z" fill="#4141EE"/>
<path d="M314.5 171.654H283.333V173.321H314.5V171.654Z" fill="#4141EE"/>
<path d="M314.5 174.821H283.333V176.488H314.5V174.821Z" fill="#4141EE"/>
<path d="M314.5 177.988H283.333V179.655H314.5V177.988Z" fill="#4141EE"/>
<path d="M314.5 181.154H283.333V182.821H314.5V181.154Z" fill="#4141EE"/>
<path d="M314.5 184.321H283.333V185.988H314.5V184.321Z" fill="#4141EE"/>
<path d="M314.5 187.488H283.333V189.155H314.5V187.488Z" fill="#4141EE"/>
<path d="M314.5 190.654H283.333V192.321H314.5V190.654Z" fill="#4141EE"/>
<path d="M314.5 193.821H283.333V195.488H314.5V193.821Z" fill="#4141EE"/>
<path d="M284.503 212.759L243.798 219.936L233.379 160.848L266.862 154.944C270.18 157.267 272.04 158.57 275.357 160.893L284.503 212.759Z" fill="#F5F5F5"/>
<path d="M266.862 154.944L268.136 162.166L275.357 160.892L266.862 154.944Z" fill="#CACBE8"/>
<path d="M272.297 172.759L241.603 178.173L241.893 179.815L272.586 174.401L272.297 172.759Z" fill="#CACBE8"/>
<path d="M272.832 175.9L242.138 181.311L242.428 182.952L273.121 177.542L272.832 175.9Z" fill="#CACBE8"/>
<path d="M273.397 178.997L242.704 184.411L242.993 186.053L273.687 180.639L273.397 178.997Z" fill="#CACBE8"/>
<path d="M273.931 182.137L243.238 187.548L243.527 189.189L274.221 183.779L273.931 182.137Z" fill="#CACBE8"/>
<path d="M274.481 185.256L243.788 190.667L244.077 192.308L274.77 186.898L274.481 185.256Z" fill="#CACBE8"/>
<path d="M275.048 188.352L244.354 193.766L244.644 195.407L275.337 189.994L275.048 188.352Z" fill="#CACBE8"/>
<path d="M275.581 191.493L244.888 196.903L245.177 198.545L275.87 193.135L275.581 191.493Z" fill="#CACBE8"/>
<path d="M276.147 194.589L245.453 200.003L245.743 201.644L276.436 196.231L276.147 194.589Z" fill="#CACBE8"/>
<path d="M276.68 197.73L245.986 203.141L246.276 204.782L276.969 199.372L276.68 197.73Z" fill="#CACBE8"/>
<path d="M277.247 200.826L246.554 206.24L246.843 207.881L277.536 202.468L277.247 200.826Z" fill="#CACBE8"/>
<path d="M277.779 203.967L247.086 209.378L247.375 211.019L278.068 205.609L277.779 203.967Z" fill="#CACBE8"/>
<path d="M354.672 220.573L313.967 213.395L324.386 154.306L357.869 160.21C360.192 163.528 361.495 165.388 363.818 168.705L354.672 220.573Z" fill="#F5F5F5"/>
<path d="M357.869 160.211L356.596 167.433L363.818 168.706L357.869 160.211Z" fill="#CACBE8"/>
<path d="M356.863 178.835L326.17 173.421L325.88 175.063L356.573 180.477L356.863 178.835Z" fill="#CACBE8"/>
<path d="M356.328 181.924L325.635 176.513L325.345 178.155L356.038 183.566L356.328 181.924Z" fill="#CACBE8"/>
<path d="M355.778 185.042L325.085 179.631L324.795 181.273L355.489 186.684L355.778 185.042Z" fill="#CACBE8"/>
<path d="M355.228 188.161L324.535 182.75L324.246 184.392L354.939 189.803L355.228 188.161Z" fill="#CACBE8"/>
<path d="M354.679 191.279L323.986 185.868L323.697 187.51L354.39 192.921L354.679 191.279Z" fill="#CACBE8"/>
<path d="M354.113 194.428L323.42 189.014L323.13 190.656L353.824 196.07L354.113 194.428Z" fill="#CACBE8"/>
<path d="M353.58 197.516L322.887 192.105L322.597 193.747L353.29 199.158L353.58 197.516Z" fill="#CACBE8"/>
<path d="M353.013 200.665L322.32 195.251L322.03 196.893L352.724 202.306L353.013 200.665Z" fill="#CACBE8"/>
<path d="M352.48 203.754L321.787 198.343L321.497 199.985L352.191 205.396L352.48 203.754Z" fill="#CACBE8"/>
<path d="M351.93 206.872L321.237 201.461L320.947 203.103L351.641 208.514L351.93 206.872Z" fill="#CACBE8"/>
<path d="M351.362 210.02L320.669 204.607L320.38 206.248L351.073 211.662L351.362 210.02Z" fill="#CACBE8"/>
<path d="M254.407 274.56L218.611 295.227L188.611 243.266L218.056 226.266C221.968 227.314 224.161 227.902 228.073 228.95L254.407 274.56Z" fill="#F5F5F5"/>
<path d="M218.056 226.266L221.722 232.616L228.073 228.95L218.056 226.266Z" fill="#CACBE8"/>
<path d="M229.25 241.156L202.26 256.739L203.093 258.183L230.084 242.6L229.25 241.156Z" fill="#89CFF0"/>
<path d="M230.833 243.898L203.842 259.482L204.676 260.926L231.666 245.342L230.833 243.898Z" fill="#89CFF0"/>
<path d="M232.417 246.641L205.426 262.225L206.26 263.668L233.25 248.085L232.417 246.641Z" fill="#89CFF0"/>
<path d="M234 249.383L207.009 264.966L207.843 266.41L234.833 250.826L234 249.383Z" fill="#89CFF0"/>
<path d="M235.583 252.125L208.593 267.709L209.426 269.153L236.417 253.569L235.583 252.125Z" fill="#89CFF0"/>
<path d="M237.167 254.867L210.176 270.451L211.01 271.895L238 256.311L237.167 254.867Z" fill="#89CFF0"/>
<path d="M238.75 257.61L211.759 273.193L212.592 274.637L239.583 259.053L238.75 257.61Z" fill="#89CFF0"/>
<path d="M240.333 260.352L213.342 275.936L214.176 277.379L241.167 261.796L240.333 260.352Z" fill="#89CFF0"/>
<path d="M241.916 263.095L214.926 278.679L215.759 280.122L242.75 264.539L241.916 263.095Z" fill="#89CFF0"/>
<path d="M243.5 265.838L216.509 281.422L217.342 282.865L244.333 267.282L243.5 265.838Z" fill="#89CFF0"/>
<path d="M245.083 268.579L218.092 284.162L218.926 285.606L245.916 270.023L245.083 268.579Z" fill="#89CFF0"/>
<path d="M252.432 277.146H194.558L181.499 322.61H239.412L252.432 277.146Z" fill="#4141EE"/>
<path d="M343.568 277.146H401.442L414.501 322.61H356.588L343.568 277.146Z" fill="#4141EE"/>
<path d="M469.013 466.218L469.563 474.876H439.261C439.261 474.876 441.741 471.153 450.76 469.508C451.293 466.478 451.293 466.478 451.293 466.478L469.013 466.218Z" fill="#89CFF0"/>
<path d="M439.091 477.647H469.566L469.736 474.876H439.261L439.091 477.647Z" fill="#CACBE8"/>
<path d="M469.337 470.779C468.866 470.915 468.417 471.102 467.986 471.312C467.559 471.528 467.147 471.775 466.794 472.089C466.421 472.383 466.136 472.765 465.9 473.173C465.651 473.58 465.539 474.052 465.429 474.53C465.435 474.045 465.476 473.53 465.705 473.076C465.914 472.619 466.227 472.204 466.609 471.875C467.391 471.238 468.354 470.846 469.337 470.779Z" fill="#002E5C"/>
<path d="M454.014 465.871C453.98 467.723 453.913 469.573 453.804 471.42C453.8 471.489 453.739 471.542 453.67 471.543C452.26 471.55 450.841 471.62 449.437 471.786C448.033 471.953 446.633 472.196 445.285 472.654C446.588 472.076 447.995 471.753 449.405 471.545C450.821 471.359 452.244 471.25 453.676 471.282L453.543 471.405C453.661 469.558 453.821 467.714 454.014 465.871Z" fill="#002E5C"/>
<path d="M444.42 471.139C444.902 471.549 445.229 472.105 445.48 472.681C445.589 472.977 445.689 473.278 445.738 473.59C445.798 473.9 445.799 474.219 445.776 474.53C445.609 473.926 445.465 473.343 445.218 472.788C445.116 472.503 444.981 472.231 444.849 471.957C444.713 471.685 444.576 471.41 444.42 471.139Z" fill="#002E5C"/>
<path d="M516.304 465.954L516.854 474.612H486.552C486.552 474.612 489.032 470.889 498.051 469.244C498.584 466.214 498.584 466.214 498.584 466.214L516.304 465.954Z" fill="#89CFF0"/>
<path d="M486.382 477.383H516.857L517.027 474.612H486.552L486.382 477.383Z" fill="#CACBE8"/>
<path d="M516.628 470.516C516.157 470.651 515.707 470.839 515.277 471.049C514.85 471.265 514.438 471.512 514.085 471.826C513.712 472.12 513.427 472.502 513.191 472.909C512.942 473.316 512.83 473.788 512.719 474.266C512.725 473.781 512.766 473.266 512.995 472.812C513.204 472.355 513.517 471.94 513.899 471.611C514.681 470.974 515.645 470.583 516.628 470.516Z" fill="#002E5C"/>
<path d="M501.305 465.608C501.271 467.46 501.204 469.31 501.095 471.157C501.091 471.226 501.03 471.279 500.962 471.28C499.552 471.287 498.133 471.357 496.728 471.523C495.324 471.69 493.924 471.932 492.577 472.391C493.88 471.813 495.287 471.49 496.697 471.282C498.113 471.096 499.536 470.987 500.968 471.019L500.835 471.142C500.952 469.294 501.112 467.45 501.305 465.608Z" fill="#002E5C"/>
<path d="M491.711 470.875C492.193 471.285 492.52 471.841 492.771 472.417C492.88 472.713 492.98 473.014 493.029 473.326C493.089 473.636 493.09 473.955 493.067 474.266C492.9 473.662 492.755 473.079 492.509 472.524C492.407 472.239 492.273 471.967 492.14 471.693C492.004 471.421 491.867 471.146 491.711 470.875Z" fill="#002E5C"/>
<path d="M455.952 325.691L463.02 296.532L459.338 251.833C459.338 251.833 467.354 242.493 480.8 241.074C482.087 240.938 483.311 240.873 484.473 240.84C496.176 240.509 504.962 250.189 503.485 261.564L498.946 296.532L503.42 308.267C505.378 313.404 506.942 318.687 508.111 324.071C491.339 330.45 471.573 332.816 455.952 325.691Z" fill="#CACBE8"/>
<path d="M496.352 292.333C496.593 292.574 492.083 303.583 478.833 308L496.352 292.333Z" fill="#CACBE8"/>
<path d="M496.352 292.333C496.175 293.326 495.643 294.226 495.181 295.119C494.683 296.003 494.121 296.85 493.522 297.669C492.318 299.304 490.923 300.796 489.4 302.14C487.867 303.473 486.195 304.646 484.423 305.635C482.644 306.613 480.767 307.405 478.834 308C482.629 306.606 486.195 304.599 489.214 301.927C490.739 300.613 492.118 299.133 493.349 297.539C493.965 296.742 494.542 295.914 495.062 295.05C495.561 294.185 496.131 293.312 496.352 292.333Z" fill="#002E5C"/>
<path d="M494.833 301.917C494.833 301.917 491 315.667 481.083 315.667L494.833 301.917Z" fill="#CACBE8"/>
<path d="M494.833 301.917C494.383 303.591 493.734 305.211 492.958 306.765C492.172 308.313 491.255 309.808 490.119 311.136C488.975 312.449 487.654 313.629 486.117 314.474C484.554 315.28 482.818 315.662 481.083 315.666C482.817 315.556 484.5 315.103 486.012 314.282C487.496 313.414 488.791 312.26 489.903 310.952C491.04 309.659 491.944 308.178 492.765 306.664C493.569 305.14 494.284 303.56 494.833 301.917Z" fill="#002E5C"/>
<path d="M493.154 205.955C493.154 205.955 509.245 196.038 505.37 212.375C502.905 222.77 504.533 234.154 509.812 228.875C506.12 239.5 496.078 236.125 495.245 229.625C494.151 221.082 501.06 204.959 493.154 209.73" fill="#002E5C"/>
<path d="M493.025 212.126C494.862 212.126 496.352 210.195 496.352 207.813C496.352 205.431 494.862 203.5 493.025 203.5C491.188 203.5 489.698 205.431 489.698 207.813C489.698 210.195 491.188 212.126 493.025 212.126Z" fill="#89CFF0"/>
<path d="M494.644 216.341C496.546 207.156 492.831 198.622 486.346 197.28C479.862 195.938 473.064 202.295 471.163 211.48C469.262 220.665 472.977 229.199 479.461 230.541C485.945 231.884 492.743 225.526 494.644 216.341Z" fill="#002E5C"/>
<path d="M465.718 252.854C463.986 258.668 456.937 266.779 457.236 272.422C457.443 276.335 460.915 281 465.907 279.501" fill="#CACBE8"/>
<path d="M465.718 252.854C464.903 255.617 463.42 258.117 462.018 260.609C460.614 263.104 459.158 265.591 458.167 268.267C457.677 269.596 457.291 270.996 457.351 272.41C457.423 273.821 457.889 275.207 458.628 276.416C459.372 277.619 460.429 278.654 461.727 279.238C463.018 279.84 464.529 279.9 465.905 279.501C464.543 279.942 463.013 279.936 461.672 279.362C460.334 278.785 459.244 277.733 458.47 276.514C457.702 275.287 457.208 273.878 457.118 272.421C457.04 270.955 457.421 269.523 457.902 268.169C458.93 265.465 460.422 262.995 461.853 260.514C462.574 259.275 463.294 258.036 463.963 256.77C464.641 255.51 465.277 254.22 465.718 252.854Z" fill="#002E5C"/>
<path d="M488.601 246.533C488.426 246.925 488.076 247.202 487.729 247.438C487.379 247.681 486.993 247.862 486.607 248.039C485.822 248.364 485.002 248.597 484.173 248.777C482.511 249.123 480.798 249.227 479.101 249.087C477.425 248.899 475.683 248.465 474.351 247.345C473.696 246.788 473.19 246.05 472.937 245.232C472.686 244.411 472.673 243.546 472.777 242.71C472.618 244.383 473.154 246.156 474.491 247.178C475.792 248.216 477.479 248.643 479.129 248.806C480.793 248.967 482.482 248.861 484.132 248.565C484.956 248.413 485.772 248.205 486.557 247.911C486.946 247.758 487.337 247.6 487.694 247.38C488.046 247.165 488.405 246.914 488.601 246.533Z" fill="#002E5C"/>
<path d="M455.952 325.691C471.573 332.816 491.339 330.45 508.111 324.072C509.402 330.014 510.211 336.081 510.519 342.219L516.442 468.642L498.232 468.391L480.489 341.771L465.63 396.101L469.168 468.642L450.995 467.95L443.517 412.328C442.13 402.008 442.487 391.529 444.573 381.328L455.952 325.691Z" fill="#002E5C"/>
<mask id="mask1_581_2089" style="mask-type:luminance" maskUnits="userSpaceOnUse" x="442" y="324" width="75" height="145">
<path d="M455.952 325.691C471.573 332.816 491.339 330.45 508.111 324.072C509.402 330.014 510.211 336.081 510.519 342.219L516.442 468.642L498.232 468.391L480.489 341.771L465.63 396.101L469.168 468.642L450.995 467.95L443.517 412.328C442.13 402.008 442.487 391.529 444.573 381.328L455.952 325.691Z" fill="white"/>
</mask>
<g mask="url(#mask1_581_2089)">
<path d="M472.141 457.75C469.888 459.166 467.517 460.519 464.868 461.064C464.207 461.185 463.523 461.233 462.849 461.127C462.176 461.033 461.521 460.717 461.052 460.21C460.119 459.154 460.005 457.677 460.062 456.361C460.109 455.006 460.475 453.706 460.44 452.377C460.451 451.049 460.26 449.726 459.955 448.432C459.368 445.831 458.282 443.375 457.58 440.776C457.25 439.483 457.029 438.088 457.393 436.747C457.743 435.385 458.826 434.368 459.987 433.705C460.537 433.352 461.095 432.987 461.427 432.417C461.775 431.871 461.966 431.235 462.032 430.583C462.128 429.268 461.855 427.945 461.521 426.66C461.188 425.369 460.778 424.095 460.457 422.792C460.144 421.498 459.871 420.14 460.121 418.795C460.35 417.425 461.506 416.371 462.79 416.008C464.07 415.587 465.424 415.509 466.757 415.5C465.425 415.531 464.073 415.634 462.813 416.073C461.545 416.459 460.457 417.497 460.257 418.822C460.025 420.126 460.296 421.467 460.616 422.751C460.942 424.044 461.36 425.315 461.703 426.611C462.046 427.902 462.334 429.237 462.243 430.601C462.179 431.279 461.983 431.954 461.615 432.539C461.265 433.147 460.669 433.546 460.106 433.909C458.977 434.565 457.964 435.536 457.644 436.817C457.307 438.081 457.523 439.432 457.855 440.706C458.53 443.275 459.608 445.751 460.185 448.38C460.485 449.689 460.671 451.031 460.652 452.38C460.678 453.738 460.301 455.051 460.25 456.371C460.183 457.669 460.299 459.105 461.173 460.1C462.073 461.104 463.574 461.155 464.844 460.929C467.467 460.437 469.867 459.127 472.141 457.75Z" fill="#CACBE8"/>
<path d="M444.847 438.308C446.07 438.269 447.238 437.831 448.322 437.295C449.406 436.747 450.425 436.069 451.337 435.27C452.251 434.48 453.078 433.563 453.628 432.492C454.185 431.441 454.352 430.121 453.733 429.081C453.456 428.556 452.958 428.186 452.622 427.642C452.291 427.111 452.089 426.506 452.004 425.894C451.827 424.665 451.953 423.427 452.158 422.223C452.568 419.807 453.355 417.483 453.849 415.113C453.97 414.522 454.073 413.924 454.072 413.332C454.065 412.766 453.925 412.102 453.37 411.955C453.249 411.893 453.099 411.906 452.961 411.883C452.811 411.859 452.627 411.846 452.473 411.794C452.163 411.657 451.898 411.427 451.744 411.147C451.408 410.6 451.251 409.993 451.117 409.395C450.647 406.987 450.539 404.545 449.977 402.18C449.7 401.002 449.324 399.837 448.727 398.788C448.135 397.746 447.292 396.811 446.195 396.298C445.113 395.761 443.875 395.608 442.667 395.667C441.449 395.719 440.263 396.031 439.092 396.357C440.256 396.009 441.438 395.673 442.662 395.598C443.876 395.515 445.135 395.644 446.255 396.173C447.387 396.688 448.258 397.647 448.869 398.705C449.485 399.772 449.872 400.949 450.16 402.136C450.742 404.516 450.868 406.974 451.347 409.345C451.481 409.93 451.643 410.522 451.951 411.012C452.093 411.268 452.318 411.445 452.56 411.556C452.691 411.595 452.818 411.602 452.967 411.626C453.129 411.649 453.295 411.635 453.453 411.709C453.783 411.794 454.056 412.078 454.17 412.385C454.309 412.692 454.325 413.015 454.343 413.329C454.347 413.958 454.246 414.568 454.125 415.169C453.609 417.565 452.81 419.872 452.389 422.264C452.178 423.454 452.048 424.673 452.212 425.862C452.29 426.456 452.481 427.033 452.79 427.536C453.087 428.035 453.6 428.427 453.896 428.989C454.547 430.098 454.353 431.497 453.774 432.567C453.201 433.663 452.358 434.587 451.426 435.376C450.49 436.165 449.451 436.827 448.352 437.358C447.253 437.875 446.071 438.292 444.847 438.308Z" fill="#CACBE8"/>
<path d="M469.101 404.184C467.033 405.294 464.723 406.152 462.32 405.989C461.148 405.81 459.961 405.492 458.991 404.77C458.028 404.069 457.202 403.167 456.637 402.111C456.079 401.056 455.703 399.902 455.588 398.709C455.536 398.113 455.55 397.506 455.677 396.914C455.828 396.309 456.056 395.796 456.138 395.211C456.482 392.893 456.287 390.514 456.279 388.154C456.276 386.971 456.282 385.782 456.431 384.597C456.51 384.006 456.619 383.411 456.854 382.846C457.065 382.296 457.539 381.711 458.204 381.654C458.808 381.65 459.296 381.396 459.763 381.03C460.222 380.674 460.643 380.263 461.053 379.842C461.863 378.988 462.626 378.086 463.405 377.196C464.183 376.306 464.975 375.424 465.829 374.6C466.684 373.783 467.596 372.998 468.662 372.455C469.703 371.904 470.995 371.655 472.119 372.104C473.247 372.525 474.111 373.414 474.794 374.367C474.093 373.427 473.212 372.559 472.096 372.169C470.985 371.751 469.738 372.018 468.726 372.578C466.656 373.709 465.098 375.561 463.548 377.319C462.776 378.213 462.019 379.121 461.208 379.988C460.797 380.416 460.374 380.837 459.901 381.208C459.662 381.391 459.408 381.558 459.129 381.691C458.86 381.822 458.493 381.867 458.236 381.888C457.683 381.939 457.286 382.419 457.084 382.943C456.868 383.472 456.763 384.051 456.69 384.63C456.551 385.792 456.555 386.974 456.563 388.152C456.554 390.509 456.737 392.885 456.371 395.253C456.286 395.845 456.033 396.424 455.896 396.965C455.771 397.526 455.753 398.112 455.8 398.692C455.904 399.853 456.264 400.986 456.803 402.022C457.349 403.06 458.151 403.946 459.086 404.637C460.028 405.35 461.186 405.663 462.334 405.853C464.69 406.059 467.012 405.255 469.101 404.184Z" fill="#CACBE8"/>
<path d="M448.592 353.5C450.056 354.922 451.862 355.909 453.693 356.768L456.456 358.057C457.363 358.511 458.294 358.978 459.023 359.732C459.38 360.109 459.644 360.611 459.669 361.149C459.7 361.684 459.535 362.206 459.294 362.662C458.825 363.593 458.118 364.354 457.412 365.088C456.008 366.533 455.18 368.439 454.685 370.387C453.633 374.295 453.616 378.432 452.459 382.362C451.874 384.301 450.87 386.224 449.173 387.422C447.471 388.613 445.357 388.937 443.344 388.934C445.358 388.892 447.453 388.515 449.093 387.309C450.744 386.119 451.716 384.232 452.28 382.308C453.398 378.407 453.38 374.278 454.413 370.314C454.93 368.347 455.79 366.399 457.247 364.922C457.95 364.204 458.652 363.455 459.106 362.567C459.342 362.131 459.495 361.645 459.47 361.162C459.451 360.677 459.219 360.221 458.884 359.86C458.199 359.138 457.281 358.661 456.384 358.205L453.634 356.893C451.817 355.99 450.023 354.955 448.592 353.5Z" fill="#CACBE8"/>
<path d="M475.642 363.75C473.687 364.072 471.626 364.089 469.735 363.403C468.813 363.029 467.943 362.421 467.446 361.533C466.936 360.65 466.919 359.553 467.23 358.602C467.524 357.635 468.095 356.777 468.758 356.031L469.756 354.922C470.064 354.538 470.358 354.14 470.592 353.705C471.086 352.849 471.404 351.905 471.69 350.955C471.985 350.012 472.204 349.011 472.794 348.162C473.384 347.28 474.511 346.955 475.502 347.003C476.515 347.019 477.501 347.24 478.465 347.5C480.394 348.035 482.254 348.76 484.089 349.548C485.914 350.35 487.697 351.34 489.129 352.776C489.83 353.501 490.413 354.36 490.758 355.32C491.11 356.279 491.19 357.317 491.11 358.321C490.929 360.343 490.198 362.233 489.526 364.1C488.841 365.966 488.158 367.842 487.834 369.795C487.674 370.769 487.601 371.761 487.68 372.742C487.772 373.725 487.983 374.695 488.238 375.652C488.764 377.566 489.478 379.426 490.167 381.294C490.852 383.163 491.547 385.037 492.027 386.978C492.498 388.905 492.811 390.943 492.398 392.921C492.033 394.914 490.724 396.637 489.06 397.726C487.406 398.86 485.475 399.49 483.548 399.96C485.47 399.468 487.391 398.815 489.021 397.669C490.663 396.565 491.926 394.855 492.263 392.893C492.658 390.947 492.345 388.931 491.868 387.017C491.383 385.091 490.684 383.224 489.991 381.359C489.295 379.495 488.572 377.634 488.034 375.707C487.773 374.743 487.555 373.762 487.458 372.76C487.373 371.754 487.444 370.746 487.602 369.756C487.923 367.772 488.605 365.879 489.283 364.01C489.949 362.141 490.661 360.26 490.829 358.297C490.91 357.322 490.837 356.327 490.503 355.409C490.177 354.49 489.622 353.662 488.943 352.954C487.557 351.552 485.8 350.563 483.993 349.761C482.175 348.971 480.316 348.239 478.408 347.702C477.455 347.44 476.48 347.219 475.499 347.2C474.529 347.155 473.501 347.451 472.946 348.269C472.385 349.065 472.156 350.057 471.858 351.002C471.567 351.954 471.241 352.912 470.734 353.782C470.494 354.224 470.192 354.629 469.876 355.02L468.871 356.127C468.213 356.86 467.654 357.702 467.359 358.639C467.046 359.561 467.051 360.618 467.534 361.479C468.005 362.345 468.85 362.954 469.759 363.335C471.624 364.04 473.683 364.05 475.642 363.75Z" fill="#CACBE8"/>
<path d="M488.419 405.958C488.891 406.313 489.515 406.307 490.077 406.39C490.653 406.451 491.231 406.505 491.805 406.597C492.944 406.777 494.109 407.101 495.044 407.832C495.99 408.554 496.54 409.691 496.728 410.842C496.92 412.001 496.852 413.183 496.671 414.332C496.471 415.483 496.223 416.61 496.148 417.755C496.108 418.896 496.166 420.064 496.566 421.139C497.242 423.368 499.038 424.963 500.666 426.588C501.475 427.412 502.293 428.307 502.709 429.434C503.119 430.544 503.15 431.796 502.789 432.917C502.084 435.129 501.858 437.436 501.754 439.75C501.694 440.907 501.655 442.067 501.535 443.225C501.394 444.368 501.229 445.573 500.545 446.559C500.204 447.043 499.703 447.416 499.141 447.592C498.579 447.769 497.984 447.803 497.405 447.749C496.242 447.647 495.128 447.278 494.044 446.874C495.135 447.256 496.256 447.601 497.41 447.679C497.984 447.721 498.568 447.674 499.108 447.493C499.649 447.312 500.115 446.948 500.433 446.478C501.079 445.529 501.243 444.341 501.372 443.207C501.484 442.057 501.515 440.899 501.567 439.74C501.653 437.429 501.869 435.078 502.562 432.855C502.906 431.76 502.861 430.577 502.468 429.527C502.07 428.461 501.273 427.598 500.465 426.784C498.865 425.164 497.026 423.513 496.344 421.211C495.941 420.101 495.889 418.903 495.938 417.741C496.022 416.578 496.283 415.428 496.487 414.301C496.674 413.166 496.748 412.002 496.568 410.869C496.391 409.742 495.867 408.648 494.959 407.939C494.068 407.212 492.926 406.865 491.795 406.664C491.226 406.562 490.65 406.497 490.075 406.424C489.512 406.331 488.886 406.323 488.419 405.958Z" fill="#CACBE8"/>
<path d="M519.669 462.705C517.829 462.449 515.991 462.18 514.166 461.814C513.254 461.634 512.351 461.398 511.461 461.12C510.592 460.806 509.673 460.481 509.013 459.759C508.825 459.6 508.759 459.341 508.652 459.125C508.633 458.88 508.568 458.627 508.653 458.392C508.686 458.144 508.787 457.927 508.901 457.716C508.993 457.491 509.146 457.309 509.282 457.116C509.537 456.719 509.917 456.408 510.185 456.048C510.493 455.727 510.59 455.269 510.656 454.835C510.723 453.934 510.511 453.022 510.268 452.137C510.019 451.249 509.708 450.375 509.398 449.5C508.791 447.747 508.16 445.99 507.731 444.173C507.296 442.365 507.058 440.472 507.336 438.611C507.474 437.681 507.784 436.785 508.198 435.945C508.649 435.123 509.213 434.363 509.895 433.72C511.248 432.416 512.949 431.563 514.673 430.895C512.965 431.606 511.292 432.501 509.991 433.82C509.327 434.462 508.779 435.211 508.344 436.021C507.946 436.848 507.649 437.727 507.522 438.64C507.266 440.467 507.514 442.33 507.96 444.118C508.399 445.915 509.044 447.656 509.664 449.407C509.967 450.285 510.272 451.165 510.517 452.068C510.754 452.968 510.968 453.899 510.889 454.859C510.816 455.326 510.703 455.83 510.355 456.192C510.062 456.573 509.704 456.855 509.451 457.241C509.319 457.426 509.168 457.602 509.083 457.81C508.973 458.008 508.878 458.211 508.848 458.43C508.766 458.644 508.829 458.859 508.838 459.075C508.938 459.264 508.982 459.491 509.157 459.639C509.754 460.308 510.657 460.651 511.512 460.964C512.391 461.248 513.287 461.487 514.194 461.679C516.005 462.089 517.837 462.403 519.669 462.705Z" fill="#CACBE8"/>
<path d="M516.442 420.991C514.091 421.708 511.561 421.688 509.155 421.224C506.752 420.732 504.412 419.798 502.427 418.325C501.443 417.584 500.554 416.697 499.885 415.649C499.235 414.597 498.827 413.362 498.863 412.109C498.898 410.857 499.326 409.642 499.97 408.585C500.614 407.552 501.052 406.418 501.271 405.224C501.733 402.835 501.517 400.37 501.44 397.926C501.401 396.701 501.386 395.467 501.531 394.24C501.681 393.019 502.024 391.79 502.714 390.75C503.394 389.704 504.415 388.914 505.536 388.403C506.661 387.893 507.862 387.575 509.077 387.392C511.511 387.028 513.978 387.095 516.419 387.249C513.976 387.14 511.51 387.121 509.099 387.529C507.895 387.722 506.708 388.042 505.607 388.551C504.509 389.061 503.525 389.836 502.872 390.853C502.21 391.865 501.882 393.062 501.742 394.264C501.607 395.473 501.629 396.696 501.676 397.917C501.767 400.353 502.006 402.83 501.548 405.277C501.319 406.493 500.852 407.676 500.191 408.719C499.557 409.744 499.14 410.912 499.098 412.114C499.056 413.317 499.439 414.509 500.064 415.537C500.708 416.561 501.574 417.437 502.539 418.174C504.485 419.64 506.801 420.58 509.181 421.088C511.562 421.594 514.078 421.664 516.442 420.991Z" fill="#CACBE8"/>
<path d="M449.535 345.25C449.672 346.071 449.899 346.881 450.249 347.633C450.597 348.365 451.119 349.111 451.91 349.332C452.702 349.549 453.517 349.154 454.164 348.677C454.822 348.182 455.401 347.582 455.927 346.942C456.993 345.68 457.826 344.201 459.038 343.021C460.213 341.82 461.598 340.833 463.06 340.019C464.523 339.202 466.069 338.56 467.492 337.714C468.918 336.891 470.168 335.704 470.76 334.15C471.351 332.605 471.441 330.911 471.341 329.259C471.258 327.599 470.994 325.949 470.668 324.315C471.038 325.94 471.349 327.583 471.479 329.251C471.599 330.913 471.526 332.627 470.935 334.219C470.344 335.823 469.053 337.071 467.614 337.917C466.176 338.789 464.638 339.446 463.197 340.267C461.742 341.059 460.373 342.016 459.204 343.188C458.002 344.333 457.166 345.789 456.07 347.064C455.532 347.705 454.94 348.309 454.26 348.81C453.594 349.289 452.733 349.712 451.871 349.465C451.021 349.196 450.519 348.408 450.185 347.662C449.854 346.892 449.649 346.075 449.535 345.25Z" fill="#CACBE8"/>
<path d="M490.112 322.61C489.446 324.418 488.824 326.248 488.41 328.126C488.219 329.064 488.035 330.016 488.067 330.971C488.093 331.908 488.303 332.909 488.998 333.553C489.695 334.185 490.681 334.383 491.622 334.388C492.117 334.418 492.648 334.582 493.001 334.941C493.387 335.259 493.681 335.658 493.962 336.056C495.023 337.696 495.74 339.498 496.567 341.234C497.375 342.973 498.203 344.733 499.421 346.204C500.028 346.93 500.751 347.586 501.626 347.941C502.497 348.313 503.495 348.283 504.389 347.985C504.621 347.933 504.84 347.842 505.053 347.734C505.267 347.63 505.489 347.543 505.696 347.425C506.091 347.157 506.524 346.944 506.888 346.63C507.656 346.056 508.354 345.393 509.028 344.709C510.39 343.347 511.553 341.804 512.719 340.27C511.591 341.831 510.464 343.404 509.128 344.805C508.458 345.501 507.759 346.173 506.987 346.761C506.621 347.081 506.182 347.303 505.783 347.579C505.573 347.701 505.345 347.793 505.127 347.901C504.91 348.014 504.685 348.109 504.445 348.165C503.526 348.48 502.469 348.523 501.548 348.138C500.622 347.771 499.869 347.094 499.241 346.356C497.982 344.858 497.135 343.091 496.311 341.352C495.497 339.605 494.791 337.798 493.767 336.186C493.253 335.418 492.569 334.609 491.621 334.598C490.657 334.584 489.618 334.376 488.871 333.688C488.127 332.984 487.924 331.928 487.905 330.973C487.882 329.995 488.072 329.037 488.277 328.094C488.737 326.216 489.404 324.402 490.112 322.61Z" fill="#CACBE8"/>
<path d="M512.719 348.321C511.048 349.348 509.295 350.237 507.527 351.085C505.768 351.94 503.933 352.684 502.334 353.794C501.57 354.347 500.811 355.113 500.845 356.078C500.883 357.025 501.499 357.856 502.122 358.576C502.449 358.929 502.792 359.278 503.11 359.68C503.258 359.883 503.37 360.111 503.501 360.325C503.613 360.549 503.692 360.789 503.788 361.02C504.105 361.973 504.193 362.974 504.205 363.961C504.189 367.92 502.931 371.742 503.085 375.65C503.161 376.606 503.353 377.606 503.96 378.357C504.554 379.12 505.513 379.493 506.468 379.595C508.411 379.796 510.361 379.298 512.229 378.746C510.372 379.341 508.44 379.888 506.452 379.732C505.477 379.64 504.465 379.259 503.83 378.458C503.184 377.668 502.982 376.637 502.896 375.663C502.712 371.697 503.939 367.862 503.921 363.961C503.918 362.993 503.838 362.016 503.541 361.101C503.45 360.88 503.377 360.65 503.273 360.436C503.15 360.233 503.046 360.015 502.908 359.823C502.62 359.453 502.28 359.098 501.944 358.73C501.317 357.987 500.672 357.131 500.633 356.08C500.611 354.998 501.445 354.196 502.224 353.64C503.865 352.523 505.699 351.796 507.469 350.958C509.255 350.154 511.024 349.308 512.719 348.321Z" fill="#CACBE8"/>
<path d="M479.565 324.071C479.359 327.569 479.999 331.135 481.516 334.285C482.263 335.867 483.312 337.299 484.562 338.512C485.791 339.755 487.311 340.658 488.758 341.651C490.209 342.64 491.662 343.631 493.034 344.736C494.393 345.842 495.707 347.089 496.536 348.679C497.409 350.263 497.397 352.191 496.939 353.886C496.698 354.743 496.361 355.561 496.092 356.385C495.817 357.213 495.594 358.06 495.386 358.909C494.573 362.309 494.12 365.811 494.204 369.308C494.303 372.772 494.96 376.377 497.009 379.234C498.026 380.649 499.426 381.777 501.018 382.486C502.617 383.194 504.372 383.473 506.113 383.534C509.618 383.626 513.096 382.841 516.423 381.749C513.11 382.884 509.641 383.718 506.109 383.673C504.354 383.624 502.579 383.347 500.951 382.636C499.33 381.924 497.897 380.78 496.857 379.345C494.759 376.446 494.084 372.804 493.967 369.314C493.868 365.79 494.306 362.267 495.111 358.841C495.324 357.987 495.553 357.135 495.834 356.299C496.114 355.457 496.451 354.648 496.688 353.817C497.141 352.159 497.16 350.318 496.325 348.783C495.531 347.241 494.245 346.002 492.9 344.898C491.542 343.794 490.097 342.798 488.652 341.804C487.217 340.809 485.689 339.893 484.447 338.627C483.19 337.394 482.133 335.943 481.392 334.343C479.904 331.15 479.314 327.568 479.565 324.071Z" fill="#CACBE8"/>
<path d="M516.423 394C515.133 394.47 513.778 394.733 512.463 395.105C511.801 395.276 511.152 395.491 510.531 395.762C509.918 396.037 509.332 396.428 508.993 396.99C508.662 397.551 508.631 398.261 508.854 398.893C509.031 399.528 509.443 400.109 509.587 400.817C509.861 402.209 509.59 403.606 509.307 404.943C509.003 406.285 508.612 407.6 508.384 408.942C508.276 409.611 508.204 410.292 508.274 410.958C508.34 411.619 508.594 412.272 509.103 412.699C509.607 413.132 510.283 413.315 510.946 413.407C511.616 413.508 512.303 413.471 512.981 413.425C514.343 413.323 515.691 413.054 517.027 412.75C515.702 413.098 514.363 413.414 512.993 413.563C512.308 413.622 511.615 413.665 510.925 413.57C510.244 413.483 509.534 413.305 508.981 412.843C508.422 412.386 508.138 411.673 508.063 410.982C507.982 410.284 508.049 409.586 508.151 408.904C508.367 407.539 508.743 406.215 509.031 404.881C509.329 403.559 509.603 402.187 509.357 400.867C509.241 400.219 508.838 399.634 508.651 398.951C508.425 398.291 508.46 397.503 508.832 396.894C509.212 396.284 509.834 395.889 510.463 395.614C511.101 395.345 511.759 395.133 512.428 394.973C513.763 394.643 515.118 394.426 516.423 394Z" fill="#CACBE8"/>
<path d="M494.874 452.669C497.212 453.125 499.588 452.782 501.955 453.228C502.524 453.363 503.166 453.673 503.38 454.299C503.513 454.599 503.478 454.911 503.487 455.221C503.421 455.515 503.396 455.826 503.294 456.108C503.11 456.69 502.874 457.219 502.815 457.789C502.745 458.359 502.818 458.941 502.948 459.504C503.494 461.781 504.882 463.767 506.022 465.829C506.6 466.861 507.163 467.92 507.483 469.075C507.626 469.654 507.693 470.265 507.581 470.855C507.472 471.447 507.152 471.982 506.727 472.392C507.137 471.966 507.43 471.425 507.513 470.843C507.6 470.262 507.512 469.671 507.35 469.111C507.019 467.985 506.45 466.942 505.86 465.922C504.699 463.878 503.274 461.92 502.674 459.566C502.546 458.979 502.477 458.365 502.56 457.758C502.633 457.145 502.893 456.582 503.071 456.04C503.174 455.766 503.198 455.479 503.267 455.198C503.26 454.918 503.297 454.626 503.184 454.372C503.013 453.838 502.461 453.551 501.911 453.41C500.779 453.14 499.579 453.163 498.401 453.095C497.217 453.026 496.031 452.922 494.874 452.669Z" fill="#CACBE8"/>
<path d="M445.776 464.25C447.319 463.904 448.888 463.678 450.42 463.304C451.93 462.933 453.509 462.436 454.591 461.31C455.138 460.75 455.402 460 455.533 459.245C455.531 458.86 455.566 458.47 455.516 458.086C455.439 457.705 455.406 457.315 455.294 456.941C455.07 456.197 454.79 455.459 454.557 454.69C454.331 453.925 454.167 453.145 454.04 452.361C453.79 450.791 453.687 449.209 453.552 447.636C453.406 446.07 453.302 444.473 452.769 443.003C452.508 442.277 452.034 441.599 451.321 441.305C450.604 441.021 449.789 441.151 449.047 441.363C447.545 441.825 446.167 442.641 444.846 443.5C446.143 442.602 447.493 441.746 449.007 441.23C449.76 441.004 450.603 440.855 451.382 441.152C452.159 441.462 452.671 442.191 452.945 442.934C453.508 444.444 453.624 446.047 453.787 447.615C453.937 449.189 454.058 450.765 454.318 452.317C454.436 453.094 454.59 453.866 454.805 454.619C455.022 455.366 455.297 456.109 455.521 456.882C455.632 457.265 455.664 457.671 455.738 458.064C455.785 458.461 455.747 458.87 455.742 459.271C455.6 460.064 455.308 460.857 454.728 461.439C453.58 462.605 451.974 463.084 450.45 463.44C448.9 463.769 447.328 463.948 445.776 464.25Z" fill="#CACBE8"/>
</g>
<path d="M474.055 244.917C474.864 245.744 476.206 246.856 478.123 247.457C483.429 249.12 488.142 245.301 488.6 244.917C488.6 236.144 488.6 227.37 488.6 218.596H474.054V244.917H474.055Z" fill="#E2B9A0"/>
<path d="M476.826 234.527H474.055V236.755L476.826 234.527Z" fill="#002E5C"/>
<path d="M466.436 226.043C466.436 230.807 470.284 234.527 475.031 234.527H480.006C484.753 234.527 488.601 230.808 488.601 226.043V209.232C488.601 204.468 484.753 200.587 480.006 200.587H475.031C470.284 200.587 466.436 204.467 466.436 209.232V226.043Z" fill="#E2B9A0"/>
<path d="M465.044 212.625L483.547 213.125C483.547 213.125 485.794 219.125 488.294 219.125C490.794 219.125 493.669 215.334 494.294 207.355C494.919 199.375 483.547 199 483.547 199C479.388 192 460.367 197.75 465.044 212.625Z" fill="#002E5C"/>
<path d="M486.782 222.25C486.782 224.281 488.482 225.928 490.579 225.928C492.676 225.928 494.376 224.281 494.376 222.25C494.376 220.219 492.676 218.572 490.579 218.572C488.482 218.572 486.782 220.219 486.782 222.25Z" fill="#E2B9A0"/>
<path d="M477.448 217.355C477.448 218.027 477.744 218.572 478.109 218.572C478.474 218.572 478.77 218.027 478.77 217.355C478.77 216.683 478.474 216.138 478.109 216.138C477.744 216.139 477.448 216.684 477.448 217.355Z" fill="#002E5C"/>
<path d="M467.418 218.572C467.783 218.572 468.079 218.027 468.079 217.355C468.079 216.683 467.783 216.138 467.418 216.138C467.053 216.138 466.757 216.683 466.757 217.355C466.757 218.027 467.053 218.572 467.418 218.572Z" fill="#002E5C"/>
<path d="M471.772 218.785C471.729 219.427 471.64 220.066 471.488 220.696C471.415 221.012 471.314 221.322 471.185 221.627C471.118 221.779 471.043 221.93 470.938 222.074C470.834 222.204 470.688 222.386 470.435 222.378C470.172 222.334 470.123 222.258 469.971 222.256C469.844 222.253 469.725 222.292 469.636 222.38C469.467 222.572 469.443 222.888 469.52 223.175C469.678 223.762 470.132 224.256 470.614 224.667C470.076 224.334 469.539 223.892 469.316 223.235C469.201 222.92 469.194 222.515 469.449 222.206C469.585 222.059 469.788 221.986 469.98 221.989C470.157 221.981 470.388 222.108 470.443 222.098C470.623 222.103 470.828 221.785 470.947 221.521C471.08 221.241 471.172 220.938 471.273 220.637C471.46 220.03 471.622 219.409 471.772 218.785Z" fill="#002E5C"/>
<path d="M480.03 216.508C479.84 216.385 479.644 216.287 479.452 216.201C479.257 216.12 479.062 216.047 478.858 216.025C478.454 215.935 478.046 216.026 477.606 216.139C477.775 215.991 477.971 215.855 478.2 215.794C478.424 215.718 478.67 215.717 478.905 215.746C479.372 215.839 479.801 216.107 480.03 216.508Z" fill="#002E5C"/>
<path d="M468.947 216.508C468.757 216.385 468.561 216.287 468.369 216.201C468.174 216.12 467.979 216.047 467.775 216.025C467.371 215.935 466.963 216.026 466.523 216.139C466.692 215.991 466.888 215.855 467.117 215.794C467.341 215.718 467.587 215.717 467.822 215.746C468.289 215.839 468.719 216.107 468.947 216.508Z" fill="#002E5C"/>
<path d="M476.74 225.928C476.74 225.928 475.052 228.152 472.281 226.849L476.74 225.928Z" fill="white"/>
<path d="M490.91 224.589C491.416 224.145 491.442 223.4 491.146 222.875C490.862 222.335 490.296 221.96 489.692 221.949C489.615 221.948 489.554 221.884 489.555 221.808L489.558 221.782C489.69 221.119 490.08 220.452 490.717 220.153C491.327 219.848 492.104 219.846 492.64 220.244C492.055 219.944 491.349 220.044 490.82 220.346C490.558 220.507 490.321 220.712 490.16 220.975C489.995 221.234 489.897 221.53 489.835 221.834L489.701 221.667C490.403 221.701 491.063 222.147 491.339 222.781C491.477 223.094 491.532 223.449 491.463 223.784C491.391 224.12 491.179 224.407 490.91 224.589Z" fill="#002E5C"/>
<path d="M479.388 224.589C480.459 224.589 481.328 224.023 481.328 223.324C481.328 222.625 480.459 222.059 479.388 222.059C478.317 222.059 477.448 222.625 477.448 223.324C477.448 224.023 478.317 224.589 479.388 224.589Z" fill="#E29EA0"/>
<mask id="mask2_581_2089" style="mask-type:luminance" maskUnits="userSpaceOnUse" x="466" y="200" width="23" height="35">
<path d="M466.436 226.043C466.436 230.807 470.284 234.527 475.031 234.527H480.006C484.753 234.527 488.601 230.808 488.601 226.043V209.232C488.601 204.468 484.753 200.587 480.006 200.587H475.031C470.284 200.587 466.436 204.467 466.436 209.232V226.043Z" fill="white"/>
</mask>
<g mask="url(#mask2_581_2089)">
<path d="M466.757 224.589C467.828 224.589 468.697 224.023 468.697 223.324C468.697 222.625 467.828 222.059 466.757 222.059C465.686 222.059 464.817 222.625 464.817 223.324C464.817 224.023 465.686 224.589 466.757 224.589Z" fill="#E29EA0"/>
</g>
<path d="M507.49 321.384C503.422 322.928 499.222 324.115 494.977 325.073C490.729 326.021 486.425 326.737 482.084 327.121C477.738 327.432 473.368 327.419 469.033 326.958C464.709 326.404 460.455 325.323 456.465 323.572C460.499 325.221 464.746 326.229 469.055 326.771C473.379 327.199 477.733 327.178 482.062 326.839C486.391 326.487 490.69 325.805 494.937 324.889C497.062 324.435 499.171 323.907 501.263 323.316C503.36 322.748 505.442 322.115 507.49 321.384Z" fill="#002E5C"/>
<path d="M480.488 341.771C478.56 341.384 476.66 340.892 474.758 340.407C472.864 339.891 470.968 339.384 469.101 338.77C471.029 339.156 472.929 339.649 474.831 340.134C476.724 340.65 478.62 341.158 480.488 341.771Z" fill="#CACBE8"/>
<path d="M485.589 252.565C499.283 250.537 501.485 266.029 501.485 266.029L490.113 281.845C484.973 278.329 479.147 275.737 473.576 273.123L485.589 252.565Z" fill="#CACBE8"/>
<path d="M428.57 287.904L461.553 293.698L473.576 273.122C479.147 275.735 484.973 278.328 490.113 281.844L474.469 303.984C471.401 308.326 465.945 310.287 460.814 308.892L426.715 299.083L428.57 287.904Z" fill="#E2B9A0"/>
<path d="M458.414 293.095C459.823 293.203 461.215 293.418 462.608 293.624C463.996 293.863 465.385 294.093 466.757 294.433C465.348 294.326 463.956 294.111 462.563 293.904C461.175 293.665 459.786 293.434 458.414 293.095Z" fill="#002E5C"/>
<path d="M481.579 257.299C480.349 259.989 479.023 262.63 477.704 265.275C476.356 267.905 475.015 270.539 473.576 273.123C474.805 270.433 476.132 267.792 477.451 265.147C478.8 262.517 480.141 259.883 481.579 257.299Z" fill="#002E5C"/>
<path d="M502.591 263.94C500.607 266.991 498.534 269.98 496.468 272.973C494.375 275.948 492.289 278.927 490.112 281.844C492.095 278.793 494.169 275.804 496.235 272.811C498.329 269.836 500.416 266.857 502.591 263.94Z" fill="#002E5C"/>
<path d="M475.642 269.587C477.23 269.811 478.752 270.38 480.209 271.044C481.667 271.719 483.042 272.558 484.369 273.458C485.689 274.372 486.927 275.396 488.117 276.469C488.709 277.009 489.266 277.585 489.841 278.142L491.454 279.919C490.323 278.787 489.175 277.678 487.972 276.631C486.759 275.598 485.531 274.578 484.208 273.69C482.904 272.778 481.54 271.95 480.115 271.239C478.686 270.548 477.208 269.913 475.642 269.587Z" fill="#002E5C"/>
<path d="M431.299 299.649C425.865 300.746 418.867 299.554 418.992 292.109C419.117 284.663 428.572 285.763 434.002 289.455" fill="#E2B9A0"/>
<path d="M425.814 287.016C418.796 286.387 414.032 286.315 413.421 287.321C412.81 288.327 420.235 289.796 420.235 289.796" fill="#E2B9A0"/>
<path d="M431.838 288.361C428.637 285.847 423.822 283.013 421.423 287.28L431.838 288.361Z" fill="#E2B9A0"/>
<path d="M426.088 287.115C425.227 287.155 424.375 287.086 423.522 287.026C422.672 286.933 421.822 286.849 420.982 286.655C421.844 286.614 422.695 286.683 423.548 286.744C424.397 286.838 425.247 286.922 426.088 287.115Z" fill="#002E5C"/>
<path d="M421.492 290.13C421.127 290.161 420.788 290.087 420.447 290.021C420.114 289.923 419.779 289.833 419.47 289.636C419.835 289.604 420.174 289.679 420.515 289.745C420.848 289.844 421.183 289.934 421.492 290.13Z" fill="#002E5C"/>
<path d="M421.073 293.662C420.687 293.707 420.321 293.604 419.966 293.492C419.795 293.416 419.621 293.349 419.461 293.251C419.298 293.159 419.148 293.042 419.009 292.912C419.388 292.977 419.719 293.116 420.064 293.226C420.399 293.366 420.737 293.479 421.073 293.662Z" fill="#002E5C"/>
<path d="M421.677 296.891C421.298 296.939 420.934 296.855 420.579 296.742C420.246 296.601 419.866 296.414 419.711 296.048C419.865 296.156 420.029 296.22 420.187 296.29C420.348 296.356 420.507 296.426 420.677 296.476C421.003 296.614 421.344 296.71 421.677 296.891Z" fill="#002E5C"/>
<path d="M73.145 477.647L130.46 477.44L187.775 477.365L302.406 477.222L417.036 477.364L474.352 477.438L531.667 477.647L474.352 477.854L417.036 477.929L302.406 478.071L187.775 477.928L130.46 477.853L73.145 477.647Z" fill="#002E5C"/>
<path d="M170.044 168.351C170.156 169.37 170.129 170.391 170.076 171.411C170.027 171.92 169.981 172.43 169.89 172.934C169.794 173.435 169.675 173.948 169.422 174.397C169.577 173.91 169.616 173.405 169.674 172.904C169.719 172.4 169.767 171.897 169.793 171.391C169.879 170.38 169.923 169.367 170.044 168.351Z" fill="#002E5C"/>
<path d="M173.919 168.875C173.887 169.729 173.747 170.565 173.616 171.401C173.453 172.232 173.298 173.065 173.034 173.878C173.065 173.024 173.205 172.188 173.337 171.352C173.501 170.521 173.657 169.689 173.919 168.875Z" fill="#002E5C"/>
<path d="M177.25 167.625C177.396 168.559 177.425 169.498 177.449 170.437C177.436 171.375 177.437 172.321 177.25 173.25C177.171 171.372 177.106 169.507 177.25 167.625Z" fill="#002E5C"/>
<path d="M116.625 208.32C116.444 208.522 116.349 208.79 116.408 209.046C116.46 209.301 116.594 209.534 116.734 209.761C117.007 210.217 117.305 210.687 117.444 211.233C117.604 211.778 117.489 212.378 117.26 212.881C117.039 213.364 116.86 213.866 116.723 214.376C116.424 215.392 116.339 216.468 116.512 217.509C116.699 218.549 117.199 219.525 117.92 220.326C117.536 219.951 117.17 219.545 116.893 219.074C116.625 218.6 116.421 218.087 116.298 217.552C116.071 216.475 116.163 215.352 116.45 214.301C116.679 213.226 117.5 212.317 117.232 211.281C117.13 210.773 116.866 210.305 116.613 209.828C116.493 209.588 116.372 209.333 116.34 209.056C116.3 208.776 116.429 208.503 116.625 208.32Z" fill="#002E5C"/>
</g>
<path d="M219.734 561.5V538.594H236.719V542.469H224.359V547.547H235.859V551.406H224.359V557.641H237.156V561.5H219.734ZM244.328 549.969L240.344 549.25C240.792 547.646 241.562 546.458 242.656 545.688C243.75 544.917 245.375 544.531 247.531 544.531C249.49 544.531 250.948 544.766 251.906 545.234C252.865 545.693 253.536 546.281 253.922 547C254.318 547.708 254.516 549.016 254.516 550.922L254.469 556.047C254.469 557.505 254.536 558.583 254.672 559.281C254.818 559.969 255.083 560.708 255.469 561.5H251.125C251.01 561.208 250.87 560.776 250.703 560.203C250.63 559.943 250.578 559.771 250.547 559.688C249.797 560.417 248.995 560.964 248.141 561.328C247.286 561.693 246.375 561.875 245.406 561.875C243.698 561.875 242.349 561.411 241.359 560.484C240.38 559.557 239.891 558.385 239.891 556.969C239.891 556.031 240.115 555.198 240.562 554.469C241.01 553.729 241.635 553.167 242.438 552.781C243.25 552.385 244.417 552.042 245.938 551.75C247.99 551.365 249.411 551.005 250.203 550.672V550.234C250.203 549.391 249.995 548.792 249.578 548.438C249.161 548.073 248.375 547.891 247.219 547.891C246.438 547.891 245.828 548.047 245.391 548.359C244.953 548.661 244.599 549.198 244.328 549.969ZM250.203 553.531C249.641 553.719 248.75 553.943 247.531 554.203C246.312 554.464 245.516 554.719 245.141 554.969C244.568 555.375 244.281 555.891 244.281 556.516C244.281 557.13 244.51 557.661 244.969 558.109C245.427 558.557 246.01 558.781 246.719 558.781C247.51 558.781 248.266 558.521 248.984 558C249.516 557.604 249.865 557.12 250.031 556.547C250.146 556.172 250.203 555.458 250.203 554.406V553.531ZM257.312 556.766L261.719 556.094C261.906 556.948 262.286 557.599 262.859 558.047C263.432 558.484 264.234 558.703 265.266 558.703C266.401 558.703 267.255 558.495 267.828 558.078C268.214 557.786 268.406 557.396 268.406 556.906C268.406 556.573 268.302 556.297 268.094 556.078C267.875 555.87 267.385 555.677 266.625 555.5C263.083 554.719 260.839 554.005 259.891 553.359C258.578 552.464 257.922 551.219 257.922 549.625C257.922 548.188 258.49 546.979 259.625 546C260.76 545.021 262.521 544.531 264.906 544.531C267.177 544.531 268.865 544.901 269.969 545.641C271.073 546.38 271.833 547.474 272.25 548.922L268.109 549.688C267.932 549.042 267.594 548.547 267.094 548.203C266.604 547.859 265.901 547.688 264.984 547.688C263.828 547.688 263 547.849 262.5 548.172C262.167 548.401 262 548.698 262 549.062C262 549.375 262.146 549.641 262.438 549.859C262.833 550.151 264.198 550.562 266.531 551.094C268.875 551.625 270.51 552.276 271.438 553.047C272.354 553.828 272.812 554.917 272.812 556.312C272.812 557.833 272.177 559.141 270.906 560.234C269.635 561.328 267.755 561.875 265.266 561.875C263.005 561.875 261.214 561.417 259.891 560.5C258.578 559.583 257.719 558.339 257.312 556.766ZM274.594 544.906H279.266L283.234 556.688L287.109 544.906H291.656L285.797 560.875L284.75 563.766C284.365 564.734 283.995 565.474 283.641 565.984C283.297 566.495 282.896 566.906 282.438 567.219C281.99 567.542 281.432 567.792 280.766 567.969C280.109 568.146 279.365 568.234 278.531 568.234C277.688 568.234 276.859 568.146 276.047 567.969L275.656 564.531C276.344 564.667 276.964 564.734 277.516 564.734C278.536 564.734 279.292 564.432 279.781 563.828C280.271 563.234 280.646 562.474 280.906 561.547L274.594 544.906ZM301.844 556.766L306.25 556.094C306.438 556.948 306.818 557.599 307.391 558.047C307.964 558.484 308.766 558.703 309.797 558.703C310.932 558.703 311.786 558.495 312.359 558.078C312.745 557.786 312.938 557.396 312.938 556.906C312.938 556.573 312.833 556.297 312.625 556.078C312.406 555.87 311.917 555.677 311.156 555.5C307.615 554.719 305.37 554.005 304.422 553.359C303.109 552.464 302.453 551.219 302.453 549.625C302.453 548.188 303.021 546.979 304.156 546C305.292 545.021 307.052 544.531 309.438 544.531C311.708 544.531 313.396 544.901 314.5 545.641C315.604 546.38 316.365 547.474 316.781 548.922L312.641 549.688C312.464 549.042 312.125 548.547 311.625 548.203C311.135 547.859 310.432 547.688 309.516 547.688C308.359 547.688 307.531 547.849 307.031 548.172C306.698 548.401 306.531 548.698 306.531 549.062C306.531 549.375 306.677 549.641 306.969 549.859C307.365 550.151 308.729 550.562 311.062 551.094C313.406 551.625 315.042 552.276 315.969 553.047C316.885 553.828 317.344 554.917 317.344 556.312C317.344 557.833 316.708 559.141 315.438 560.234C314.167 561.328 312.286 561.875 309.797 561.875C307.536 561.875 305.745 561.417 304.422 560.5C303.109 559.583 302.25 558.339 301.844 556.766ZM325.578 538.594V547.016C326.995 545.359 328.688 544.531 330.656 544.531C331.667 544.531 332.578 544.719 333.391 545.094C334.203 545.469 334.812 545.948 335.219 546.531C335.635 547.115 335.917 547.76 336.062 548.469C336.219 549.177 336.297 550.276 336.297 551.766V561.5H331.906V552.734C331.906 550.995 331.823 549.891 331.656 549.422C331.49 548.953 331.193 548.583 330.766 548.312C330.349 548.031 329.823 547.891 329.188 547.891C328.458 547.891 327.807 548.068 327.234 548.422C326.661 548.776 326.24 549.312 325.969 550.031C325.708 550.74 325.578 551.792 325.578 553.188V561.5H321.188V538.594H325.578ZM344.047 549.969L340.062 549.25C340.51 547.646 341.281 546.458 342.375 545.688C343.469 544.917 345.094 544.531 347.25 544.531C349.208 544.531 350.667 544.766 351.625 545.234C352.583 545.693 353.255 546.281 353.641 547C354.036 547.708 354.234 549.016 354.234 550.922L354.188 556.047C354.188 557.505 354.255 558.583 354.391 559.281C354.536 559.969 354.802 560.708 355.188 561.5H350.844C350.729 561.208 350.589 560.776 350.422 560.203C350.349 559.943 350.297 559.771 350.266 559.688C349.516 560.417 348.714 560.964 347.859 561.328C347.005 561.693 346.094 561.875 345.125 561.875C343.417 561.875 342.068 561.411 341.078 560.484C340.099 559.557 339.609 558.385 339.609 556.969C339.609 556.031 339.833 555.198 340.281 554.469C340.729 553.729 341.354 553.167 342.156 552.781C342.969 552.385 344.135 552.042 345.656 551.75C347.708 551.365 349.13 551.005 349.922 550.672V550.234C349.922 549.391 349.714 548.792 349.297 548.438C348.88 548.073 348.094 547.891 346.938 547.891C346.156 547.891 345.547 548.047 345.109 548.359C344.672 548.661 344.318 549.198 344.047 549.969ZM349.922 553.531C349.359 553.719 348.469 553.943 347.25 554.203C346.031 554.464 345.234 554.719 344.859 554.969C344.286 555.375 344 555.891 344 556.516C344 557.13 344.229 557.661 344.688 558.109C345.146 558.557 345.729 558.781 346.438 558.781C347.229 558.781 347.984 558.521 348.703 558C349.234 557.604 349.583 557.12 349.75 556.547C349.865 556.172 349.922 555.458 349.922 554.406V553.531ZM362.781 561.5H358.391V544.906H362.469V547.266C363.167 546.151 363.792 545.417 364.344 545.062C364.906 544.708 365.542 544.531 366.25 544.531C367.25 544.531 368.214 544.807 369.141 545.359L367.781 549.188C367.042 548.708 366.354 548.469 365.719 548.469C365.104 548.469 364.583 548.641 364.156 548.984C363.729 549.318 363.391 549.927 363.141 550.812C362.901 551.698 362.781 553.552 362.781 556.375V561.5ZM380.656 556.219L385.031 556.953C384.469 558.557 383.578 559.781 382.359 560.625C381.151 561.458 379.635 561.875 377.812 561.875C374.927 561.875 372.792 560.932 371.406 559.047C370.312 557.536 369.766 555.63 369.766 553.328C369.766 550.578 370.484 548.427 371.922 546.875C373.359 545.312 375.177 544.531 377.375 544.531C379.844 544.531 381.792 545.349 383.219 546.984C384.646 548.609 385.328 551.104 385.266 554.469H374.266C374.297 555.771 374.651 556.786 375.328 557.516C376.005 558.234 376.849 558.594 377.859 558.594C378.547 558.594 379.125 558.406 379.594 558.031C380.062 557.656 380.417 557.052 380.656 556.219ZM380.906 551.781C380.875 550.51 380.547 549.547 379.922 548.891C379.297 548.224 378.536 547.891 377.641 547.891C376.682 547.891 375.891 548.24 375.266 548.938C374.641 549.635 374.333 550.583 374.344 551.781H380.906Z" fill="#0F0F83"/>
<defs>
<clipPath id="clip0_581_2089">
<rect width="500" height="500" fill="white" transform="translate(48 21.5)"/>
</clipPath>
</defs>
</svg>
