<svg width="33" height="36" viewBox="0 0 33 36" fill="none" xmlns="http://www.w3.org/2000/svg">
<path d="M27.6563 9.31274C27.5487 8.979 27.3509 8.68153 27.0847 8.45326C26.8185 8.22499 26.4944 8.07482 26.1482 8.01937L20.7149 7.13638L18.1962 2.24198C18.0358 1.93039 17.7926 1.66902 17.4934 1.48654C17.1942 1.30406 16.8505 1.20752 16.5001 1.20752C16.1496 1.20752 15.8059 1.30406 15.5067 1.48654C15.2075 1.66902 14.9643 1.93039 14.8039 2.24198L12.2852 7.13638L6.85206 8.01937C6.50615 8.07567 6.18244 8.22616 5.91644 8.45433C5.65043 8.6825 5.45241 8.97953 5.34411 9.31284C5.23581 9.64614 5.22141 10.0028 5.30249 10.3438C5.38357 10.6847 5.557 10.9968 5.80375 11.2456L9.68031 15.1535L8.84125 20.5936C8.78741 20.9401 8.83017 21.2947 8.96483 21.6185C9.09949 21.9422 9.32084 22.2226 9.60452 22.4287C9.8882 22.6348 10.2232 22.7587 10.5728 22.7867C10.9223 22.8147 11.2728 22.7458 11.5857 22.5876L16.5001 20.1083L21.4146 22.5876C21.7275 22.7455 22.0779 22.8142 22.4273 22.786C22.7767 22.7578 23.1116 22.6339 23.3952 22.4279C23.6787 22.2219 23.9001 21.9417 24.0348 21.6181C24.1696 21.2945 24.2125 20.94 24.159 20.5936L23.32 15.1535L27.1965 11.2456C27.444 10.9972 27.618 10.6852 27.6991 10.3441C27.7803 10.0029 27.7655 9.64598 27.6563 9.31274ZM26.1315 10.1893L21.7219 14.6344L22.6765 20.8224C22.6883 20.8965 22.6794 20.9724 22.6507 21.0418C22.6221 21.1111 22.5747 21.1712 22.514 21.2153C22.4533 21.2594 22.3816 21.2858 22.3068 21.2917C22.2319 21.2975 22.157 21.2825 22.0901 21.2484L16.5001 18.4283L10.9099 21.2485C10.8431 21.2826 10.7681 21.2976 10.6933 21.2918C10.6185 21.2859 10.5468 21.2595 10.486 21.2154C10.4253 21.1713 10.378 21.1112 10.3493 21.0419C10.3207 20.9725 10.3117 20.8966 10.3236 20.8225L11.2782 14.6344L6.8687 10.1893C6.81604 10.1361 6.77904 10.0694 6.76175 9.99656C6.74447 9.92373 6.74756 9.84755 6.77069 9.77636C6.79382 9.70517 6.83609 9.64172 6.89289 9.59295C6.94968 9.54419 7.0188 9.512 7.09267 9.49991L13.2727 8.49557L16.1377 2.92837C16.1719 2.86177 16.2239 2.80591 16.2878 2.7669C16.3517 2.7279 16.4252 2.70726 16.5001 2.70726C16.5749 2.70726 16.6484 2.7279 16.7123 2.7669C16.7762 2.80591 16.8282 2.86177 16.8625 2.92837L19.7274 8.49557L25.9075 9.49991C25.9813 9.512 26.0504 9.54419 26.1072 9.59295C26.164 9.64172 26.2063 9.70517 26.2294 9.77636C26.2526 9.84755 26.2557 9.92373 26.2384 9.99656C26.2211 10.0694 26.1841 10.1361 26.1314 10.1893L26.1315 10.1893Z" fill="#1919DF"/>
<path d="M0.326172 34V25.4102H5.07812V26.4238H1.25781V29.084H4.5625V30.0977H1.25781V34H0.326172ZM9.23266 33.2324C8.94359 33.5332 8.64281 33.7598 8.33031 33.9121C8.01781 34.0645 7.69359 34.1406 7.35766 34.1406C6.82641 34.1406 6.40258 33.9805 6.08617 33.6602C5.76977 33.3398 5.61156 32.9082 5.61156 32.3652C5.61156 32.0059 5.68578 31.6875 5.83422 31.4102C5.98266 31.1328 6.18578 30.916 6.44359 30.7598C6.70141 30.6035 7.09203 30.4883 7.61547 30.4141C8.31859 30.3125 8.83422 30.1914 9.16234 30.0508L9.1682 29.7812C9.1682 29.3555 9.09203 29.0566 8.93969 28.8848C8.72484 28.6348 8.39477 28.5098 7.94945 28.5098C7.54711 28.5098 7.24633 28.5938 7.04711 28.7617C6.84789 28.9258 6.70141 29.2363 6.60766 29.6934L5.75805 29.5527C5.87914 28.8848 6.12328 28.3984 6.49047 28.0938C6.86156 27.7891 7.39086 27.6367 8.07836 27.6367C8.61352 27.6367 9.03344 27.7383 9.33813 27.9414C9.64281 28.1406 9.83422 28.3887 9.91234 28.6855C9.99438 28.9824 10.0354 29.416 10.0354 29.9863V31.3926C10.0354 32.377 10.053 32.998 10.0881 33.2559C10.1272 33.5098 10.2014 33.7578 10.3108 34H9.40844C9.31859 33.7852 9.26 33.5293 9.23266 33.2324ZM9.16234 30.877C8.84594 31.0332 8.37523 31.166 7.75023 31.2754C7.38695 31.3379 7.13305 31.4102 6.98852 31.4922C6.84398 31.5703 6.7307 31.6836 6.64867 31.832C6.57055 31.9766 6.53148 32.1445 6.53148 32.3359C6.53148 32.6328 6.62328 32.8711 6.80688 33.0508C6.99047 33.2266 7.24438 33.3145 7.56859 33.3145C7.87719 33.3145 8.15648 33.2344 8.40648 33.0742C8.66039 32.9141 8.84984 32.7012 8.97484 32.4355C9.09984 32.166 9.16234 31.7754 9.16234 31.2637V30.877ZM12.5669 34L10.6274 27.7773H11.5415L12.6372 31.5039C12.7622 31.9258 12.8716 32.3438 12.9653 32.7578C13.0395 32.4297 13.145 32.0352 13.2817 31.5742L14.4184 27.7773H15.3091L13.3755 34H12.5669ZM15.4968 30.8887C15.4968 29.8145 15.7214 29.0039 16.1706 28.457C16.6237 27.9102 17.196 27.6367 17.8874 27.6367C18.5671 27.6367 19.1355 27.9102 19.5925 28.457C20.0495 29.0039 20.278 29.793 20.278 30.8242C20.278 31.9414 20.0534 32.7734 19.6042 33.3203C19.155 33.8672 18.5827 34.1406 17.8874 34.1406C17.2038 34.1406 16.6335 33.8672 16.1765 33.3203C15.7234 32.7695 15.4968 31.959 15.4968 30.8887ZM16.3816 30.8887C16.3816 31.6934 16.528 32.293 16.821 32.6875C17.114 33.0781 17.4773 33.2734 17.9109 33.2734C18.3171 33.2734 18.6648 33.0762 18.9538 32.6816C19.2468 32.2832 19.3933 31.6855 19.3933 30.8887C19.3933 30.0879 19.2468 29.4922 18.9538 29.1016C18.6609 28.707 18.2976 28.5098 17.864 28.5098C17.4538 28.5098 17.1042 28.707 16.8152 29.1016C16.5261 29.4961 16.3816 30.0918 16.3816 30.8887ZM21.0517 34V27.7773H21.831V28.7207C22.0302 28.2832 22.2119 27.9941 22.3759 27.8535C22.5439 27.709 22.7314 27.6367 22.9384 27.6367C23.2275 27.6367 23.5224 27.75 23.8232 27.9766L23.5302 28.9551C23.3154 28.8027 23.1064 28.7266 22.9033 28.7266C22.7197 28.7266 22.5517 28.791 22.3994 28.9199C22.247 29.0488 22.1396 29.2285 22.0771 29.459C21.9677 29.8613 21.913 30.2891 21.913 30.7422V34H21.0517ZM24.093 26.623V25.4102H24.9543V26.623H24.093ZM24.093 34V27.7773H24.9543V34H24.093ZM27.9721 33.0566L28.0893 33.9883C27.851 34.0508 27.6362 34.082 27.4448 34.082C27.144 34.082 26.9018 34.0234 26.7182 33.9062C26.5346 33.7852 26.4077 33.6211 26.3373 33.4141C26.2709 33.207 26.2377 32.7949 26.2377 32.1777V28.5977H25.6049V27.7773H26.2377V26.2363L27.0991 25.6035V27.7773H27.9721V28.5977H27.0991V32.2363C27.0991 32.5723 27.1245 32.7891 27.1752 32.8867C27.2495 33.0273 27.3881 33.0977 27.5912 33.0977C27.6889 33.0977 27.8159 33.084 27.9721 33.0566ZM32.0387 31.9961L32.9294 32.1309C32.7809 32.7949 32.5114 33.2969 32.1208 33.6367C31.7341 33.9727 31.2536 34.1406 30.6794 34.1406C29.9567 34.1406 29.3708 33.8672 28.9216 33.3203C28.4762 32.7695 28.2536 31.9766 28.2536 30.9414C28.2536 29.8672 28.4782 29.0488 28.9274 28.4863C29.3805 27.9199 29.9528 27.6367 30.6442 27.6367C31.3044 27.6367 31.8552 27.9141 32.2966 28.4688C32.738 29.0234 32.9587 29.8262 32.9587 30.877L32.9528 31.1582H29.1442C29.1794 31.8574 29.3415 32.3848 29.6305 32.7402C29.9196 33.0957 30.2712 33.2734 30.6852 33.2734C31.3337 33.2734 31.7848 32.8477 32.0387 31.9961ZM29.197 30.291H32.0446C32.0055 29.752 31.8903 29.3496 31.6989 29.084C31.4216 28.6973 31.068 28.5039 30.6384 28.5039C30.2516 28.5039 29.9216 28.666 29.6481 28.9902C29.3747 29.3105 29.2243 29.7441 29.197 30.291Z" fill="#1919DF"/>
</svg>
