<svg width="120" height="40" viewBox="0 0 120 40" fill="none" xmlns="http://www.w3.org/2000/svg">
<path d="M31.3636 13.0557H11.3636V33.0557H31.3636V13.0557Z" fill="#89CFF0"/>
<path d="M20.9091 24.4443C26.4319 24.4443 30.9091 19.9672 30.9091 14.4443C30.9091 8.92149 26.4319 4.44434 20.9091 4.44434C15.3862 4.44434 10.9091 8.92149 10.9091 14.4443C10.9091 19.9672 15.3862 24.4443 20.9091 24.4443Z" fill="#4141EE"/>
<path d="M30.4545 33.0557C35.9774 33.0557 40.4545 28.5785 40.4545 23.0557C40.4545 17.5328 35.9774 13.0557 30.4545 13.0557C24.9317 13.0557 20.4545 17.5328 20.4545 23.0557C20.4545 28.5785 24.9317 33.0557 30.4545 33.0557Z" fill="#1919DF"/>
<path d="M12.7273 33.0557C18.2501 33.0557 22.7273 28.5785 22.7273 23.0557C22.7273 17.5328 18.2501 13.0557 12.7273 13.0557C7.20442 13.0557 2.72727 17.5328 2.72727 23.0557C2.72727 28.5785 7.20442 33.0557 12.7273 33.0557Z" fill="#89CFF0"/>
<path d="M51.1632 25.0639C50.938 25.5112 50.6706 25.8797 50.3609 26.1691C50.0583 26.4498 49.724 26.6604 49.358 26.8007C48.9991 26.9411 48.619 27.0112 48.2179 27.0112C47.7041 27.0112 47.2326 26.906 46.8033 26.6954C46.381 26.4761 46.0115 26.1604 45.6948 25.7481C45.3852 25.327 45.1459 24.8226 44.977 24.2349C44.8081 23.6384 44.7236 22.9586 44.7236 22.1954C44.7236 21.4586 44.8081 20.7919 44.977 20.1954C45.1529 19.5989 45.3993 19.0858 45.716 18.656C46.0397 18.2174 46.4233 17.884 46.8666 17.656C47.3171 17.4191 47.8203 17.3007 48.3762 17.3007C48.7774 17.3007 49.1539 17.3489 49.5058 17.4454C49.8577 17.5419 50.1744 17.6779 50.4559 17.8533C50.7445 18.0288 50.9837 18.2305 51.1738 18.4586L50.6248 21.8797H50.4348L50.2764 19.9718C50.2342 19.4016 50.1287 18.9367 49.9597 18.577C49.7908 18.2086 49.5551 17.9367 49.2525 17.7612C48.9569 17.577 48.5839 17.4849 48.1334 17.4849C47.8097 17.4849 47.5106 17.5946 47.2361 17.8139C46.9616 18.0332 46.7259 18.3402 46.5288 18.7349C46.3388 19.1209 46.191 19.5726 46.0854 20.0902C45.9799 20.6077 45.9271 21.1647 45.9271 21.7612C45.9271 22.4016 45.9869 22.9981 46.1066 23.5507C46.2332 24.1033 46.4197 24.5858 46.6661 24.9981C46.9124 25.4016 47.222 25.7174 47.5951 25.9454C47.9681 26.1735 48.4044 26.2875 48.9041 26.2875C49.3334 26.2875 49.7345 26.1735 50.1075 25.9454C50.4805 25.7174 50.7972 25.3928 51.0576 24.9718L51.1632 25.0639ZM54.0087 26.5507L54.5893 26.6823V26.8139H52.2563V26.6823L52.8474 26.5507V17.6033H52.1929V17.4586L54.0087 17.0112V26.5507ZM58.1559 20.0375C58.5923 20.0375 58.9793 20.1209 59.3172 20.2875C59.662 20.4542 59.9506 20.6954 60.1828 21.0112C60.415 21.3182 60.591 21.6911 60.7106 22.1297C60.8303 22.5595 60.8901 23.0419 60.8901 23.577C60.8901 24.077 60.8303 24.5375 60.7106 24.9586C60.591 25.3709 60.415 25.7349 60.1828 26.0507C59.9506 26.3577 59.6655 26.5946 59.3277 26.7612C58.9899 26.9279 58.5993 27.0112 58.1559 27.0112C57.7055 27.0112 57.3079 26.9279 56.963 26.7612C56.6252 26.5946 56.3402 26.3577 56.1079 26.0507C55.8757 25.7349 55.6997 25.3709 55.5801 24.9586C55.4675 24.5375 55.4112 24.077 55.4112 23.577C55.4112 23.0419 55.4745 22.5595 55.6012 22.1297C55.7279 21.6911 55.9073 21.3182 56.1396 21.0112C56.3789 20.6954 56.6674 20.4542 57.0052 20.2875C57.3431 20.1209 57.7266 20.0375 58.1559 20.0375ZM58.1559 20.2086C57.8111 20.2086 57.5225 20.3533 57.2903 20.6428C57.0651 20.9323 56.8926 21.3314 56.773 21.8402C56.6604 22.3489 56.6041 22.9279 56.6041 23.577C56.6041 24.0419 56.6322 24.4718 56.6885 24.8665C56.7519 25.2612 56.8469 25.6077 56.9736 25.906C57.1073 26.2042 57.2727 26.4367 57.4697 26.6033C57.6668 26.7612 57.8955 26.8402 58.1559 26.8402C58.4093 26.8402 58.631 26.7612 58.821 26.6033C59.018 26.4367 59.1834 26.2086 59.3172 25.9191C59.4509 25.6209 59.5494 25.2744 59.6127 24.8797C59.6761 24.4761 59.7077 24.0419 59.7077 23.577C59.7077 23.0858 59.6761 22.6384 59.6127 22.2349C59.5494 21.8226 59.4544 21.4674 59.3277 21.1691C59.201 20.8621 59.0392 20.6253 58.8421 20.4586C58.645 20.2919 58.4163 20.2086 58.1559 20.2086ZM63.6729 27.0112C63.1732 27.0112 62.7967 26.8182 62.5433 26.4323C62.29 26.0463 62.1633 25.463 62.1633 24.6823V20.6297H61.5088V20.4849L63.3245 20.0375V24.8928C63.3245 25.4104 63.3984 25.8051 63.5462 26.077C63.694 26.3402 63.9086 26.4718 64.1902 26.4718C64.4224 26.4718 64.6582 26.3709 64.8975 26.1691C65.1367 25.9586 65.362 25.6779 65.5731 25.327C65.7842 24.9674 65.9602 24.5639 66.1009 24.1165V20.6297H65.457V20.4849L67.2622 20.0375V26.4191H67.9061V26.5639L66.1009 27.0112V24.8402L66.0165 24.7612C65.7068 25.5068 65.3549 26.0682 64.9608 26.4454C64.5667 26.8226 64.1374 27.0112 63.6729 27.0112ZM74.0739 17.0112V26.3533H74.7284V26.4849L72.9126 27.0112V24.9454L72.8282 24.8402C72.7507 25.0946 72.6487 25.3533 72.522 25.6165C72.4024 25.8709 72.2581 26.1033 72.0892 26.3139C71.9203 26.5244 71.7267 26.6911 71.5086 26.8139C71.2974 26.9454 71.0652 27.0112 70.8118 27.0112C70.3896 27.0112 70.0166 26.8665 69.6928 26.577C69.3691 26.2875 69.1157 25.8884 68.9327 25.3797C68.7568 24.8709 68.6688 24.2919 68.6688 23.6428C68.6688 22.8621 68.7744 22.2042 68.9855 21.6691C69.1967 21.134 69.4782 20.7305 69.8301 20.4586C70.189 20.1779 70.5866 20.0375 71.023 20.0375C71.3467 20.0375 71.6353 20.1077 71.8886 20.2481C72.149 20.3797 72.3672 20.5507 72.5431 20.7612C72.7191 20.9718 72.8422 21.1954 72.9126 21.4323V17.6823H72.2687V17.5375L74.0739 17.0112ZM71.4769 20.4191C71.1532 20.4191 70.8681 20.5551 70.6218 20.827C70.3825 21.0902 70.196 21.4498 70.0623 21.906C69.9286 22.3621 69.8617 22.884 69.8617 23.4718C69.8617 24.1121 69.918 24.656 70.0306 25.1033C70.1432 25.5507 70.2981 25.8928 70.4951 26.1297C70.6992 26.3577 70.942 26.4718 71.2236 26.4718C71.4347 26.4718 71.6247 26.406 71.7936 26.2744C71.9696 26.1428 72.1279 25.963 72.2687 25.7349C72.4094 25.5068 72.5326 25.2437 72.6381 24.9454C72.7437 24.6472 72.8352 24.327 72.9126 23.9849V22.5639C72.9126 22.2832 72.8774 22.0156 72.8071 21.7612C72.7367 21.4981 72.6381 21.27 72.5115 21.077C72.3848 20.8753 72.2335 20.7174 72.0575 20.6033C71.8816 20.4805 71.688 20.4191 71.4769 20.4191ZM79.2587 26.8139V26.6823L79.9027 26.5507V17.7612L79.2587 17.6297V17.4981H81.7712V17.6297L81.1167 17.7612V26.6165H83.2069C83.3688 26.6165 83.5096 26.5595 83.6292 26.4454C83.7559 26.3314 83.865 26.1516 83.9564 25.906C84.0479 25.6604 84.1289 25.3358 84.1993 24.9323L84.3998 23.2744H84.5793L84.8854 26.8139H79.2587ZM86.8285 18.9718C86.6455 18.9718 86.4837 18.9367 86.3429 18.8665C86.2022 18.7963 86.0931 18.6998 86.0157 18.577C85.9382 18.4542 85.8995 18.3139 85.8995 18.156C85.8995 17.9893 85.9382 17.8489 86.0157 17.7349C86.0931 17.6121 86.2022 17.5156 86.3429 17.4454C86.4837 17.3753 86.6455 17.3402 86.8285 17.3402C87.0115 17.3402 87.1734 17.3753 87.3141 17.4454C87.4549 17.5156 87.564 17.6121 87.6414 17.7349C87.7258 17.8489 87.7681 17.9893 87.7681 18.156C87.7681 18.3139 87.7258 18.4542 87.6414 18.577C87.564 18.6998 87.4549 18.7963 87.3141 18.8665C87.1734 18.9367 87.0115 18.9718 86.8285 18.9718ZM85.7201 26.8139V26.6823L86.3112 26.5507V20.6297H85.6567V20.4849L87.4725 20.0375V26.5507L88.0531 26.6823V26.8139H85.7201ZM95.3225 26.6823V26.8139H92.9156V26.6823L93.5173 26.5507V22.156C93.5173 21.6297 93.4434 21.2349 93.2956 20.9718C93.1478 20.7086 92.9332 20.577 92.6516 20.577C92.4616 20.577 92.2716 20.6516 92.0816 20.8007C91.8986 20.9498 91.7191 21.1428 91.5432 21.3797C91.3743 21.6165 91.2194 21.8709 91.0787 22.1428C90.9379 22.4147 90.8218 22.6735 90.7303 22.9191V26.5507L91.3321 26.6823V26.8139H88.9885V26.6823L89.5691 26.5507V20.6297H88.9251V20.4849L90.7303 20.0375V22.1954L90.8148 22.2875C91.0118 21.8314 91.2265 21.4367 91.4587 21.1033C91.698 20.7612 91.9584 20.4981 92.2399 20.3139C92.5285 20.1297 92.8346 20.0375 93.1584 20.0375C93.4399 20.0375 93.6756 20.0946 93.8657 20.2086C94.0557 20.3139 94.2105 20.4674 94.3302 20.6691C94.4498 20.8709 94.5378 21.1121 94.5941 21.3928C94.6504 21.6735 94.6785 21.9937 94.6785 22.3533V26.5507L95.3225 26.6823ZM97.8231 26.5507L98.4037 26.6823V26.8139H96.0707V26.6823L96.6619 26.5507V17.6033H96.0073V17.4586L97.8231 17.0112V26.5507ZM97.7175 23.1954V23.0244C97.9216 23.0068 98.1539 22.9279 98.4143 22.7875C98.6747 22.6472 98.9386 22.4893 99.206 22.3139C99.4242 22.1647 99.6037 22.0375 99.7444 21.9323C99.8852 21.827 99.9907 21.7349 100.061 21.656C100.131 21.577 100.167 21.5112 100.167 21.4586C100.167 21.4147 100.135 21.3797 100.072 21.3533C100.008 21.3182 99.9274 21.2832 99.8289 21.2481C99.7374 21.213 99.6353 21.1735 99.5227 21.1297C99.4172 21.0858 99.3151 21.0332 99.2166 20.9718C99.118 20.9016 99.0371 20.8139 98.9738 20.7086C98.9104 20.5946 98.8788 20.463 98.8788 20.3139C98.8788 20.1472 98.9175 20.0025 98.9949 19.8797C99.0793 19.7481 99.1919 19.6472 99.3327 19.577C99.4735 19.4981 99.6353 19.4586 99.8183 19.4586C100.008 19.4586 100.177 19.5025 100.325 19.5902C100.473 19.6779 100.589 19.7963 100.673 19.9454C100.765 20.0946 100.811 20.27 100.811 20.4718C100.811 20.7174 100.747 20.9498 100.621 21.1691C100.494 21.3884 100.304 21.6165 100.051 21.8533C99.9168 21.9761 99.7444 22.1165 99.5333 22.2744C99.3221 22.4323 99.0723 22.6033 98.7837 22.7875V22.9323H99.5122C99.66 23.3358 99.7866 23.6954 99.8922 24.0112C99.9978 24.3182 100.093 24.5902 100.177 24.827C100.325 25.1867 100.455 25.4937 100.568 25.7481C100.687 26.0025 100.797 26.2042 100.895 26.3533C100.994 26.5025 101.085 26.5946 101.17 26.6297C101.212 26.6472 101.247 26.6516 101.275 26.6428C101.303 26.634 101.335 26.6165 101.37 26.5902V26.7612C101.293 26.8139 101.215 26.8577 101.138 26.8928C101.068 26.9367 100.99 26.9674 100.906 26.9849C100.828 27.0025 100.74 27.0112 100.642 27.0112C100.438 27.0112 100.244 26.9454 100.061 26.8139C99.8852 26.6735 99.7127 26.4586 99.5438 26.1691C99.3749 25.8709 99.2025 25.5025 99.0266 25.0639C98.921 24.7568 98.8084 24.4542 98.6887 24.156C98.5761 23.8577 98.4635 23.5375 98.3509 23.1954H97.7175ZM104.642 20.0375C105.205 20.0375 105.67 20.1779 106.036 20.4586C106.409 20.7393 106.687 21.1209 106.87 21.6033C107.06 22.077 107.155 22.6209 107.155 23.2349H102.985V23.1033L106.078 22.9586C106.078 22.3797 106.025 21.8884 105.919 21.4849C105.814 21.0726 105.655 20.7568 105.444 20.5375C105.233 20.3182 104.966 20.2086 104.642 20.2086C104.311 20.2086 104.023 20.327 103.776 20.5639C103.53 20.8007 103.34 21.156 103.206 21.6297C103.073 22.1033 103.006 22.6911 103.006 23.3928C103.006 23.8051 103.052 24.1998 103.143 24.577C103.234 24.9454 103.365 25.2788 103.534 25.577C103.703 25.8665 103.91 26.0946 104.156 26.2612C104.403 26.4279 104.684 26.5112 105.001 26.5112C105.212 26.5112 105.42 26.4761 105.624 26.406C105.828 26.3358 106.018 26.2349 106.194 26.1033C106.37 25.963 106.528 25.7963 106.669 25.6033C106.817 25.4016 106.943 25.1691 107.049 24.906L107.155 25.0375C107 25.4235 106.824 25.7437 106.627 25.9981C106.43 26.2525 106.215 26.4542 105.983 26.6033C105.751 26.7525 105.511 26.8577 105.265 26.9191C105.019 26.9805 104.769 27.0112 104.515 27.0112C104.093 27.0112 103.717 26.9191 103.386 26.7349C103.055 26.5507 102.774 26.3051 102.541 25.9981C102.309 25.6823 102.13 25.3182 102.003 24.906C101.883 24.4937 101.823 24.0551 101.823 23.5902C101.823 23.0551 101.894 22.5726 102.035 22.1428C102.175 21.7042 102.369 21.327 102.615 21.0112C102.869 20.6954 103.168 20.4542 103.512 20.2875C103.857 20.1209 104.234 20.0375 104.642 20.0375ZM108.184 26.8139V26.6823L108.765 26.5244V20.6297H108.121V20.4849L109.926 20.0375V22.1297L110.011 22.2349C110.116 21.9367 110.218 21.6691 110.317 21.4323C110.415 21.1954 110.514 20.9981 110.612 20.8402C110.788 20.5595 110.971 20.3577 111.161 20.2349C111.358 20.1033 111.573 20.0375 111.805 20.0375C111.967 20.0375 112.115 20.077 112.249 20.156C112.389 20.2349 112.502 20.3533 112.586 20.5112C112.678 20.6604 112.724 20.8533 112.724 21.0902C112.724 21.2656 112.685 21.4279 112.608 21.577C112.537 21.7261 112.435 21.8489 112.301 21.9454C112.168 22.0332 112.006 22.077 111.816 22.077C111.647 22.077 111.496 22.0419 111.362 21.9718C111.228 21.8928 111.123 21.7875 111.045 21.656C110.975 21.5244 110.94 21.3797 110.94 21.2218C110.94 21.1516 110.943 21.0946 110.95 21.0507C110.964 20.9981 110.975 20.9498 110.982 20.906C110.989 20.8533 110.992 20.8139 110.992 20.7875C110.992 20.7261 110.975 20.6954 110.94 20.6954C110.869 20.6954 110.785 20.7744 110.686 20.9323C110.595 21.0814 110.489 21.3051 110.369 21.6033C110.292 21.7788 110.215 21.9893 110.137 22.2349C110.06 22.4805 109.989 22.7349 109.926 22.9981V26.5244L110.517 26.6823V26.8139H108.184Z" fill="#2A0061"/>
</svg>
