<svg width="25" height="36" viewBox="0 0 25 36" fill="none" xmlns="http://www.w3.org/2000/svg">
<path d="M3.75 5C3.75 4.27065 4.03973 3.57118 4.55546 3.05546C5.07118 2.53973 5.77065 2.25 6.5 2.25H16.5C17.2293 2.25 17.9288 2.53973 18.4445 3.05546C18.9603 3.57118 19.25 4.27065 19.25 5V10.5C19.25 10.6989 19.171 10.8897 19.0303 11.0303C18.8897 11.171 18.6989 11.25 18.5 11.25C18.3011 11.25 18.1103 11.171 17.9697 11.0303C17.829 10.8897 17.75 10.6989 17.75 10.5V5C17.75 4.31 17.19 3.75 16.5 3.75H6.5C5.81 3.75 5.25 4.31 5.25 5V19C5.25 19.69 5.81 20.25 6.5 20.25H14C14.1989 20.25 14.3897 20.329 14.5303 20.4697C14.671 20.6103 14.75 20.8011 14.75 21C14.75 21.1989 14.671 21.3897 14.5303 21.5303C14.3897 21.671 14.1989 21.75 14 21.75H6.5C5.77065 21.75 5.07118 21.4603 4.55546 20.9445C4.03973 20.4288 3.75 19.7293 3.75 19V5Z" fill="#1919DF"/>
<path d="M18.5 13.25C18.6989 13.25 18.8897 13.329 19.0303 13.4697C19.171 13.6103 19.25 13.8011 19.25 14V14.418C20.277 14.456 21.25 15.213 21.25 16.333C21.25 16.5319 21.171 16.7227 21.0303 16.8633C20.8897 17.004 20.6989 17.083 20.5 17.083C20.3011 17.083 20.1103 17.004 19.9697 16.8633C19.829 16.7227 19.75 16.5319 19.75 16.333C19.75 16.191 19.588 15.917 19.169 15.917H17.663C17.5435 15.9138 17.4267 15.9535 17.334 16.029C17.266 16.089 17.25 16.146 17.25 16.183C17.2485 16.2333 17.2545 16.2835 17.268 16.332C17.2813 16.3418 17.2953 16.3505 17.31 16.358C17.35 16.378 17.41 16.402 17.503 16.43L19.921 17.131C20.197 17.213 20.551 17.349 20.829 17.644C21.129 17.964 21.25 18.374 21.25 18.817C21.25 19.884 20.294 20.583 19.337 20.583H19.25V21C19.25 21.1989 19.171 21.3897 19.0303 21.5303C18.8897 21.671 18.6989 21.75 18.5 21.75C18.3011 21.75 18.1103 21.671 17.9697 21.5303C17.829 21.3897 17.75 21.1989 17.75 21V20.582C16.723 20.544 15.75 19.787 15.75 18.667C15.75 18.4681 15.829 18.2773 15.9697 18.1367C16.1103 17.996 16.3011 17.917 16.5 17.917C16.6989 17.917 16.8897 17.996 17.0303 18.1367C17.171 18.2773 17.25 18.4681 17.25 18.667C17.25 18.809 17.412 19.083 17.831 19.083H19.337C19.4565 19.0862 19.5733 19.0465 19.666 18.971C19.734 18.911 19.75 18.854 19.75 18.817C19.7515 18.7667 19.7455 18.7165 19.732 18.668C19.7187 18.6582 19.7047 18.6495 19.69 18.642C19.65 18.622 19.59 18.598 19.497 18.57L17.079 17.869C16.803 17.787 16.449 17.651 16.171 17.356C15.871 17.036 15.75 16.626 15.75 16.183C15.75 15.116 16.706 14.417 17.663 14.417H17.75V14C17.75 13.8011 17.829 13.6103 17.9697 13.4697C18.1103 13.329 18.3011 13.25 18.5 13.25ZM6.75 11C6.75 10.8011 6.82902 10.6103 6.96967 10.4697C7.11032 10.329 7.30109 10.25 7.5 10.25H8C8.19891 10.25 8.38968 10.329 8.53033 10.4697C8.67098 10.6103 8.75 10.8011 8.75 11C8.75 11.1989 8.67098 11.3897 8.53033 11.5303C8.38968 11.671 8.19891 11.75 8 11.75H7.5C7.30109 11.75 7.11032 11.671 6.96967 11.5303C6.82902 11.3897 6.75 11.1989 6.75 11ZM9.75 11C9.75 10.8011 9.82902 10.6103 9.96967 10.4697C10.1103 10.329 10.3011 10.25 10.5 10.25H15.5C15.6989 10.25 15.8897 10.329 16.0303 10.4697C16.171 10.6103 16.25 10.8011 16.25 11C16.25 11.1989 16.171 11.3897 16.0303 11.5303C15.8897 11.671 15.6989 11.75 15.5 11.75H10.5C10.3011 11.75 10.1103 11.671 9.96967 11.5303C9.82902 11.3897 9.75 11.1989 9.75 11ZM6.75 14C6.75 13.8011 6.82902 13.6103 6.96967 13.4697C7.11032 13.329 7.30109 13.25 7.5 13.25H8C8.19891 13.25 8.38968 13.329 8.53033 13.4697C8.67098 13.6103 8.75 13.8011 8.75 14C8.75 14.1989 8.67098 14.3897 8.53033 14.5303C8.38968 14.671 8.19891 14.75 8 14.75H7.5C7.30109 14.75 7.11032 14.671 6.96967 14.5303C6.82902 14.3897 6.75 14.1989 6.75 14ZM9.75 14C9.75 13.8011 9.82902 13.6103 9.96967 13.4697C10.1103 13.329 10.3011 13.25 10.5 13.25H14C14.1989 13.25 14.3897 13.329 14.5303 13.4697C14.671 13.6103 14.75 13.8011 14.75 14C14.75 14.1989 14.671 14.3897 14.5303 14.5303C14.3897 14.671 14.1989 14.75 14 14.75H10.5C10.3011 14.75 10.1103 14.671 9.96967 14.5303C9.82902 14.3897 9.75 14.1989 9.75 14ZM6.75 17C6.75 16.8011 6.82902 16.6103 6.96967 16.4697C7.11032 16.329 7.30109 16.25 7.5 16.25H8C8.19891 16.25 8.38968 16.329 8.53033 16.4697C8.67098 16.6103 8.75 16.8011 8.75 17C8.75 17.1989 8.67098 17.3897 8.53033 17.5303C8.38968 17.671 8.19891 17.75 8 17.75H7.5C7.30109 17.75 7.11032 17.671 6.96967 17.5303C6.82902 17.3897 6.75 17.1989 6.75 17ZM9.75 17C9.75 16.8011 9.82902 16.6103 9.96967 16.4697C10.1103 16.329 10.3011 16.25 10.5 16.25H12.5C12.6989 16.25 12.8897 16.329 13.0303 16.4697C13.171 16.6103 13.25 16.8011 13.25 17C13.25 17.1989 13.171 17.3897 13.0303 17.5303C12.8897 17.671 12.6989 17.75 12.5 17.75H10.5C10.3011 17.75 10.1103 17.671 9.96967 17.5303C9.82902 17.3897 9.75 17.1989 9.75 17ZM6.5 6.5C6.5 6.034 6.5 5.801 6.576 5.617C6.67771 5.37246 6.87227 5.17826 7.117 5.077C7.301 5 7.534 5 8 5H15C15.466 5 15.699 5 15.883 5.076C16.1275 5.17771 16.3217 5.37227 16.423 5.617C16.5 5.801 16.5 6.034 16.5 6.5C16.5 6.966 16.5 7.199 16.424 7.383C16.3223 7.62754 16.1277 7.82174 15.883 7.923C15.699 8 15.466 8 15 8H8C7.534 8 7.301 8 7.117 7.924C6.87246 7.82229 6.67826 7.62773 6.577 7.383C6.5 7.199 6.5 6.966 6.5 6.5Z" fill="#1919DF"/>
<path d="M3.76172 34V25.4102H6.41602C7.04102 25.4102 7.50195 25.4648 7.79883 25.5742C8.20508 25.7227 8.5293 25.998 8.77148 26.4004C9.01367 26.8027 9.13477 27.2969 9.13477 27.8828C9.13477 28.6562 8.9375 29.2871 8.54297 29.7754C8.14844 30.2637 7.4668 30.5078 6.49805 30.5078H4.69336V34H3.76172ZM4.69336 29.4941H6.51562C7.08984 29.4941 7.50977 29.3652 7.77539 29.1074C8.04102 28.8457 8.17383 28.4531 8.17383 27.9297C8.17383 27.5898 8.10742 27.2988 7.97461 27.0566C7.8457 26.8145 7.6875 26.6484 7.5 26.5586C7.31641 26.4688 6.98242 26.4238 6.49805 26.4238H4.69336V29.4941ZM9.93188 34V25.4102H10.7932V34H9.93188ZM15.2348 33.2324C14.9458 33.5332 14.645 33.7598 14.3325 33.9121C14.02 34.0645 13.6958 34.1406 13.3598 34.1406C12.8286 34.1406 12.4048 33.9805 12.0884 33.6602C11.772 33.3398 11.6138 32.9082 11.6138 32.3652C11.6138 32.0059 11.688 31.6875 11.8364 31.4102C11.9848 31.1328 12.188 30.916 12.4458 30.7598C12.7036 30.6035 13.0942 30.4883 13.6177 30.4141C14.3208 30.3125 14.8364 30.1914 15.1645 30.0508L15.1704 29.7812C15.1704 29.3555 15.0942 29.0566 14.9419 28.8848C14.727 28.6348 14.397 28.5098 13.9516 28.5098C13.5493 28.5098 13.2485 28.5938 13.0493 28.7617C12.8501 28.9258 12.7036 29.2363 12.6098 29.6934L11.7602 29.5527C11.8813 28.8848 12.1255 28.3984 12.4927 28.0938C12.8638 27.7891 13.393 27.6367 14.0805 27.6367C14.6157 27.6367 15.0356 27.7383 15.3403 27.9414C15.645 28.1406 15.8364 28.3887 15.9145 28.6855C15.9966 28.9824 16.0376 29.416 16.0376 29.9863V31.3926C16.0376 32.377 16.0552 32.998 16.0903 33.2559C16.1294 33.5098 16.2036 33.7578 16.313 34H15.4106C15.3208 33.7852 15.2622 33.5293 15.2348 33.2324ZM15.1645 30.877C14.8481 31.0332 14.3774 31.166 13.7524 31.2754C13.3891 31.3379 13.1352 31.4102 12.9907 31.4922C12.8462 31.5703 12.7329 31.6836 12.6509 31.832C12.5727 31.9766 12.5337 32.1445 12.5337 32.3359C12.5337 32.6328 12.6255 32.8711 12.8091 33.0508C12.9927 33.2266 13.2466 33.3145 13.5708 33.3145C13.8794 33.3145 14.1587 33.2344 14.4087 33.0742C14.6626 32.9141 14.852 32.7012 14.977 32.4355C15.102 32.166 15.1645 31.7754 15.1645 31.2637V30.877ZM17.1394 34V27.7773H17.9187V28.6621C18.1062 28.3184 18.3347 28.0625 18.6042 27.8945C18.8777 27.7227 19.1902 27.6367 19.5417 27.6367C19.8152 27.6367 20.0671 27.6914 20.2976 27.8008C20.532 27.9062 20.7195 28.0469 20.8601 28.2227C21.0046 28.3945 21.112 28.6191 21.1823 28.8965C21.2527 29.1738 21.2878 29.5996 21.2878 30.1738V34H20.4206V30.2148C20.4206 29.7578 20.3816 29.4238 20.3034 29.2129C20.2253 29.002 20.1023 28.8398 19.9343 28.7266C19.7702 28.6094 19.5788 28.5508 19.3601 28.5508C18.946 28.5508 18.6159 28.7051 18.3698 29.0137C18.1237 29.3223 18.0007 29.8516 18.0007 30.6016V34H17.1394Z" fill="#1919DF"/>
</svg>
