<svg width="30" height="38" viewBox="0 0 30 38" fill="none" xmlns="http://www.w3.org/2000/svg">
<path d="M12.18 1H17.82L18.467 4.237C19.0027 4.47706 19.512 4.77197 19.987 5.117L23.116 4.058L25.936 8.942L23.455 11.122C23.5149 11.7058 23.5149 12.2942 23.455 12.878L25.935 15.058L23.116 19.942L19.987 18.884C19.512 19.2287 19.0026 19.5233 18.467 19.763L17.819 23H12.18L11.533 19.763C10.9973 19.5229 10.4879 19.228 10.013 18.883L6.88397 19.942L4.06396 15.058L6.54496 12.878C6.48505 12.2942 6.48505 11.7058 6.54496 11.122L4.06496 8.942L6.88496 4.058L10.013 5.116C10.4879 4.77131 10.9973 4.47674 11.533 4.237L12.18 1ZM13.82 3L13.278 5.705L12.753 5.898C12.0572 6.15488 11.4105 6.52895 10.841 7.004L10.411 7.363L7.79596 6.478L6.61596 8.522L8.68796 10.343L8.59296 10.894C8.46853 11.6261 8.46853 12.3739 8.59296 13.106L8.68796 13.656L6.61496 15.478L7.79496 17.522L10.411 16.637L10.841 16.996C11.4105 17.4711 12.0572 17.8451 12.753 18.102L13.278 18.295L13.82 21H16.18L16.722 18.295L17.247 18.102C17.9427 17.8451 18.5894 17.4711 19.159 16.996L19.589 16.637L22.205 17.522L23.385 15.478L21.313 13.657L21.407 13.106C21.5314 12.3739 21.5314 11.6261 21.407 10.894L21.313 10.344L23.385 8.522L22.205 6.478L19.589 7.363L19.159 7.004C18.5894 6.52895 17.9427 6.15488 17.247 5.898L16.722 5.705L16.18 3H13.82ZM15 9C14.2043 9 13.4413 9.31607 12.8786 9.87868C12.316 10.4413 12 11.2044 12 12C12 12.7956 12.316 13.5587 12.8786 14.1213C13.4413 14.6839 14.2043 15 15 15C15.7956 15 16.5587 14.6839 17.1213 14.1213C17.6839 13.5587 18 12.7956 18 12C18 11.2044 17.6839 10.4413 17.1213 9.87868C16.5587 9.31607 15.7956 9 15 9ZM9.99996 12C9.99996 10.6739 10.5267 9.40215 11.4644 8.46447C12.4021 7.52678 13.6739 7 15 7C16.326 7 17.5978 7.52678 18.5355 8.46447C19.4732 9.40215 20 10.6739 20 12C20 13.3261 19.4732 14.5979 18.5355 15.5355C17.5978 16.4732 16.326 17 15 17C13.6739 17 12.4021 16.4732 11.4644 15.5355C10.5267 14.5979 9.99996 13.3261 9.99996 12Z" fill="#1919DF"/>
<path d="M0.445312 32.2402L1.32422 32.1465C1.37109 32.6191 1.47656 32.9883 1.64062 33.2539C1.80859 33.5156 2.04688 33.7266 2.35547 33.8867C2.66406 34.0469 3.01172 34.127 3.39844 34.127C3.95312 34.127 4.38281 33.9922 4.6875 33.7227C4.99609 33.4492 5.15039 33.0957 5.15039 32.6621C5.15039 32.4082 5.09375 32.1875 4.98047 32C4.87109 31.8086 4.70312 31.6523 4.47656 31.5312C4.25391 31.4102 3.76953 31.2402 3.02344 31.0215C2.35938 30.8262 1.88672 30.6289 1.60547 30.4297C1.32422 30.2305 1.10547 29.9785 0.949219 29.6738C0.792969 29.3652 0.714844 29.0176 0.714844 28.6309C0.714844 27.9355 0.939453 27.3672 1.38867 26.9258C1.83789 26.4844 2.44336 26.2637 3.20508 26.2637C3.72852 26.2637 4.18555 26.3672 4.57617 26.5742C4.9707 26.7812 5.27539 27.0781 5.49023 27.4648C5.70898 27.8516 5.82617 28.3066 5.8418 28.8301L4.94531 28.9121C4.89844 28.3535 4.73047 27.9395 4.44141 27.6699C4.15625 27.4004 3.75391 27.2656 3.23438 27.2656C2.70703 27.2656 2.30469 27.3848 2.02734 27.623C1.75 27.8574 1.61133 28.1621 1.61133 28.5371C1.61133 28.8848 1.71289 29.1543 1.91602 29.3457C2.11914 29.5371 2.57617 29.7305 3.28711 29.9258C3.98242 30.1172 4.4707 30.2832 4.75195 30.4238C5.18164 30.6426 5.50586 30.9316 5.72461 31.291C5.94336 31.6465 6.05273 32.0723 6.05273 32.5684C6.05273 33.0605 5.9375 33.5098 5.70703 33.916C5.47656 34.3184 5.16211 34.625 4.76367 34.8359C4.36914 35.0469 3.89258 35.1523 3.33398 35.1523C2.46289 35.1523 1.76758 34.8906 1.24805 34.3672C0.732422 33.8438 0.464844 33.1348 0.445312 32.2402ZM10.4475 32.9961L11.3381 33.1309C11.1897 33.7949 10.9202 34.2969 10.5295 34.6367C10.1428 34.9727 9.66234 35.1406 9.08813 35.1406C8.36547 35.1406 7.77953 34.8672 7.33031 34.3203C6.885 33.7695 6.66234 32.9766 6.66234 31.9414C6.66234 30.8672 6.88695 30.0488 7.33617 29.4863C7.7893 28.9199 8.36156 28.6367 9.05297 28.6367C9.71313 28.6367 10.2639 28.9141 10.7053 29.4688C11.1467 30.0234 11.3674 30.8262 11.3674 31.877L11.3616 32.1582H7.55297C7.58813 32.8574 7.75023 33.3848 8.0393 33.7402C8.32836 34.0957 8.67992 34.2734 9.09398 34.2734C9.74242 34.2734 10.1936 33.8477 10.4475 32.9961ZM7.6057 31.291H10.4534C10.4143 30.752 10.2991 30.3496 10.1077 30.084C9.83031 29.6973 9.4768 29.5039 9.04711 29.5039C8.66039 29.5039 8.33031 29.666 8.05688 29.9902C7.78344 30.3105 7.63305 30.7441 7.6057 31.291ZM14.1157 34.0566L14.2329 34.9883C13.9946 35.0508 13.7798 35.082 13.5884 35.082C13.2876 35.082 13.0454 35.0234 12.8618 34.9062C12.6782 34.7852 12.5513 34.6211 12.4809 34.4141C12.4145 34.207 12.3813 33.7949 12.3813 33.1777V29.5977H11.7485V28.7773H12.3813V27.2363L13.2427 26.6035V28.7773H14.1157V29.5977H13.2427V33.2363C13.2427 33.5723 13.268 33.7891 13.3188 33.8867C13.393 34.0273 13.5317 34.0977 13.7348 34.0977C13.8325 34.0977 13.9595 34.084 14.1157 34.0566ZM16.6179 34.0566L16.7351 34.9883C16.4968 35.0508 16.282 35.082 16.0905 35.082C15.7898 35.082 15.5476 35.0234 15.364 34.9062C15.1804 34.7852 15.0534 34.6211 14.9831 34.4141C14.9167 34.207 14.8835 33.7949 14.8835 33.1777V29.5977H14.2507V28.7773H14.8835V27.2363L15.7448 26.6035V28.7773H16.6179V29.5977H15.7448V33.2363C15.7448 33.5723 15.7702 33.7891 15.821 33.8867C15.8952 34.0273 16.0339 34.0977 16.237 34.0977C16.3347 34.0977 16.4616 34.084 16.6179 34.0566ZM17.1923 27.623V26.4102H18.0537V27.623H17.1923ZM17.1923 35V28.7773H18.0537V35H17.1923ZM19.1437 35V28.7773H19.923V29.6621C20.1105 29.3184 20.3391 29.0625 20.6086 28.8945C20.882 28.7227 21.1945 28.6367 21.5461 28.6367C21.8195 28.6367 22.0715 28.6914 22.302 28.8008C22.5363 28.9062 22.7238 29.0469 22.8645 29.2227C23.009 29.3945 23.1164 29.6191 23.1867 29.8965C23.257 30.1738 23.2922 30.5996 23.2922 31.1738V35H22.425V31.2148C22.425 30.7578 22.3859 30.4238 22.3078 30.2129C22.2297 30.002 22.1066 29.8398 21.9387 29.7266C21.7746 29.6094 21.5832 29.5508 21.3645 29.5508C20.9504 29.5508 20.6203 29.7051 20.3742 30.0137C20.1281 30.3223 20.0051 30.8516 20.0051 31.6016V35H19.1437ZM24.2123 35.5156L25.0561 35.668C25.0952 36 25.2123 36.2461 25.4077 36.4062C25.603 36.5703 25.8745 36.6523 26.2221 36.6523C26.601 36.6523 26.9018 36.5605 27.1245 36.377C27.351 36.1973 27.5053 35.9277 27.5873 35.5684C27.6381 35.3496 27.6635 34.8887 27.6635 34.1855C27.476 34.4551 27.2651 34.6582 27.0307 34.7949C26.7963 34.9316 26.5366 35 26.2514 35C25.642 35 25.1362 34.7422 24.7338 34.2266C24.2729 33.6328 24.0424 32.8379 24.0424 31.8418C24.0424 31.1738 24.144 30.5898 24.3471 30.0898C24.5502 29.5898 24.8159 29.2227 25.144 28.9883C25.476 28.7539 25.8471 28.6367 26.2573 28.6367C26.558 28.6367 26.8315 28.7109 27.0776 28.8594C27.3276 29.0078 27.5483 29.2305 27.7397 29.5273V28.7773H28.5366V34.1562C28.5366 35.1133 28.4584 35.7949 28.3022 36.2012C28.1459 36.6113 27.8901 36.9336 27.5346 37.168C27.1791 37.4062 26.7514 37.5254 26.2514 37.5254C25.5912 37.5254 25.0834 37.3477 24.728 36.9922C24.3725 36.6367 24.2006 36.1445 24.2123 35.5156ZM24.933 31.7773C24.933 32.5938 25.0678 33.1895 25.3373 33.5645C25.6069 33.9395 25.937 34.127 26.3276 34.127C26.7182 34.127 27.0502 33.9434 27.3237 33.5762C27.5971 33.209 27.7338 32.625 27.7338 31.8242C27.7338 31.043 27.5932 30.4629 27.312 30.084C27.0307 29.7012 26.6889 29.5098 26.2866 29.5098C25.9272 29.5098 25.6108 29.7012 25.3373 30.084C25.0678 30.4629 24.933 31.0273 24.933 31.7773Z" fill="#1919DF"/>
</svg>
