<svg width="24" height="24" viewBox="0 0 24 24" fill="none" xmlns="http://www.w3.org/2000/svg">
<path d="M23.1561 9.31268C23.0485 8.97894 22.8507 8.68147 22.5845 8.4532C22.3183 8.22493 21.9942 8.07476 21.6479 8.01931L16.2147 7.13632L13.696 2.24192C13.5356 1.93033 13.2924 1.66896 12.9932 1.48648C12.694 1.304 12.3503 1.20746 11.9998 1.20746C11.6494 1.20746 11.3057 1.304 11.0065 1.48648C10.7072 1.66896 10.4641 1.93033 10.3036 2.24192L7.78496 7.13632L2.35182 8.01931C2.00591 8.07561 1.6822 8.2261 1.41619 8.45427C1.15019 8.68244 0.95217 8.97947 0.843869 9.31277C0.735569 9.64608 0.721169 10.0028 0.802249 10.3437C0.883329 10.6847 1.05676 10.9967 1.3035 11.2456L5.18007 15.1534L4.341 20.5935C4.28716 20.94 4.32993 21.2946 4.46459 21.6184C4.59925 21.9422 4.82059 22.2225 5.10428 22.4286C5.38796 22.6348 5.72299 22.7586 6.07252 22.7867C6.42205 22.8147 6.77254 22.7458 7.08544 22.5875L11.9998 20.1083L16.9143 22.5875C17.2273 22.7454 17.5777 22.8141 17.9271 22.7859C18.2764 22.7578 18.6113 22.6339 18.8949 22.4278C19.1785 22.2218 19.3998 21.9416 19.5346 21.618C19.6693 21.2944 19.7123 20.9399 19.6588 20.5935L18.8197 15.1534L22.6963 11.2456C22.9438 10.9972 23.1177 10.6851 23.1989 10.344C23.28 10.0029 23.2652 9.64592 23.1561 9.31268ZM21.6312 10.1892L17.2217 14.6344L18.1763 20.8223C18.1881 20.8964 18.1792 20.9724 18.1505 21.0417C18.1218 21.1111 18.0745 21.1711 18.0138 21.2152C17.9531 21.2593 17.8813 21.2858 17.8065 21.2916C17.7317 21.2975 17.6567 21.2825 17.5899 21.2483L11.9998 18.4282L6.40969 21.2484C6.34287 21.2826 6.26789 21.2976 6.19307 21.2917C6.11826 21.2859 6.04651 21.2594 5.9858 21.2153C5.92508 21.1712 5.87777 21.1112 5.84909 21.0418C5.82042 20.9725 5.8115 20.8965 5.82333 20.8224L6.77794 14.6344L2.36846 10.1892C2.3158 10.136 2.2788 10.0693 2.26151 9.9965C2.24422 9.92367 2.24731 9.84749 2.27044 9.7763C2.29357 9.7051 2.33585 9.64165 2.39264 9.59289C2.44944 9.54413 2.51855 9.51194 2.59243 9.49985L8.77247 8.49551L11.6374 2.92831C11.6717 2.86171 11.7236 2.80585 11.7876 2.76684C11.8515 2.72784 11.9249 2.7072 11.9998 2.7072C12.0747 2.7072 12.1481 2.72784 12.2121 2.76684C12.276 2.80585 12.3279 2.86171 12.3622 2.92831L15.2272 8.49551L21.4072 9.49985C21.4811 9.51194 21.5502 9.54413 21.607 9.59289C21.6638 9.64165 21.7061 9.7051 21.7292 9.7763C21.7523 9.84749 21.7554 9.92367 21.7381 9.9965C21.7208 10.0693 21.6838 10.136 21.6312 10.1892L21.6312 10.1892Z" fill="black"/>
</svg>
