<svg width="528" height="144" viewBox="0 0 528 144" fill="none" xmlns="http://www.w3.org/2000/svg">
<rect width="528" height="144" fill="white"/>
<rect x="50" y="47" width="80" height="80" fill="#89CFF0"/>
<circle cx="88" cy="56" r="40" fill="#4141EE"/>
<circle cx="130" cy="87" r="40" fill="#1919DF"/>
<circle cx="52" cy="87" r="40" fill="#89CFF0"/>
<path d="M226.064 90.616C225.04 92.248 223.824 93.592 222.416 94.648C221.04 95.672 219.52 96.44 217.856 96.952C216.224 97.464 214.496 97.72 212.672 97.72C210.336 97.72 208.192 97.336 206.24 96.568C204.32 95.768 202.64 94.616 201.2 93.112C199.792 91.576 198.704 89.736 197.936 87.592C197.168 85.416 196.784 82.936 196.784 80.152C196.784 77.464 197.168 75.032 197.936 72.856C198.736 70.68 199.856 68.808 201.296 67.24C202.768 65.64 204.512 64.424 206.528 63.592C208.576 62.728 210.864 62.296 213.392 62.296C215.216 62.296 216.928 62.472 218.528 62.824C220.128 63.176 221.568 63.672 222.848 64.312C224.16 64.952 225.248 65.688 226.112 66.52L223.616 79H222.752L222.032 72.04C221.84 69.96 221.36 68.264 220.592 66.952C219.824 65.608 218.752 64.616 217.376 63.976C216.032 63.304 214.336 62.968 212.288 62.968C210.816 62.968 209.456 63.368 208.208 64.168C206.96 64.968 205.888 66.088 204.992 67.528C204.128 68.936 203.456 70.584 202.976 72.472C202.496 74.36 202.256 76.392 202.256 78.568C202.256 80.904 202.528 83.08 203.072 85.096C203.648 87.112 204.496 88.872 205.616 90.376C206.736 91.848 208.144 93 209.84 93.832C211.536 94.664 213.52 95.08 215.792 95.08C217.744 95.08 219.568 94.664 221.264 93.832C222.96 93 224.4 91.816 225.584 90.28L226.064 90.616ZM239.002 96.04L241.642 96.52V97H231.034V96.52L233.722 96.04V63.4H230.746V62.872L239.002 61.24V96.04ZM257.859 72.28C259.843 72.28 261.603 72.584 263.139 73.192C264.707 73.8 266.019 74.68 267.075 75.832C268.131 76.952 268.931 78.312 269.475 79.912C270.019 81.48 270.291 83.24 270.291 85.192C270.291 87.016 270.019 88.696 269.475 90.232C268.931 91.736 268.131 93.064 267.075 94.216C266.019 95.336 264.723 96.2 263.187 96.808C261.651 97.416 259.875 97.72 257.859 97.72C255.811 97.72 254.003 97.416 252.435 96.808C250.899 96.2 249.603 95.336 248.547 94.216C247.491 93.064 246.691 91.736 246.147 90.232C245.635 88.696 245.379 87.016 245.379 85.192C245.379 83.24 245.667 81.48 246.243 79.912C246.819 78.312 247.635 76.952 248.691 75.832C249.779 74.68 251.091 73.8 252.627 73.192C254.163 72.584 255.907 72.28 257.859 72.28ZM257.859 72.904C256.291 72.904 254.979 73.432 253.923 74.488C252.899 75.544 252.115 77 251.571 78.856C251.059 80.712 250.803 82.824 250.803 85.192C250.803 86.888 250.931 88.456 251.187 89.896C251.475 91.336 251.907 92.6 252.483 93.688C253.091 94.776 253.843 95.624 254.739 96.232C255.635 96.808 256.675 97.096 257.859 97.096C259.011 97.096 260.019 96.808 260.883 96.232C261.779 95.624 262.531 94.792 263.139 93.736C263.747 92.648 264.195 91.384 264.483 89.944C264.771 88.472 264.915 86.888 264.915 85.192C264.915 83.4 264.771 81.768 264.483 80.296C264.195 78.792 263.763 77.496 263.187 76.408C262.611 75.288 261.875 74.424 260.979 73.816C260.083 73.208 259.043 72.904 257.859 72.904ZM282.944 97.72C280.672 97.72 278.96 97.016 277.808 95.608C276.656 94.2 276.08 92.072 276.08 89.224V74.44H273.104V73.912L281.36 72.28V89.992C281.36 91.88 281.696 93.32 282.368 94.312C283.04 95.272 284.016 95.752 285.296 95.752C286.352 95.752 287.424 95.384 288.512 94.648C289.6 93.88 290.624 92.856 291.584 91.576C292.544 90.264 293.344 88.792 293.984 87.16V74.44H291.056V73.912L299.264 72.28V95.56H302.192V96.088L293.984 97.72V89.8L293.6 89.512C292.192 92.232 290.592 94.28 288.8 95.656C287.008 97.032 285.056 97.72 282.944 97.72ZM330.236 61.24V95.32H333.212V95.8L324.956 97.72V90.184L324.572 89.8C324.22 90.728 323.756 91.672 323.18 92.632C322.636 93.56 321.98 94.408 321.212 95.176C320.444 95.944 319.564 96.552 318.572 97C317.612 97.48 316.556 97.72 315.404 97.72C313.484 97.72 311.788 97.192 310.316 96.136C308.844 95.08 307.692 93.624 306.86 91.768C306.06 89.912 305.66 87.8 305.66 85.432C305.66 82.584 306.14 80.184 307.1 78.232C308.06 76.28 309.34 74.808 310.94 73.816C312.572 72.792 314.38 72.28 316.364 72.28C317.836 72.28 319.148 72.536 320.3 73.048C321.484 73.528 322.476 74.152 323.276 74.92C324.076 75.688 324.636 76.504 324.956 77.368V63.688H322.028V63.16L330.236 61.24ZM318.428 73.672C316.956 73.672 315.66 74.168 314.54 75.16C313.452 76.12 312.604 77.432 311.996 79.096C311.388 80.76 311.084 82.664 311.084 84.808C311.084 87.144 311.34 89.128 311.852 90.76C312.364 92.392 313.068 93.64 313.964 94.504C314.892 95.336 315.996 95.752 317.276 95.752C318.236 95.752 319.1 95.512 319.868 95.032C320.668 94.552 321.388 93.896 322.028 93.064C322.668 92.232 323.228 91.272 323.708 90.184C324.188 89.096 324.604 87.928 324.956 86.68V81.496C324.956 80.472 324.796 79.496 324.476 78.568C324.156 77.608 323.708 76.776 323.132 76.072C322.556 75.336 321.868 74.76 321.068 74.344C320.268 73.896 319.388 73.672 318.428 73.672ZM353.811 97V96.52L356.739 96.04V63.976L353.811 63.496V63.016H365.235V63.496L362.259 63.976V96.28H371.763C372.499 96.28 373.139 96.072 373.683 95.656C374.259 95.24 374.755 94.584 375.171 93.688C375.587 92.792 375.955 91.608 376.275 90.136L377.187 84.088H378.003L379.395 97H353.811ZM388.23 68.392C387.398 68.392 386.662 68.264 386.022 68.008C385.382 67.752 384.886 67.4 384.534 66.952C384.182 66.504 384.006 65.992 384.006 65.416C384.006 64.808 384.182 64.296 384.534 63.88C384.886 63.432 385.382 63.08 386.022 62.824C386.662 62.568 387.398 62.44 388.23 62.44C389.062 62.44 389.798 62.568 390.438 62.824C391.078 63.08 391.574 63.432 391.926 63.88C392.31 64.296 392.502 64.808 392.502 65.416C392.502 65.992 392.31 66.504 391.926 66.952C391.574 67.4 391.078 67.752 390.438 68.008C389.798 68.264 389.062 68.392 388.23 68.392ZM383.19 97V96.52L385.878 96.04V74.44H382.902V73.912L391.158 72.28V96.04L393.798 96.52V97H383.19ZM426.851 96.52V97H415.907V96.52L418.643 96.04V80.008C418.643 78.088 418.307 76.648 417.635 75.688C416.963 74.728 415.987 74.248 414.707 74.248C413.843 74.248 412.979 74.52 412.115 75.064C411.283 75.608 410.467 76.312 409.667 77.176C408.899 78.04 408.195 78.968 407.555 79.96C406.915 80.952 406.387 81.896 405.971 82.792V96.04L408.707 96.52V97H398.051V96.52L400.691 96.04V74.44H397.763V73.912L405.971 72.28V80.152L406.355 80.488C407.251 78.824 408.227 77.384 409.283 76.168C410.371 74.92 411.555 73.96 412.835 73.288C414.147 72.616 415.539 72.28 417.011 72.28C418.291 72.28 419.363 72.488 420.227 72.904C421.091 73.288 421.795 73.848 422.339 74.584C422.883 75.32 423.283 76.2 423.539 77.224C423.795 78.248 423.923 79.416 423.923 80.728V96.04L426.851 96.52ZM438.221 96.04L440.861 96.52V97H430.253V96.52L432.941 96.04V63.4H429.965V62.872L438.221 61.24V96.04ZM437.741 83.8V83.176C438.669 83.112 439.725 82.824 440.909 82.312C442.093 81.8 443.293 81.224 444.509 80.584C445.501 80.04 446.317 79.576 446.957 79.192C447.597 78.808 448.077 78.472 448.397 78.184C448.717 77.896 448.877 77.656 448.877 77.464C448.877 77.304 448.733 77.176 448.445 77.08C448.157 76.952 447.789 76.824 447.341 76.696C446.925 76.568 446.461 76.424 445.949 76.264C445.469 76.104 445.005 75.912 444.557 75.688C444.109 75.432 443.741 75.112 443.453 74.728C443.165 74.312 443.021 73.832 443.021 73.288C443.021 72.68 443.197 72.152 443.549 71.704C443.933 71.224 444.445 70.856 445.085 70.6C445.725 70.312 446.461 70.168 447.293 70.168C448.157 70.168 448.925 70.328 449.597 70.648C450.269 70.968 450.797 71.4 451.181 71.944C451.597 72.488 451.805 73.128 451.805 73.864C451.805 74.76 451.517 75.608 450.941 76.408C450.365 77.208 449.501 78.04 448.349 78.904C447.741 79.352 446.957 79.864 445.997 80.44C445.037 81.016 443.901 81.64 442.589 82.312V82.84H445.901C446.573 84.312 447.149 85.624 447.629 86.776C448.109 87.896 448.541 88.888 448.925 89.752C449.597 91.064 450.189 92.184 450.701 93.112C451.245 94.04 451.741 94.776 452.189 95.32C452.637 95.864 453.053 96.2 453.437 96.328C453.629 96.392 453.789 96.408 453.917 96.376C454.045 96.344 454.189 96.28 454.349 96.184V96.808C453.997 97 453.645 97.16 453.293 97.288C452.973 97.448 452.621 97.56 452.237 97.624C451.885 97.688 451.485 97.72 451.037 97.72C450.109 97.72 449.229 97.48 448.397 97C447.597 96.488 446.813 95.704 446.045 94.648C445.277 93.56 444.493 92.216 443.693 90.616C443.213 89.496 442.701 88.392 442.157 87.304C441.645 86.216 441.133 85.048 440.621 83.8H437.741ZM469.226 72.28C471.786 72.28 473.898 72.792 475.562 73.816C477.258 74.84 478.522 76.232 479.354 77.992C480.218 79.72 480.65 81.704 480.65 83.944H461.69V83.464L475.754 82.936C475.754 80.824 475.514 79.032 475.034 77.56C474.554 76.056 473.834 74.904 472.874 74.104C471.914 73.304 470.698 72.904 469.226 72.904C467.722 72.904 466.41 73.336 465.29 74.2C464.17 75.064 463.306 76.36 462.698 78.088C462.09 79.816 461.786 81.96 461.786 84.52C461.786 86.024 461.994 87.464 462.41 88.84C462.826 90.184 463.418 91.4 464.186 92.488C464.954 93.544 465.898 94.376 467.018 94.984C468.138 95.592 469.418 95.896 470.858 95.896C471.818 95.896 472.762 95.768 473.69 95.512C474.618 95.256 475.482 94.888 476.282 94.408C477.082 93.896 477.802 93.288 478.442 92.584C479.114 91.848 479.69 91 480.17 90.04L480.65 90.52C479.946 91.928 479.146 93.096 478.25 94.024C477.354 94.952 476.378 95.688 475.322 96.232C474.266 96.776 473.178 97.16 472.058 97.384C470.938 97.608 469.802 97.72 468.65 97.72C466.73 97.72 465.018 97.384 463.514 96.712C462.01 96.04 460.73 95.144 459.674 94.024C458.618 92.872 457.802 91.544 457.226 90.04C456.682 88.536 456.41 86.936 456.41 85.24C456.41 83.288 456.73 81.528 457.37 79.96C458.01 78.36 458.89 76.984 460.01 75.832C461.162 74.68 462.522 73.8 464.09 73.192C465.658 72.584 467.37 72.28 469.226 72.28ZM485.332 97V96.52L487.972 95.944V74.44H485.044V73.912L493.252 72.28V79.912L493.636 80.296C494.116 79.208 494.58 78.232 495.028 77.368C495.476 76.504 495.924 75.784 496.372 75.208C497.172 74.184 498.004 73.448 498.868 73C499.764 72.52 500.74 72.28 501.796 72.28C502.532 72.28 503.204 72.424 503.812 72.712C504.452 73 504.964 73.432 505.348 74.008C505.764 74.552 505.972 75.256 505.972 76.12C505.972 76.76 505.796 77.352 505.444 77.896C505.124 78.44 504.66 78.888 504.052 79.24C503.444 79.56 502.708 79.72 501.844 79.72C501.076 79.72 500.388 79.592 499.78 79.336C499.172 79.048 498.692 78.664 498.34 78.184C498.02 77.704 497.86 77.176 497.86 76.6C497.86 76.344 497.876 76.136 497.908 75.976C497.972 75.784 498.02 75.608 498.052 75.448C498.084 75.256 498.1 75.112 498.1 75.016C498.1 74.792 498.02 74.68 497.86 74.68C497.54 74.68 497.156 74.968 496.708 75.544C496.292 76.088 495.812 76.904 495.268 77.992C494.916 78.632 494.564 79.4 494.212 80.296C493.86 81.192 493.54 82.12 493.252 83.08V95.944L495.94 96.52V97H485.332Z" fill="#2A0061"/>
</svg>
